<svg width="221" height="222" viewBox="0 0 221 222" fill="none" xmlns="http://www.w3.org/2000/svg">
<path d="M102.947 5.30376C107.511 2.42438 113.324 2.42438 117.888 5.30377L124.157 9.25901C127.177 11.1644 130.811 11.8437 134.316 11.158L141.59 9.73452C146.886 8.69825 152.306 10.798 155.522 15.1316L159.939 21.0844C162.067 23.9522 165.21 25.8984 168.725 26.5249L176.023 27.8255C181.336 28.7723 185.631 32.6881 187.064 37.8907L189.032 45.0372C189.981 48.4799 192.208 51.4302 195.26 53.2844L201.595 57.1333C206.207 59.9353 208.798 65.1384 208.255 70.5073L207.509 77.8823C207.149 81.4351 208.161 84.9909 210.337 87.8224L214.854 93.6998C218.142 97.9786 218.678 103.766 216.232 108.576L212.872 115.184C211.254 118.367 210.913 122.048 211.919 125.474L214.007 132.587C215.528 137.764 213.937 143.355 209.919 146.957L204.399 151.904C201.74 154.287 200.092 157.597 199.792 161.155L199.171 168.542C198.718 173.919 195.215 178.557 190.167 180.464L183.233 183.084C179.892 184.346 177.16 186.836 175.595 190.046L172.347 196.709C169.983 201.56 165.041 204.62 159.645 204.574L152.232 204.512C148.662 204.482 145.214 205.817 142.596 208.245L137.16 213.285C133.203 216.954 127.489 218.022 122.474 216.03L115.585 213.294C112.266 211.976 108.569 211.976 105.25 213.294L98.3611 216.03C93.3458 218.022 87.6322 216.954 83.6751 213.285L78.2394 208.245C75.6209 205.817 72.1735 204.482 68.6027 204.512L61.1904 204.574C55.7943 204.62 50.8524 201.56 48.4878 196.709L45.2398 190.046C43.6752 186.836 40.943 184.346 37.6025 183.084L30.6681 180.464C25.6199 178.557 22.1171 173.919 21.6645 168.542L21.0429 161.155C20.7434 157.597 19.0955 154.287 16.4363 151.904L10.9165 146.957C6.89801 143.355 5.30734 137.764 6.82783 132.587L8.91644 125.474C9.9226 122.048 9.58149 118.367 7.96288 115.184L4.60296 108.576C2.15696 103.766 2.69328 97.9786 5.98149 93.6998L10.4983 87.8224C12.6742 84.9909 13.686 81.4351 13.3265 77.8823L12.5803 70.5073C12.0371 65.1384 14.628 59.9353 19.2398 57.1333L25.5748 53.2844C28.6266 51.4302 30.8546 48.4799 31.8028 45.0372L33.7711 37.8907C35.2041 32.6881 39.4996 28.7723 44.8122 27.8255L52.1098 26.5249C55.6253 25.8984 58.7686 23.9521 60.8965 21.0844L65.3135 15.1316C68.5291 10.798 73.9491 8.69825 79.2449 9.73452L86.5196 11.158C90.0241 11.8437 93.6581 11.1644 96.6782 9.25901L102.947 5.30376Z" fill="white"/>
</svg>
