<svg width="56" height="56" viewBox="0 0 56 56" fill="none" xmlns="http://www.w3.org/2000/svg">
<path d="M27.5658 1.3851C27.766 1.12741 28.1554 1.12741 28.3556 1.3851L28.7441 1.08325L28.3556 1.3851L31.2839 5.15468C31.7496 5.75419 32.5898 5.91125 33.2406 5.52046L37.3329 3.06325C37.6126 2.89528 37.9757 3.03594 38.0693 3.34853L39.4381 7.92139C39.6558 8.64865 40.3825 9.09862 41.1306 8.96932L45.8342 8.15636C46.1557 8.10078 46.4435 8.36309 46.4178 8.68839L46.0423 13.4469C45.9826 14.2037 46.4977 14.8858 47.2419 15.0355L51.9216 15.9766C52.2415 16.0409 52.415 16.3894 52.2736 16.6835L50.2044 20.985C49.8754 21.6692 50.1093 22.4913 50.7492 22.8997L54.7729 25.4677C55.048 25.6432 55.0839 26.0309 54.8458 26.254L51.3624 29.5177C50.8085 30.0367 50.7296 30.8878 51.1788 31.4998L54.0031 35.3479C54.1962 35.611 54.0896 35.9855 53.787 36.1075L49.3599 37.8924C48.6559 38.1763 48.2749 38.9414 48.4726 39.6744L49.7161 44.2829C49.8011 44.5979 49.5665 44.9086 49.2402 44.9131L44.4673 44.9782C43.7082 44.9886 43.0766 45.5644 42.9962 46.3193L42.4909 51.0658C42.4564 51.3903 42.1254 51.5953 41.8195 51.4816L37.3454 49.8182C36.6338 49.5536 35.8368 49.8624 35.4892 50.5373L33.3034 54.7807C33.154 55.0708 32.7712 55.1424 32.5271 54.9258L28.956 51.7585C28.3881 51.2548 27.5333 51.2548 26.9654 51.7585L23.3943 54.9258C23.1502 55.1424 22.7674 55.0708 22.618 54.7807L20.4322 50.5373C20.0846 49.8624 19.2876 49.5536 18.576 49.8182L14.1019 51.4816C13.796 51.5953 13.465 51.3903 13.4304 51.0658L12.9252 46.3193C12.8448 45.5644 12.2132 44.9886 11.4541 44.9782L6.68119 44.9131C6.35492 44.9086 6.12027 44.5979 6.20528 44.2829L7.44877 39.6744C7.64653 38.9414 7.26554 38.1763 6.56147 37.8924L2.13442 36.1075C1.83179 35.9855 1.72523 35.611 1.9183 35.3479L4.74261 31.4998C5.19179 30.8878 5.11292 30.0367 4.55894 29.5177L1.07563 26.254C0.83751 26.0309 0.873436 25.6432 1.14849 25.4677L5.17218 22.8997C5.81211 22.4913 6.04602 21.6692 5.71695 20.985L3.64782 16.6835C3.50637 16.3894 3.67993 16.0409 3.99982 15.9766L8.67947 15.0355C9.42372 14.8858 9.93882 14.2037 9.8791 13.4469L9.50359 8.68839C9.47792 8.3631 9.76567 8.10078 10.0872 8.15636L14.7908 8.96932C15.5389 9.09862 16.2656 8.64865 16.4833 7.92139L17.8521 3.34853C17.9457 3.03594 18.3087 2.89528 18.5885 3.06325L22.6808 5.52046C23.3316 5.91125 24.1718 5.75419 24.6375 5.15468L27.5658 1.3851L27.1777 1.08359L27.5658 1.3851Z" stroke="white"/>
</svg>
