<svg width="19" height="18" viewBox="0 0 19 18" fill="none" xmlns="http://www.w3.org/2000/svg">
<path d="M13.5472 2.08206C14.5389 2.08491 15.4892 2.46529 16.1905 3.14013C16.8918 3.81496 17.2871 4.72942 17.2901 5.68378V12.8865C17.2871 13.8408 16.8918 14.7553 16.1905 15.4301C15.4892 16.1049 14.5389 16.4853 13.5472 16.4882H6.06212C5.07034 16.4853 4.12004 16.1049 3.41874 15.4301C2.71745 14.7553 2.32216 13.8408 2.31919 12.8865V5.68378C2.32216 4.72942 2.71745 3.81496 3.41874 3.14013C4.12004 2.46529 5.07034 2.08491 6.06212 2.08206H13.5472ZM13.5472 0.641602H6.06212C3.18014 0.641602 0.822266 2.91052 0.822266 5.68378V12.8865C0.822266 15.6597 3.18014 17.9286 6.06212 17.9286H13.5472C16.4291 17.9286 18.787 15.6597 18.787 12.8865V5.68378C18.787 2.91052 16.4291 0.641602 13.5472 0.641602Z" fill="#030211"/>
<path d="M14.67 5.68407C14.4479 5.68407 14.2308 5.62071 14.0462 5.50199C13.8616 5.38327 13.7176 5.21452 13.6327 5.0171C13.5477 4.81967 13.5254 4.60243 13.5688 4.39285C13.6121 4.18327 13.719 3.99075 13.876 3.83965C14.0331 3.68854 14.2331 3.58564 14.4509 3.54395C14.6687 3.50227 14.8945 3.52366 15.0997 3.60544C15.3048 3.68721 15.4802 3.8257 15.6036 4.00337C15.7269 4.18105 15.7928 4.38994 15.7928 4.60363C15.7931 4.7456 15.7643 4.88624 15.708 5.01746C15.6516 5.14868 15.569 5.26791 15.4646 5.3683C15.3603 5.46869 15.2364 5.54826 15.1 5.60245C14.9637 5.65664 14.8175 5.68438 14.67 5.68407ZM9.80467 6.40411C10.3969 6.40411 10.9758 6.57309 11.4682 6.8897C11.9606 7.2063 12.3444 7.65629 12.571 8.18278C12.7976 8.70927 12.8569 9.2886 12.7414 9.84752C12.6259 10.4064 12.3407 10.9198 11.9219 11.3228C11.5032 11.7258 10.9696 12.0002 10.3888 12.1113C9.80799 12.2225 9.20595 12.1655 8.65882 11.9474C8.11169 11.7293 7.64405 11.36 7.31503 10.8862C6.98602 10.4123 6.81041 9.85528 6.81041 9.28541C6.81126 8.52149 7.127 7.7891 7.68835 7.24892C8.24969 6.70875 9.0108 6.40493 9.80467 6.40411ZM9.80467 4.96365C8.9164 4.96365 8.04807 5.21712 7.3095 5.692C6.57093 6.16688 5.99528 6.84185 5.65535 7.63154C5.31543 8.42124 5.22649 9.2902 5.39978 10.1285C5.57307 10.9669 6.00082 11.7369 6.62892 12.3414C7.25702 12.9458 8.05728 13.3574 8.92848 13.5241C9.79969 13.6909 10.7027 13.6053 11.5234 13.2782C12.344 12.9511 13.0455 12.3972 13.539 11.6865C14.0325 10.9757 14.2959 10.1402 14.2959 9.28541C14.2959 8.13921 13.8227 7.03995 12.9804 6.22947C12.1382 5.41898 10.9958 4.96365 9.80467 4.96365Z" fill="#030211"/>
</svg>
