<svg width="113" height="68" viewBox="0 0 113 68" fill="none" xmlns="http://www.w3.org/2000/svg">
<path d="M11.2039 48.5529C11.2266 48.9742 11.1138 49.3936 10.8741 49.7794C10.6344 50.1653 10.2741 50.5075 9.82035 50.7802C8.68369 51.4378 7.23975 51.7687 5.77491 51.7073H3.50404V56.3217H1.08279V47.7963C1.11038 47.3036 1.05994 46.8103 0.932407 46.3256C0.900606 46.1357 0.797257 45.9553 0.633201 45.8035C0.469144 45.6516 0.250429 45.5338 0 45.4625L0 45.3133H6.01553C6.7104 45.2839 7.40651 45.3537 8.06264 45.5185C8.71877 45.6832 9.32158 45.9396 9.83539 46.2724C10.2691 46.5651 10.61 46.9198 10.8356 47.313C11.0612 47.7061 11.1662 48.1288 11.1438 48.5529M23.5207 56.3217H14.4974V47.7963C14.525 47.3036 14.4746 46.8103 14.347 46.3256C14.3001 46.1429 14.1866 45.9721 14.0178 45.83C13.849 45.6879 13.6307 45.5796 13.3845 45.5157V45.3665H16.9187V55.0535H23.4606L23.5207 56.3217ZM39.4167 56.3217H36.9353L34.8299 53.0074H28.288L26.2878 56.3217H24.1674L30.7845 45.3346H32.529L39.4167 56.3217ZM34.0328 51.7499L32.153 48.7447C31.8565 48.3218 31.6197 47.8792 31.4462 47.4233C31.2676 47.8724 31.0517 48.3137 30.7995 48.7447L29.07 51.7499H34.0328ZM51.6884 46.6347H46.6955V56.3217H44.2292V46.6134H39.2212V45.3133H51.6884V46.6347ZM56.5008 56.3217H54.1397V47.7963C54.1673 47.3036 54.1169 46.8103 53.9893 46.3256C53.9377 46.1468 53.822 45.9803 53.6535 45.8422C53.485 45.7042 53.2692 45.5991 53.0269 45.537V45.3665H56.561L56.5008 56.3217ZM75.4497 56.3217H73.4496L63.5089 47.8922V56.3217H61.4035V47.7963C61.4311 47.3036 61.3806 46.8103 61.2531 46.3256C61.2089 46.1453 61.1 45.976 60.9366 45.8341C60.7733 45.6923 60.5612 45.5826 60.3207 45.5157V45.3665H63.3285L73.2992 53.7427V45.3133H75.3745L75.4497 56.3217ZM93.1203 52.059C93.1689 52.679 93.0378 53.2995 92.7352 53.8824C92.4326 54.4652 91.9649 54.9979 91.3608 55.4478C90.7257 55.8567 89.9789 56.1689 89.1666 56.365C88.3544 56.5611 87.4939 56.6371 86.6386 56.5881C85.769 56.6637 84.8865 56.5993 84.057 56.3996C83.2274 56.1999 82.4722 55.87 81.8477 55.4346C81.2231 54.9992 80.7453 54.4695 80.45 53.885C80.1546 53.3005 80.0493 52.6763 80.1419 52.059V47.7963C80.167 47.3032 80.1115 46.8097 79.9764 46.3256C79.9309 46.1441 79.8196 45.974 79.6536 45.8321C79.4875 45.6901 79.2723 45.5811 79.029 45.5157V45.3665H82.5481V52.059C82.4984 52.4878 82.5713 52.9193 82.7625 53.3276C82.9537 53.736 83.2593 54.1127 83.6609 54.4354C84.5048 54.9348 85.5693 55.2084 86.6687 55.2084C87.7681 55.2084 88.8326 54.9348 89.6765 54.4354C90.0754 54.1119 90.3782 53.7347 90.5669 53.3264C90.7555 52.9181 90.826 52.487 90.7743 52.059V45.3452H93.1203V52.059ZM112.791 56.3217H110.385V48.0627L105.633 52.9968H104.79L100.038 48.0627V56.3217H97.7523V47.7963C97.7799 47.3036 97.7294 46.8103 97.6019 46.3256C97.5578 46.1453 97.4488 45.976 97.2855 45.8341C97.1221 45.6923 96.91 45.5826 96.6695 45.5157V45.3665H100.068L105.422 50.94L110.731 45.3665H112.791V56.3217ZM89.7517 64.1117H109.934L112.791 63.6322L109.874 63.1952H89.7517V64.1117ZM31.1905 59.913H38.3791V60.7016H32.3635V63.2272H37.7474V64.0158H32.4086V66.6267H38.5896V67.426H31.1905V59.913ZM43.8231 59.913H45.2518L48.1242 62.8436L51.132 59.913H52.5607L48.9513 63.5149L52.8614 67.426H51.3576L48.1242 64.2289L44.936 67.426H43.6126L47.5076 63.5576L43.8231 59.913ZM65.7046 60.5844C66.0721 60.8171 66.3604 61.1058 66.548 61.4288C66.7355 61.7518 66.8174 62.1007 66.7874 62.4493C66.8159 62.8057 66.7337 63.1622 66.5466 63.4936C66.3595 63.825 66.0721 64.1233 65.7046 64.3675C64.8547 64.8494 63.7837 65.0923 62.6968 65.0495H59.8846V67.4366H58.6514V59.913H62.6367C63.7409 59.8626 64.8327 60.1015 65.7046 60.5844ZM64.8323 63.7814C65.0991 63.6172 65.3085 63.4116 65.4442 63.1804C65.5799 62.9493 65.6381 62.699 65.6144 62.4493C65.6381 62.2026 65.5797 61.9555 65.4438 61.7278C65.308 61.5001 65.0985 61.2983 64.8323 61.1385C64.1844 60.8135 63.3989 60.6555 62.6066 60.6909H59.8846V64.2396H62.6066C63.4007 64.2719 64.1863 64.1102 64.8323 63.7814ZM79.8712 60.3499C80.7019 60.6793 81.3966 61.1569 81.8864 61.7353C82.4136 62.306 82.7005 62.9714 82.7135 63.6535C82.7243 64.3357 82.4693 65.0068 81.9766 65.593C81.4743 66.1755 80.7635 66.6535 79.9163 66.9784C79.0689 67.32 78.109 67.4965 77.1341 67.4899C76.1497 67.4962 75.1802 67.3199 74.3218 66.9784C73.4911 66.649 72.7964 66.1714 72.3066 65.593C71.8202 65.005 71.5657 64.3351 71.5697 63.6535C71.5656 62.9819 71.8204 62.3224 72.3066 61.7459C72.7964 61.1675 73.4911 60.6899 74.3218 60.3606C75.1802 60.0191 76.1497 59.8427 77.1341 59.849C78.109 59.8424 79.0689 60.0189 79.9163 60.3606L79.8712 60.3499ZM77.089 60.627C76.3344 60.6255 75.5924 60.7633 74.9358 61.0268C74.2792 61.2903 73.7307 61.6703 73.3443 62.1296C72.9554 62.586 72.7524 63.1097 72.7578 63.6428C72.7523 64.1827 72.9551 64.7133 73.3443 65.1774C73.7311 65.6238 74.2754 65.9911 74.9234 66.2431C75.581 66.5084 76.3247 66.6479 77.0815 66.6479C77.8382 66.6479 78.5819 66.5084 79.2395 66.2431C79.858 65.9819 80.3749 65.6157 80.7434 65.1774C81.1326 64.7133 81.3354 64.1827 81.3299 63.6428C81.3353 63.1097 81.1323 62.586 80.7434 62.1296C80.3724 61.6927 79.8561 61.3268 79.2395 61.0639C78.6014 60.7955 77.876 60.6486 77.1341 60.6376L77.089 60.627ZM2.91753 63.1952L0 63.6322L2.91753 64.1117H23.0996V63.1952H2.91753ZM79.1192 24.1064C80.7524 21.651 81.0104 18.8479 79.8411 16.263C79.6486 17.603 79.1403 18.9106 78.3372 20.1314C78.8858 21.3365 79.1648 22.595 79.1643 23.8613L79.1192 24.1064ZM72.6525 24.7991C72.6525 25.0015 72.6525 25.204 72.6525 25.4171C72.6537 26.7487 72.3385 28.0708 71.7201 29.3282C73.8127 28.6329 75.6578 27.6131 77.119 26.3443C77.6099 24.7539 77.6099 23.1071 77.119 21.5168C75.9206 22.8026 74.3898 23.9163 72.6074 24.7991H72.6525ZM73.1338 16.2737C72.5936 17.5297 71.7654 18.7143 70.6824 19.7797C71.5651 20.9437 72.165 22.2046 72.457 23.5096C72.9863 23.2357 73.4888 22.9366 73.9609 22.6144C74.9989 21.8655 75.8801 21.0149 76.5776 20.0888C75.8242 18.6522 74.6506 17.3448 73.1338 16.2524V16.2737ZM73.4947 10.4338C73.7236 11.23 73.8394 12.0403 73.8406 12.8529C73.8358 13.5679 73.7402 14.2813 73.5548 14.9842C73.7804 15.1227 73.991 15.2719 74.2015 15.4211C75.5221 16.3547 76.6193 17.4345 77.4499 18.6182C78.057 17.4331 78.3625 16.181 78.3522 14.9203C78.3549 14.5643 78.3298 14.2086 78.277 13.8546C77.0626 12.4703 75.4291 11.2945 73.4947 10.4125V10.4338ZM49.0115 16.5294C49.1318 16.2204 49.2521 15.922 49.4025 15.6236C48.8854 15.782 48.3831 15.9635 47.8986 16.1671C47.8986 16.5507 48.049 16.9344 48.1543 17.3074C48.4701 17.041 48.7258 16.7852 49.0115 16.5294ZM47.5076 21.2717C47.935 21.517 48.3819 21.7447 48.8461 21.9537C48.7558 21.6447 48.6806 21.325 48.6355 21.0159C48.3994 20.7362 48.1836 20.4481 47.9889 20.1527C47.7888 20.5186 47.6181 20.8922 47.4775 21.2717H47.5076ZM44.0637 18.5542C44.6632 19.2338 45.3695 19.8631 46.1692 20.4298C46.4179 19.8301 46.7348 19.2456 47.1166 18.6821C46.8451 18.0977 46.6389 17.4991 46.5 16.8918C45.606 17.3823 44.7892 17.9396 44.0637 18.5542ZM71.0133 24.2236C70.8185 23.0144 70.3407 21.8367 69.5996 20.7388C68.7084 21.4609 67.6987 22.1048 66.5919 22.6571C66.6676 23.6239 66.5767 24.5937 66.3212 25.545C67.9791 25.2951 69.5655 24.8483 71.0133 24.2236ZM63.3886 30.266C64.0226 30.3177 64.6604 30.3426 65.2985 30.3406C66.801 30.3423 68.2957 30.1879 69.735 29.8823C70.6264 28.4968 71.0929 26.9931 71.1035 25.4704C69.4617 26.0992 67.6824 26.5279 65.8399 26.7386C65.3062 28.003 64.4777 29.1953 63.3886 30.266ZM60.035 26.696C59.1437 27.4117 58.1338 28.0486 57.0272 28.5929C58.4463 29.2532 60.0122 29.7395 61.6591 30.0315C62.7273 29.0709 63.561 27.9902 64.1255 26.8345H63.1179C62.0865 26.8531 61.0548 26.8068 60.035 26.696ZM62.5765 24.0957C62.1675 24.6504 61.7052 25.1845 61.1929 25.6942C61.8317 25.7495 62.4744 25.778 63.1179 25.7795C63.6142 25.7795 64.1105 25.7795 64.6218 25.7262C64.8787 24.9435 65.0099 24.1427 65.0128 23.3391C64.2264 23.631 63.4123 23.8838 62.5765 24.0957ZM72.1863 14.185C72.2648 13.7359 72.305 13.284 72.3066 12.8315C72.302 11.7665 72.0791 10.7075 71.6449 9.68781C69.69 9.05668 67.5671 8.72964 65.4188 8.72871C66.3083 9.88768 66.9135 11.1453 67.2085 12.4479C68.9953 12.8217 70.6788 13.4092 72.1863 14.185ZM67.1634 16.5614C68.1646 17.196 69.058 17.9113 69.8252 18.6928C70.7677 17.6797 71.4547 16.5582 71.8555 15.3785C70.5054 14.613 68.9792 14.0181 67.3438 13.6201C67.3438 13.8653 67.3438 14.0997 67.3438 14.3448C67.3631 15.087 67.2876 15.8289 67.1182 16.5614H67.1634ZM62.366 13.0553C62.7821 13.6038 63.1391 14.1738 63.4337 14.7604C64.2235 15.0414 64.9781 15.3694 65.6895 15.7408C65.7675 15.2882 65.8077 14.8327 65.8099 14.3768C65.8404 14.0219 65.8404 13.666 65.8099 13.3111C64.6788 13.1357 63.5238 13.0499 62.366 13.0553ZM58.6514 9.79438C59.6748 10.4226 60.5841 11.1386 61.3584 11.9257H62.2457C63.3204 11.9269 64.3927 11.9983 65.4489 12.1389C65.1025 10.9593 64.4825 9.82855 63.6142 8.79265C61.8908 8.92145 60.2118 9.26035 58.6514 9.79438ZM63.4638 3.03802C59.9935 1.89513 56.0456 1.71268 52.3952 2.52649C54.2871 2.65965 56.1331 3.02002 57.8543 3.59217C59.5699 3.20506 61.3628 3.01791 63.163 3.03802H63.4638ZM64.4263 7.62041H65.2985C67.1825 7.61958 69.0533 7.84292 70.8328 8.28113C69.85 6.79608 68.4052 5.48809 66.6069 4.45536C65.479 4.26208 64.3234 4.16195 63.163 4.15697C62.0453 4.1554 60.9307 4.24117 59.8395 4.41273C60.7995 4.86146 61.6915 5.37928 62.5013 5.95796C63.2152 6.46803 63.8598 7.02464 64.4263 7.62041ZM52.3952 7.29005C54.1795 7.66842 55.862 8.25553 57.3731 9.0271C59.0094 8.39813 60.7839 7.96939 62.6216 7.75895C62.229 7.40418 61.8072 7.06613 61.3584 6.74656C60.2921 5.99011 59.0763 5.34753 57.7491 4.839C55.7311 5.37734 53.9001 6.21689 52.3802 7.30071L52.3952 7.29005ZM44.154 7.03429C46.2901 6.74412 48.4845 6.74412 50.6207 7.03429L51.2222 6.58671C52.5361 5.64504 54.0605 4.86368 55.7339 4.2742C54.0604 3.8468 52.2942 3.6304 50.5154 3.63479C50.0131 3.63225 49.511 3.65004 49.0115 3.68808C47.051 4.52797 45.385 5.67209 44.1389 7.03429H44.154ZM75.8558 28.8166C74.3643 29.6625 72.6742 30.3154 70.8629 30.7455C70.0094 31.9625 68.8587 33.0629 67.4641 33.9958C71.0894 33.0661 74.0862 31.2013 75.8558 28.774V28.8166ZM70.0959 5.37184C71.3039 6.43065 72.2497 7.62695 72.8931 8.90987C74.5736 9.53156 76.0979 10.3453 77.4048 11.3183C76.6709 9.81178 75.4741 8.43955 73.9007 7.30071C72.7789 6.51804 71.4961 5.8605 70.0959 5.35053V5.37184ZM36.9955 9.43205C38.4857 8.57458 40.1753 7.90746 41.9884 7.46056C42.8495 6.24687 43.9992 5.14736 45.3871 4.21026C43.2706 4.75042 41.3496 5.61668 39.7626 6.74656C38.6476 7.53361 37.7139 8.4398 36.9955 9.43205ZM33.0854 24.7671C31.3744 22.7123 30.5743 20.3405 30.7888 17.9595C31.0033 15.5785 32.2226 13.2981 34.2885 11.4142C35.1389 9.09468 36.9524 7.0095 39.4943 5.42869C42.0362 3.84788 45.1893 2.84427 48.5453 2.54781C51.4426 1.3401 54.7849 0.776715 58.1393 0.930619C61.4937 1.08452 64.7055 1.94863 67.3589 3.411C70.627 4.01142 73.5655 5.29337 75.7937 7.09079C78.0219 8.88822 79.4371 11.1183 79.8561 13.4923C81.569 15.5472 82.3689 17.9201 82.1516 20.3018C81.9344 22.6834 80.71 24.9636 78.638 26.8451C77.7972 29.1653 75.9881 31.2517 73.4472 32.8317C70.9063 34.4116 67.7519 35.4116 64.3962 35.7009C61.496 36.9081 58.1515 37.4711 54.7949 37.3172C51.4384 37.1634 48.2241 36.2996 45.5676 34.8377C42.3053 34.2348 39.3727 32.9533 37.1479 31.1583C34.9231 29.3633 33.5081 27.1372 33.0854 24.7671ZM40.0033 29.3601C38.3233 28.7423 36.7989 27.9322 35.4916 26.9624C36.7814 29.5059 39.367 31.6156 42.7403 32.8769C41.5411 31.8235 40.6006 30.6347 39.9581 29.3601H40.0033ZM60.5162 30.9586C58.7319 30.5803 57.0494 29.9932 55.5383 29.2216C53.902 29.8506 52.1275 30.2793 50.2898 30.4897C50.6798 30.8629 51.1017 31.2188 51.5531 31.5554C52.6185 32.305 53.8286 32.9437 55.1473 33.4523C57.1532 32.9005 58.9687 32.0502 60.4711 30.9586H60.5162ZM63.8849 34.6246C65.8475 33.7594 67.5123 32.5943 68.7575 31.2144C66.6214 31.5046 64.4269 31.5046 62.2908 31.2144L61.6892 31.662C60.3754 32.6037 58.8509 33.385 57.1776 33.9745C58.8502 34.4053 60.6164 34.6253 62.396 34.6246C62.8171 34.6778 63.3285 34.6565 63.8398 34.6246H63.8849ZM49.4175 35.2C52.8892 36.3522 56.8448 36.5386 60.5012 35.7222C58.6089 35.5905 56.7625 35.23 55.0421 34.6565C53.344 35.054 51.5668 35.2555 49.7785 35.2533L49.4175 35.2ZM47.5527 30.6389C45.6688 30.6398 43.798 30.4164 42.0185 29.9782C42.9956 31.4628 44.4354 32.7709 46.2293 33.804C48.4715 34.1658 50.7997 34.1658 53.0419 33.804C52.0904 33.3555 51.2038 32.8415 50.3951 32.2694C49.6687 31.7548 49.0094 31.1949 48.425 30.5963L47.5527 30.6389ZM53.3878 12.7889C53.0466 13.0919 52.7302 13.4086 52.4403 13.7374C52.8614 13.6734 53.3126 13.6201 53.7487 13.5775C54.1849 13.5349 54.5458 13.2685 54.9518 13.1193C54.4405 12.9914 53.9292 12.8848 53.3878 12.7889ZM59.5988 12.0962C58.9006 11.4595 58.1036 10.8804 57.2227 10.3698C56.2663 10.7973 55.3787 11.2976 54.5759 11.8618C55.4244 12.0333 56.2498 12.258 57.0422 12.5332C57.8764 12.3388 58.7314 12.1927 59.5988 12.0962ZM61.3734 14.153C61.1328 13.8013 60.8771 13.4603 60.5914 13.0873C60.0503 13.1296 59.5131 13.1936 58.9822 13.2791C59.3582 13.4603 59.7191 13.6415 60.0801 13.8439C60.5186 13.9306 60.9504 14.0338 61.3734 14.153ZM52.7712 24.3515L51.4779 24.0744C51.7065 24.441 51.9677 24.7969 52.2599 25.1401C52.801 25.0978 53.3382 25.0337 53.869 24.9482C53.4931 24.7671 53.1321 24.5753 52.7712 24.3515ZM59.4484 25.4171C59.7924 25.1131 60.1137 24.7966 60.4109 24.4687L59.1025 24.6179C58.6965 24.7777 58.3055 24.9376 57.8844 25.0761C58.3957 25.2573 58.9221 25.4171 59.4484 25.4704V25.4171ZM55.6436 27.8789C56.597 27.4525 57.4842 26.956 58.2904 26.3976C57.4504 26.2184 56.6309 25.9939 55.8391 25.7262C55.004 25.9182 54.1493 26.0642 53.2825 26.1631C53.9716 26.7989 54.7641 27.3748 55.6436 27.8789ZM45.733 21.6873C44.7283 21.0551 43.8346 20.3395 43.0712 19.5559C42.1299 20.5708 41.4384 21.6915 41.0259 22.8702C42.3759 23.6357 43.9022 24.2306 45.5375 24.6285C45.5375 24.3941 45.5375 24.149 45.5375 23.9039C45.5083 23.1624 45.5737 22.4205 45.733 21.6873ZM50.4853 25.1934C50.0719 24.6403 49.7151 24.0669 49.4175 23.4776C48.6282 23.2003 47.8735 22.8759 47.1617 22.5079C47.0763 22.9564 47.0361 23.4087 47.0414 23.8613C47.0101 24.2161 47.0101 24.5721 47.0414 24.9269C48.1706 25.1114 49.3266 25.2008 50.4853 25.1934ZM49.2371 29.456C50.939 29.3258 52.597 28.9906 54.1397 28.465C53.1197 27.8343 52.2108 27.1186 51.4328 26.3336H50.5455C49.4704 26.3377 48.3974 26.2663 47.3422 26.1205C47.7062 27.2996 48.3467 28.4271 49.2371 29.456ZM41.2515 28.6142C43.2017 29.2438 45.3194 29.5708 47.4625 29.5733C46.5846 28.4155 45.9849 27.1621 45.6879 25.8647C43.9028 25.4827 42.2204 24.892 40.7101 24.117C40.64 24.5486 40.6049 24.9827 40.6048 25.4171C40.5885 26.5 40.8066 27.5782 41.2515 28.6142ZM39.7476 22.0496C40.2491 20.7716 41.047 19.5615 42.1087 18.469C41.2495 17.3082 40.6652 16.0554 40.3792 14.7604C39.8528 15.037 39.3506 15.3359 38.8753 15.6556C37.8061 16.4116 36.9037 17.2774 36.1984 18.2239C36.9837 19.6429 38.1828 20.9284 39.7175 21.9963L39.7476 22.0496ZM34.5893 24.3515C35.7993 25.7383 37.4337 26.9146 39.3716 27.7936C38.9517 26.2806 38.9517 24.7242 39.3716 23.2112C39.146 23.0727 38.9355 22.9235 38.7249 22.7743C37.401 21.8427 36.3034 20.7625 35.4766 19.5773C34.6808 21.1016 34.3776 22.7331 34.5893 24.3515ZM33.7471 14.0997C32.7725 15.5255 32.2587 17.0873 32.2432 18.6714C32.2747 19.8043 32.559 20.9264 33.0854 21.9963C33.2787 20.6565 33.787 19.3489 34.5893 18.1279C34.0286 16.921 33.7443 15.6581 33.7471 14.3874C33.717 14.3022 33.7321 14.2169 33.7321 14.1423L33.7471 14.0997ZM41.1161 8.8779C39.0174 9.57082 37.1705 10.5952 35.7172 11.8724C35.446 12.6825 35.3097 13.5123 35.3111 14.3448C35.3172 15.1365 35.4382 15.9257 35.6721 16.6999C36.309 16.0183 37.0394 15.3829 37.8527 14.803C38.5798 14.2923 39.37 13.8286 40.2138 13.4177C40.2138 13.2045 40.2138 13.0021 40.2138 12.7889C40.2059 11.4736 40.5057 10.1664 41.1011 8.92053L41.1161 8.8779ZM52.8013 11.5634C53.6965 10.8505 54.7059 10.2139 55.809 9.6665C54.3739 9.00343 52.7934 8.51368 51.132 8.21719C50.0565 9.17617 49.2176 10.2571 48.6506 11.4142H49.6732C50.7201 11.3965 51.7671 11.4465 52.8013 11.5634ZM47.8685 14.9309C48.6392 14.6312 49.4441 14.3781 50.2748 14.1743C50.6713 13.6147 51.1341 13.0799 51.6583 12.5758C51.0196 12.5205 50.3768 12.4921 49.7334 12.4905C49.231 12.4866 48.7288 12.5044 48.2295 12.5438C47.9877 13.3243 47.8667 14.1212 47.8685 14.9203V14.9309ZM41.853 14.0464C42.0415 15.2531 42.5196 16.428 43.2667 17.5205C44.1571 16.798 45.167 16.154 46.2744 15.6023C46.2308 14.6299 46.3469 13.6571 46.6203 12.7037C44.9325 12.9555 43.3161 13.4058 41.838 14.0358L41.853 14.0464ZM47.5678 7.9188C46.0605 7.90729 44.5595 8.05821 43.1163 8.36638C42.2225 9.74755 41.7559 11.2482 41.7478 12.7676C43.3898 12.1609 45.164 11.7538 46.9963 11.5634C47.5319 10.2975 48.3658 9.10489 49.4627 8.03602C48.8311 7.96119 48.1929 7.91845 47.5527 7.90814L47.5678 7.9188ZM65.3888 16.9877C64.9526 16.7426 64.5165 16.5188 64.0503 16.3056C64.1436 16.619 64.2139 16.9356 64.2609 17.2541C64.4969 17.5302 64.7128 17.8148 64.9075 18.1066C65.095 17.7371 65.2507 17.3599 65.3737 16.977L65.3888 16.9877ZM66.3663 21.3889C67.2579 20.8885 68.0743 20.3243 68.8026 19.7051C68.2032 19.0255 67.4968 18.3963 66.6971 17.8296C66.4417 18.4277 66.1251 19.0118 65.7497 19.5773C66.0095 20.1669 66.2105 20.7687 66.3512 21.3782L66.3663 21.3889ZM63.4638 22.6464C63.9601 22.4759 64.4413 22.2947 64.9677 22.0922C64.8973 21.705 64.7968 21.3208 64.6669 20.9413C64.4263 21.2077 64.1556 21.4635 63.8849 21.7193C63.6142 21.975 63.5991 22.3374 63.4488 22.6357L63.4638 22.6464ZM55.8542 14.6219C55.3519 14.6197 54.8498 14.6375 54.3503 14.6752C53.347 15.1171 52.4185 15.6391 51.5831 16.231C51.2126 16.4916 50.8613 16.7655 50.5304 17.0516C50.2577 17.8687 50.1215 18.7057 50.1244 19.5453C50.1244 19.9183 50.1244 20.2913 50.1244 20.611C50.7478 21.3253 51.4845 21.9867 52.32 22.5825C52.696 22.8382 53.087 23.094 53.478 23.3178C54.6307 23.514 55.8117 23.6142 56.9971 23.6162C57.5489 23.6294 58.1014 23.6187 58.6514 23.5842C59.6581 23.1457 60.5871 22.6234 61.4185 22.0283C61.789 21.7677 62.1404 21.4939 62.4712 21.2077C62.7448 20.3908 62.8811 19.5537 62.8773 18.7141C62.8773 18.3411 62.8773 17.9681 62.8773 17.6484C62.2549 16.9335 61.5181 16.272 60.6816 15.6769C60.3107 15.4211 59.9197 15.176 59.5086 14.9416C58.3093 14.7249 57.0768 14.6139 55.8391 14.6112L55.8542 14.6219ZM8.69244 48.4783C8.71407 48.0033 8.49539 47.5384 8.07584 47.1675C7.82105 46.9599 7.50355 46.7955 7.14688 46.6867C6.7902 46.5778 6.40353 46.5273 6.01553 46.5388H3.50404V50.4498H5.86514C6.23798 50.4639 6.61103 50.4249 6.9623 50.3353C7.31356 50.2456 7.63594 50.107 7.91042 49.9276C8.17679 49.7384 8.38406 49.5115 8.51878 49.2619C8.6535 49.0122 8.71266 48.7452 8.69244 48.4783Z" fill="white"/>
</svg>
