<svg width="209" height="209" viewBox="0 0 209 209" fill="none" xmlns="http://www.w3.org/2000/svg">
<path d="M190.411 127.754C191.546 127.993 192.57 127.754 193.482 127.039C194.395 126.323 195.077 125.298 195.527 123.962C195.856 122.986 195.986 122.079 195.917 121.24C195.845 120.408 195.602 119.695 195.187 119.099C194.77 118.511 194.21 118.098 193.506 117.861C192.918 117.663 192.364 117.632 191.846 117.769C191.333 117.916 190.862 118.165 190.432 118.515C190.009 118.869 189.625 119.259 189.281 119.687C188.944 120.117 188.653 120.518 188.408 120.891L187.049 122.928C186.705 123.451 186.282 124.02 185.779 124.634C185.274 125.255 184.682 125.811 184.005 126.302C183.333 126.803 182.57 127.146 181.716 127.33C180.863 127.514 179.919 127.431 178.885 127.083C177.694 126.681 176.722 126.006 175.971 125.057C175.217 124.115 174.757 122.953 174.592 121.57C174.424 120.195 174.626 118.66 175.197 116.965C175.729 115.386 176.445 114.104 177.344 113.12C178.241 112.144 179.257 111.479 180.391 111.126C181.523 110.78 182.706 110.767 183.942 111.087L183.012 113.844C182.155 113.635 181.372 113.683 180.662 113.987C179.956 114.301 179.344 114.79 178.824 115.454C178.309 116.128 177.904 116.903 177.609 117.779C177.265 118.798 177.122 119.769 177.178 120.691C177.242 121.616 177.492 122.416 177.929 123.091C178.372 123.768 178.996 124.242 179.8 124.513C180.532 124.76 181.197 124.756 181.794 124.502C182.391 124.247 182.946 123.835 183.458 123.264C183.971 122.693 184.465 122.056 184.942 121.354L186.632 118.901C187.708 117.346 188.875 116.22 190.133 115.525C191.39 114.829 192.762 114.732 194.248 115.233C195.483 115.649 196.447 116.346 197.141 117.323C197.84 118.31 198.253 119.457 198.38 120.763C198.512 122.079 198.341 123.44 197.867 124.847C197.388 126.269 196.707 127.446 195.824 128.38C194.949 129.316 193.965 129.96 192.871 130.31C191.775 130.668 190.665 130.678 189.54 130.339L190.411 127.754Z" fill="white"/>
<path d="M167.598 138.019C168.531 136.675 169.652 135.738 170.961 135.208C172.27 134.678 173.663 134.538 175.139 134.789C176.616 135.04 178.07 135.662 179.502 136.656C180.958 137.667 182.057 138.827 182.799 140.135C183.543 141.455 183.895 142.815 183.853 144.216C183.814 145.627 183.345 146.98 182.446 148.274C181.746 149.282 180.929 150.061 179.993 150.611C179.058 151.161 178.075 151.46 177.045 151.51C176.014 151.56 175.008 151.336 174.025 150.838L175.555 148.635C176.325 148.921 177.163 148.95 178.069 148.721C178.976 148.503 179.767 147.908 180.441 146.938C181.038 146.079 181.337 145.17 181.338 144.212C181.341 143.264 181.064 142.329 180.505 141.406C179.949 140.494 179.129 139.662 178.047 138.911C176.939 138.141 175.853 137.646 174.79 137.424C173.722 137.208 172.739 137.263 171.84 137.589C170.936 137.92 170.182 138.522 169.577 139.393C169.179 139.966 168.918 140.554 168.793 141.159C168.668 141.764 168.68 142.358 168.829 142.941C168.977 143.524 169.265 144.065 169.693 144.565L168.163 146.768C167.403 146.056 166.855 145.218 166.518 144.256C166.183 143.304 166.095 142.288 166.254 141.209C166.416 140.14 166.863 139.077 167.598 138.019Z" fill="white"/>
<path d="M161.127 148.837L173.334 161.313L171.482 163.125L169.638 161.24L169.508 161.367C169.885 162.207 169.963 163.111 169.744 164.078C169.524 165.045 169.041 165.894 168.294 166.626C168.153 166.763 167.974 166.933 167.758 167.134C167.541 167.335 167.374 167.483 167.255 167.578L165.347 165.629C165.428 165.582 165.601 165.46 165.866 165.265C166.13 165.08 166.39 164.864 166.644 164.615C167.251 164.021 167.668 163.364 167.895 162.643C168.123 161.933 168.157 161.221 167.999 160.507C167.84 159.804 167.486 159.17 166.935 158.607L159.21 150.712L161.127 148.837Z" fill="white"/>
<path d="M144.875 163.673C146.284 162.968 147.689 162.686 149.088 162.825C150.48 162.968 151.776 163.493 152.975 164.402C154.168 165.313 155.167 166.575 155.973 168.188C156.785 169.815 157.2 171.382 157.217 172.89C157.226 174.401 156.87 175.756 156.148 176.955C155.42 178.157 154.351 179.111 152.941 179.815C151.531 180.52 150.13 180.8 148.738 180.658C147.339 180.518 146.041 179.99 144.846 179.071C143.643 178.156 142.635 176.885 141.823 175.259C141.017 173.646 140.611 172.088 140.604 170.583C140.591 169.082 140.949 167.731 141.678 166.528C142.399 165.329 143.465 164.377 144.875 163.673ZM145.952 165.828C144.881 166.363 144.137 167.078 143.72 167.972C143.303 168.866 143.152 169.844 143.267 170.904C143.382 171.965 143.7 173.017 144.222 174.06C144.743 175.104 145.395 175.993 146.178 176.729C146.96 177.464 147.836 177.937 148.805 178.147C149.774 178.358 150.793 178.195 151.864 177.66C152.935 177.125 153.677 176.407 154.091 175.506C154.504 174.605 154.652 173.621 154.533 172.553C154.415 171.486 154.095 170.431 153.574 169.387C153.052 168.344 152.402 167.457 151.623 166.729C150.844 166 149.972 165.534 149.006 165.331C148.041 165.127 147.022 165.293 145.952 165.828Z" fill="white"/>
<path d="M138.098 193.014L130.333 171.075L132.861 170.18L140.626 192.119L138.098 193.014Z" fill="white"/>
<path d="M126.609 196.603L121.727 173.849L124.349 173.286L129.232 196.041L126.609 196.603Z" fill="white"/>
<path d="M98.3212 176.221C99.7386 176.548 100.907 177.194 101.827 178.161C102.746 179.134 103.36 180.349 103.669 181.804C103.977 183.267 103.924 184.899 103.508 186.7C103.096 188.486 102.433 189.966 101.517 191.139C100.601 192.311 99.5146 193.13 98.2569 193.594C96.9992 194.058 95.6544 194.125 94.2222 193.795C93.1149 193.54 92.2827 193.153 91.7256 192.636C91.1594 192.125 90.7601 191.597 90.5278 191.054C90.2864 190.516 90.1037 190.077 89.9799 189.738L89.7584 189.687L87.8281 198.058L85.2149 197.455L90.4441 174.778L92.9687 175.36L92.3662 177.973L92.6762 178.045C92.9396 177.779 93.303 177.451 93.7663 177.06C94.2278 176.677 94.8297 176.376 95.5718 176.158C96.3122 175.948 97.2287 175.969 98.3212 176.221ZM97.4256 178.487C96.3773 178.245 95.4285 178.314 94.5791 178.693C93.728 179.08 93.0018 179.718 92.4007 180.605C91.7978 181.5 91.3483 182.59 91.0521 183.874C90.7593 185.144 90.6877 186.298 90.8372 187.335C90.985 188.38 91.3593 189.251 91.9602 189.95C92.5594 190.655 93.3905 191.131 94.4535 191.376C95.5608 191.631 96.5491 191.56 97.4184 191.162C98.2786 190.769 99.0047 190.132 99.5968 189.25C100.18 188.374 100.609 187.338 100.885 186.142C101.164 184.931 101.233 183.789 101.092 182.714C100.942 181.646 100.569 180.735 99.9725 179.984C99.3671 179.238 98.5181 178.739 97.4256 178.487Z" fill="white"/>
<path d="M75.6279 170.535C76.9787 171.347 77.9707 172.38 78.6041 173.636C79.231 174.887 79.4829 176.263 79.36 177.762C79.2306 179.257 78.7017 180.778 77.7732 182.323C76.837 183.882 75.7372 185.073 74.4739 185.896C73.2041 186.715 71.8696 187.142 70.4703 187.176C69.0645 187.206 67.6862 186.816 66.3355 186.004C64.9847 185.193 63.9959 184.162 63.369 182.91C62.7356 181.655 62.4856 180.276 62.6189 178.774C62.7457 177.268 63.2773 175.736 64.2135 174.178C65.142 172.632 66.2391 171.453 67.505 170.64C68.7644 169.824 70.097 169.4 71.5028 169.37C72.9021 169.335 74.2771 169.724 75.6279 170.535ZM74.3873 172.601C73.3613 171.984 72.359 171.74 71.3806 171.868C70.4023 171.996 69.4965 172.393 68.6633 173.059C67.8302 173.726 67.1132 174.559 66.5124 175.559C65.9117 176.559 65.511 177.586 65.3103 178.641C65.1097 179.696 65.1806 180.689 65.5231 181.619C65.8657 182.55 66.5499 183.323 67.576 183.939C68.6021 184.556 69.6063 184.797 70.5886 184.662C71.5708 184.527 72.4805 184.124 73.3176 183.451C74.1546 182.779 74.8735 181.942 75.4743 180.942C76.0751 179.942 76.4738 178.918 76.6706 177.87C76.8673 176.821 76.7925 175.835 76.446 174.911C76.0996 173.987 75.4134 173.217 74.3873 172.601Z" fill="white"/>
<path d="M57.0073 161.923L45.9675 176.451L44.318 174.166L52.9454 163.285L52.839 163.138L39.8219 167.938L38.1459 165.616L46.7896 154.835L46.6832 154.688L33.6764 159.424L32.0269 157.139L49.2921 151.235L50.8352 153.373L42.1975 164.317L42.3572 164.538L55.4643 159.785L57.0073 161.923Z" fill="white"/>
<path d="M30.3169 143.578L40.2541 140.187L41.1203 142.725L24.6013 148.362L23.7644 145.91L26.3455 145.029L26.2721 144.814C25.3011 144.714 24.4265 144.356 23.6483 143.741C22.8629 143.128 22.2574 142.198 21.8316 140.951C21.4499 139.832 21.3453 138.775 21.5179 137.78C21.6833 136.787 22.1489 135.899 22.9147 135.118C23.6734 134.338 24.7554 133.709 26.1606 133.229L36.6571 129.647L37.5233 132.185L27.1989 135.709C25.9012 136.152 25.0053 136.834 24.5111 137.755C24.0098 138.678 23.9598 139.728 24.3611 140.904C24.6376 141.714 25.0604 142.378 25.6295 142.896C26.1962 143.407 26.8789 143.731 27.6776 143.866C28.4764 144.002 29.3561 143.906 30.3169 143.578Z" fill="white"/>
<path d="M35.3802 46.3781C34.449 45.687 33.4193 45.4758 32.291 45.7444C31.1626 46.013 30.115 46.6598 29.148 47.6847C28.4409 48.4341 27.9435 49.2042 27.6557 49.995C27.373 50.7803 27.2957 51.5301 27.4236 52.2445C27.5568 52.9534 27.8934 53.5626 28.4334 54.0721C28.8852 54.4984 29.3751 54.7575 29.9029 54.8493C30.4305 54.9305 30.9629 54.9016 31.5001 54.7627C32.0318 54.6186 32.5433 54.4242 33.0346 54.1795C33.5204 53.9296 33.9528 53.6866 34.3318 53.4505L36.4167 52.168C36.9483 51.8363 37.5708 51.4967 38.2842 51.149C39.0028 50.7959 39.7724 50.5377 40.5929 50.3745C41.4132 50.2006 42.2494 50.2084 43.1017 50.398C43.9539 50.5876 44.7768 51.0567 45.5703 51.8053C46.485 52.6684 47.0854 53.6879 47.3715 54.8639C47.6627 56.0345 47.5945 57.2825 47.1668 58.6079C46.7443 59.9278 45.9196 61.238 44.6926 62.5384C43.5489 63.7507 42.3629 64.6158 41.1346 65.1339C39.9115 65.6464 38.711 65.826 37.5328 65.6727C36.3599 65.5138 35.2794 65.0308 34.2913 64.2235L36.2877 62.1075C36.9789 62.6555 37.7106 62.9397 38.4829 62.9601C39.2549 62.9698 40.0158 62.7816 40.7656 62.3954C41.515 61.9984 42.2069 61.4638 42.8412 60.7916C43.5794 60.0091 44.1155 59.187 44.4495 58.3252C44.778 57.4581 44.8852 56.627 44.7709 55.8319C44.6512 55.0315 44.2828 54.3401 43.6656 53.7579C43.1036 53.2276 42.498 52.9531 41.849 52.9345C41.2 52.9158 40.5236 53.0587 39.8197 53.3632C39.1158 53.6677 38.4004 54.0396 37.6736 54.4787L35.1133 56.0001C33.4854 56.9639 31.9548 57.4987 30.5216 57.6047C29.0885 57.7107 27.8016 57.2256 26.6609 56.1494C25.7132 55.2552 25.1284 54.2191 24.9066 53.0412C24.6844 51.8526 24.7885 50.6384 25.2187 49.3986C25.6485 48.1482 26.373 46.9829 27.392 45.9029C28.4214 44.8119 29.532 44.0266 30.7238 43.5472C31.9102 43.0625 33.0735 42.8894 34.2136 43.0277C35.359 43.1605 36.3717 43.6161 37.2518 44.3944L35.3802 46.3781Z" fill="white"/>
<path d="M60.0268 46.7996C58.621 47.6371 57.2127 48.0263 55.8019 47.9673C54.3911 47.9083 53.0653 47.4591 51.8246 46.6198C50.5839 45.7804 49.5176 44.6123 48.6259 43.1154C47.7186 41.5924 47.1979 40.0817 47.0636 38.5832C46.9319 37.0744 47.1747 35.6908 47.7919 34.4325C48.4117 33.1638 49.3985 32.1262 50.7523 31.3198C51.8067 30.6917 52.8732 30.3209 53.9519 30.2073C55.0306 30.0938 56.0495 30.2276 57.0084 30.6087C57.9673 30.9898 58.7911 31.6102 59.4795 32.4699L57.1756 33.8424C56.5927 33.2637 55.8416 32.891 54.9223 32.7244C54.0056 32.5474 53.0396 32.7614 52.0243 33.3662C51.1261 33.9013 50.4782 34.6047 50.0805 35.4765C49.6854 36.338 49.5511 37.3042 49.6776 38.3752C49.8068 39.4358 50.2087 40.5323 50.8834 41.6647C51.5735 42.8232 52.3567 43.7235 53.2329 44.3655C54.1157 45.0036 55.0338 45.3605 55.9872 45.4363C56.9471 45.5082 57.8827 45.2727 58.7938 44.7299C59.3926 44.3732 59.874 43.9453 60.2381 43.4463C60.6022 42.9472 60.8371 42.4016 60.9429 41.8095C61.0487 41.2174 61.0104 40.6053 60.8279 39.9733L63.1318 38.6008C63.529 39.5635 63.6818 40.5527 63.5902 41.5684C63.5013 42.5737 63.1611 43.5348 62.5697 44.4515C61.9808 45.3578 61.1332 46.1405 60.0268 46.7996Z" fill="white"/>
<path d="M70.4271 39.5661L64.4797 23.1561L66.9156 22.2733L67.8139 24.7519L67.9848 24.6899C67.9897 23.7696 68.2922 22.9146 68.8924 22.1249C69.4926 21.3353 70.2841 20.7623 71.267 20.4061C71.4522 20.339 71.685 20.2587 71.9653 20.1651C72.2457 20.0716 72.4597 20.0061 72.6073 19.9687L73.5366 22.5328C73.4434 22.5424 73.2359 22.5813 72.9141 22.6496C72.5969 22.7082 72.2709 22.7981 71.9362 22.9194C71.1385 23.2085 70.4869 23.634 69.9814 24.196C69.4805 24.7482 69.1543 25.3821 69.0027 26.0978C68.8557 26.8038 68.9164 27.5271 69.1849 28.2679L72.9485 38.6523L70.4271 39.5661Z" fill="white"/>
<path d="M91.3438 32.7592C89.769 32.814 88.3742 32.4872 87.1595 31.779C85.9523 31.0705 84.9922 30.0539 84.2791 28.7294C83.5736 27.4046 83.1895 25.8413 83.1269 24.0393C83.0638 22.2222 83.338 20.6246 83.9496 19.2465C84.5688 17.8681 85.4559 16.7836 86.6109 15.993C87.7736 15.2022 89.1423 14.7794 90.7171 14.7247C92.2919 14.6699 93.6829 14.9968 94.89 15.7053C96.1048 16.4136 97.065 17.4339 97.7708 18.7662C98.4841 20.0983 98.8724 21.6729 98.9355 23.49C98.9982 25.2919 98.7197 26.8783 98.1003 28.2491C97.4885 29.6197 96.6012 30.7004 95.4386 31.4913C94.2835 32.2819 92.9186 32.7045 91.3438 32.7592ZM91.2601 30.3516C92.4564 30.31 93.43 29.9692 94.1809 29.3291C94.9319 28.689 95.4755 27.8628 95.8117 26.8505C96.148 25.8382 96.2959 24.7491 96.2553 23.5831C96.2148 22.4172 95.9916 21.3371 95.5856 20.3431C95.1796 19.349 94.5797 18.555 93.7859 17.961C92.992 17.3669 91.997 17.0907 90.8008 17.1323C89.6045 17.1739 88.631 17.5185 87.8803 18.1662C87.1297 18.8138 86.5863 19.6476 86.2503 20.6675C85.9143 21.6873 85.7666 22.7802 85.8071 23.9462C85.8476 25.1122 86.0707 26.1884 86.4765 27.1749C86.8822 28.1614 87.4818 28.9479 88.2754 29.5343C89.069 30.1207 90.0639 30.3932 91.2601 30.3516Z" fill="white"/>
<path d="M110.108 8.88026L107.957 32.0534L105.287 31.8055L107.438 8.63241L110.108 8.88026Z" fill="white"/>
<path d="M122.122 10.4152L117.065 33.132L114.448 32.5494L119.504 9.83257L122.122 10.4152Z" fill="white"/>
<path d="M139.135 40.6111C137.984 39.7215 137.193 38.6454 136.761 37.383C136.334 36.1145 136.284 34.7545 136.611 33.3031C136.943 31.8456 137.674 30.3857 138.805 28.9232C139.926 27.4728 141.148 26.4064 142.47 25.7241C143.792 25.0418 145.122 24.7528 146.458 24.8571C147.795 24.9615 149.044 25.4631 150.207 26.362C151.106 27.057 151.701 27.7559 151.99 28.4587C152.291 29.1601 152.433 29.8062 152.417 30.3969C152.411 30.9863 152.394 31.4611 152.364 31.8213L152.544 31.9603L157.798 25.1635L159.92 26.8037L145.686 45.2162L143.636 43.6316L145.277 41.5099L145.025 41.3153C144.674 41.4465 144.207 41.5928 143.623 41.7539C143.043 41.9091 142.371 41.9304 141.606 41.8177C140.845 41.699 140.022 41.2968 139.135 40.6111ZM140.896 38.9275C141.747 39.5854 142.637 39.9197 143.568 39.9302C144.503 39.9348 145.429 39.6596 146.346 39.1047C147.268 38.5439 148.132 37.742 148.938 36.6991C149.735 35.6682 150.282 34.6503 150.581 33.6455C150.883 32.6346 150.908 31.6864 150.654 30.8008C150.405 29.9092 149.849 29.1298 148.985 28.4626C148.086 27.7676 147.159 27.4191 146.203 27.4173C145.257 27.4141 144.331 27.6893 143.424 28.2428C142.528 28.7949 141.705 29.5565 140.955 30.5275C140.195 31.5104 139.654 32.5193 139.333 33.5541C139.022 34.5876 138.981 35.5704 139.208 36.5026C139.446 37.4335 140.009 38.2418 140.896 38.9275Z" fill="white"/>
<path d="M157.309 55.0992C156.414 53.8016 155.939 52.4504 155.882 51.0454C155.829 49.6467 156.168 48.2903 156.901 46.9762C157.637 45.6684 158.748 44.503 160.232 43.48C161.73 42.4485 163.223 41.8194 164.714 41.5927C166.209 41.3723 167.601 41.5359 168.889 42.0836C170.181 42.6375 171.274 43.5632 172.168 44.8608C173.062 46.1584 173.536 47.5066 173.589 48.9053C173.646 50.3102 173.303 51.6688 172.561 52.9809C171.822 54.2992 170.704 55.4742 169.207 56.5058C167.722 57.5288 166.236 58.1483 164.747 58.3644C163.263 58.5867 161.874 58.421 160.582 57.8671C159.294 57.3194 158.203 56.3968 157.309 55.0992ZM159.292 53.7324C159.971 54.718 160.783 55.3549 161.727 55.6431C162.67 55.9313 163.659 55.9445 164.693 55.6828C165.727 55.4211 166.725 54.9593 167.685 54.2974C168.646 53.6355 169.436 52.8658 170.055 51.9885C170.674 51.1111 171.02 50.1781 171.094 49.1893C171.167 48.2005 170.864 47.2133 170.185 46.2277C169.505 45.242 168.691 44.6072 167.741 44.3234C166.791 44.0395 165.796 44.0306 164.755 44.2966C163.715 44.5625 162.715 45.0265 161.754 45.6884C160.793 46.3504 160.006 47.1178 159.394 47.9909C158.781 48.8639 158.441 49.7927 158.374 50.7772C158.307 51.7616 158.613 52.7467 159.292 53.7324Z" fill="white"/>
<path d="M170.794 70.6472L186.877 62.0297L187.426 64.7939L175.054 71.0983L175.089 71.2767L188.923 72.3285L189.481 75.1372L177.136 81.3436L177.171 81.522L190.969 82.6272L191.518 85.3913L173.362 83.5763L172.848 80.9905L185.256 74.6326L185.203 74.3651L171.307 73.233L170.794 70.6472Z" fill="white"/>
</svg>
