<svg width="22" height="21" viewBox="0 0 22 21" fill="none" xmlns="http://www.w3.org/2000/svg">
<path d="M21.1443 9.69447C21.3343 9.88635 21.4409 10.1455 21.4409 10.4156C21.4409 10.6857 21.3343 10.9448 21.1443 11.1367L12.0354 20.2456C11.8411 20.4313 11.583 20.5354 11.3142 20.5366C11.1799 20.536 11.0469 20.5102 10.9221 20.4607C10.7379 20.3832 10.5807 20.253 10.4704 20.0864C10.3601 19.9198 10.3015 19.7243 10.3021 19.5245V11.4277H1.19325C0.924826 11.4277 0.667395 11.3211 0.477589 11.1313C0.287784 10.9414 0.181152 10.684 0.181152 10.4156C0.181152 10.1472 0.287784 9.88973 0.477589 9.69992C0.667395 9.51012 0.924826 9.40349 1.19325 9.40349H10.3021V1.30669C10.3015 1.10688 10.3601 0.911348 10.4704 0.744747C10.5807 0.578145 10.7379 0.447925 10.9221 0.370498C11.109 0.297581 11.3128 0.279083 11.5098 0.317143C11.7068 0.355204 11.889 0.448268 12.0354 0.585569L21.1443 9.69447Z" fill="white"/>
</svg>
