<svg width="19" height="19" viewBox="0 0 19 19" fill="none" xmlns="http://www.w3.org/2000/svg">
<path d="M16.8306 0.507812H2.17996C1.37942 0.507812 0.679985 1.08382 0.679985 1.87495V16.5581C0.679985 17.3535 1.37942 18.0624 2.17996 18.0624H16.8263C17.6311 18.0624 18.2345 17.3488 18.2345 16.5581V1.87495C18.2392 1.08382 17.6311 0.507812 16.8306 0.507812ZM6.1215 15.1404H3.60666V7.32117H6.1215V15.1404ZM4.95107 6.13232H4.93305C4.1282 6.13232 3.60705 5.5332 3.60705 4.78321C3.60705 4.01951 4.14192 3.43449 4.96479 3.43449C5.78766 3.43449 6.29117 4.0152 6.3092 4.78321C6.30881 5.5332 5.78765 6.13232 4.95107 6.13232ZM15.3126 15.1404H12.7977V10.865C12.7977 9.84072 12.4317 9.14089 11.5219 9.14089C10.8268 9.14089 10.4153 9.6111 10.2323 10.0692C10.1638 10.2337 10.1453 10.4579 10.1453 10.6867V15.1404H7.63049V7.32117H10.1453V8.40932C10.5113 7.88817 11.083 7.13818 12.4133 7.13818C14.0642 7.13818 15.313 8.22633 15.313 10.5723L15.3126 15.1404Z" fill="#030211"/>
</svg>
