<svg width="140" height="140" viewBox="0 0 140 140" fill="none" xmlns="http://www.w3.org/2000/svg">
<path d="M70 8.75C57.8859 8.75 46.0438 12.3423 35.9713 19.0725C25.8988 25.8027 18.0482 35.3687 13.4124 46.5606C8.77651 57.7526 7.56355 70.0679 9.9269 81.9493C12.2902 93.8306 18.1237 104.744 26.6897 113.31C35.2557 121.876 46.1694 127.71 58.0507 130.073C69.9321 132.436 82.2474 131.223 93.4394 126.588C104.631 121.952 114.197 114.101 120.928 104.029C127.658 93.9562 131.25 82.1141 131.25 70C131.25 53.7555 124.797 38.1763 113.31 26.6897C101.824 15.2031 86.2445 8.75 70 8.75ZM102.581 73.9156L50.0806 100.166C49.4135 100.499 48.6721 100.656 47.9271 100.623C47.182 100.589 46.4579 100.365 45.8236 99.9728C45.1893 99.5805 44.6658 99.0325 44.3029 98.381C43.94 97.7294 43.7497 96.9958 43.75 96.25V43.75C43.7504 43.0045 43.9413 42.2715 44.3045 41.6206C44.6677 40.9696 45.1913 40.4222 45.8255 40.0304C46.4597 39.6386 47.1834 39.4153 47.9282 39.3818C48.6729 39.3482 49.4138 39.5055 50.0806 39.8387L102.581 66.0887C103.306 66.4525 103.917 67.011 104.343 67.7017C104.769 68.3924 104.995 69.1882 104.995 70C104.995 70.8118 104.769 71.6076 104.343 72.2983C103.917 72.989 103.306 73.5475 102.581 73.9112V73.9156Z" fill="white"/>
</svg>
