<svg width="1714" height="775" viewBox="0 0 1714 775" fill="none" xmlns="http://www.w3.org/2000/svg">
<g style="mix-blend-mode:hard-light" opacity="0.27">
<path d="M1311.19 188.679C1311.19 202.518 1307.08 216.046 1299.39 227.552C1291.7 239.059 1280.76 248.027 1267.97 253.323C1255.18 258.618 1241.1 260.004 1227.52 257.304C1213.93 254.604 1201.46 247.94 1191.67 238.155C1181.87 228.37 1175.21 215.902 1172.5 202.33C1169.8 188.757 1171.19 174.689 1176.49 161.903C1181.79 149.118 1190.76 138.19 1202.28 130.502C1213.79 122.814 1227.33 118.71 1241.18 118.71C1250.37 118.71 1259.47 120.52 1267.97 124.036C1276.46 127.553 1284.18 132.706 1290.68 139.204C1297.19 145.701 1302.34 153.414 1305.86 161.903C1309.38 170.392 1311.19 179.491 1311.19 188.679Z" fill="radial-gradient(50% 50% at 50% 50.02%, #fff 0%, #ffdaa2 7%, #ff0e00 32%, #000 79%)"/>
<path d="M1178.25 125.565C1178.25 129.596 1177.05 133.537 1174.81 136.889C1172.57 140.242 1169.38 142.854 1165.66 144.397C1161.93 145.94 1157.83 146.344 1153.87 145.557C1149.91 144.771 1146.28 142.829 1143.43 139.978C1140.57 137.128 1138.63 133.495 1137.84 129.541C1137.06 125.587 1137.46 121.489 1139 117.764C1140.55 114.039 1143.16 110.855 1146.52 108.616C1149.87 106.376 1153.81 105.18 1157.85 105.18C1163.26 105.18 1168.45 107.328 1172.27 111.151C1176.1 114.973 1178.25 120.158 1178.25 125.565Z" fill="url(#paint1_radial_16_45)"/>
<path d="M1146.89 202.133C1146.89 203.983 1146.34 205.791 1145.31 207.328C1144.28 208.866 1142.82 210.065 1141.11 210.773C1139.4 211.48 1137.52 211.666 1135.7 211.305C1133.89 210.944 1132.22 210.053 1130.91 208.745C1129.6 207.438 1128.71 205.771 1128.35 203.957C1127.99 202.143 1128.17 200.263 1128.88 198.554C1129.59 196.846 1130.79 195.385 1132.33 194.358C1133.87 193.33 1135.68 192.782 1137.53 192.782C1138.76 192.778 1139.98 193.018 1141.11 193.487C1142.25 193.956 1143.28 194.644 1144.15 195.513C1145.02 196.382 1145.71 197.414 1146.18 198.551C1146.65 199.687 1146.89 200.904 1146.89 202.133Z" fill="radial-gradient(50% 50% at 50% 50.02%, #fff 0%, #ffdaa2 7%, #ff0e00 32%, #000 79%)"/>
</g>
<g opacity="1">
<path d="M928.5 159.887C922.85 163.691 916.199 165.736 909.387 165.763C902.575 165.79 895.908 163.798 890.229 160.038C884.549 156.279 880.113 150.922 877.48 144.643C874.847 138.364 874.137 131.447 875.438 124.764C876.739 118.082 879.993 111.935 884.789 107.101C889.586 102.267 895.708 98.9627 902.384 97.6057C909.059 96.2487 915.987 96.9 922.292 99.4774C928.597 102.055 933.996 106.442 937.806 112.086C940.337 115.834 942.104 120.045 943.006 124.477C943.908 128.908 943.928 133.474 943.064 137.913C942.199 142.352 940.468 146.578 937.969 150.348C935.47 154.118 932.253 157.36 928.5 159.887Z" fill="radial-gradient(50% 50% at 50% 50.02%, #fff 0%, #ffdaa2 7%, #ff0e00 32%, #000 79%)"/>
<path d="M917.689 88.3378C916.023 89.4951 914.05 90.1297 912.022 90.1605C909.993 90.1913 908.002 89.6169 906.302 88.5107C904.601 87.4045 903.27 85.8168 902.478 83.9506C901.685 82.0843 901.468 80.0243 901.853 78.0339C902.239 76.0435 903.209 74.2131 904.641 72.7768C906.072 71.3405 907.9 70.3634 909.89 69.9706C911.88 69.5777 913.943 69.7869 915.813 70.5714C917.684 71.3559 919.278 72.68 920.392 74.3745C921.851 76.595 922.385 79.297 921.88 81.9051C921.375 84.5132 919.871 86.8213 917.689 88.3378Z" fill="url(#paint4_radial_16_45)"/>
<path d="M877.785 96.5934C877.033 97.0992 876.149 97.3712 875.243 97.3753C874.336 97.3793 873.449 97.1152 872.693 96.6162C871.937 96.1172 871.345 95.4056 870.993 94.5712C870.641 93.7368 870.544 92.8169 870.714 91.9274C870.884 91.0379 871.314 90.2187 871.95 89.573C872.585 88.9273 873.398 88.484 874.285 88.2991C875.172 88.1141 876.094 88.1957 876.935 88.5336C877.775 88.8715 878.497 89.4506 879.009 90.1979C879.693 91.2088 879.949 92.4496 879.719 93.6484C879.49 94.8472 878.794 95.9062 877.785 96.5934Z" fill="url(#paint5_radial_16_45)"/>
</g>
<path d="M212.327 120.596C209.068 101.101 211.666 81.0788 219.794 63.06C227.921 45.0412 241.213 29.8356 257.988 19.3658C274.764 8.89602 294.269 3.63236 314.037 4.24044C333.806 4.84851 352.95 11.301 369.049 22.782C385.148 34.2629 397.479 50.2567 404.483 68.7409C411.486 87.2251 412.847 107.37 408.394 126.627C403.941 145.884 393.874 163.39 379.466 176.929C365.058 190.469 346.955 199.435 327.448 202.694C301.289 207.057 274.466 200.859 252.878 185.464C231.29 170.069 216.704 146.736 212.327 120.596Z" fill="url(#paint6_radial_16_45)"/>
<path d="M414.394 178.156C413.444 172.465 414.205 166.62 416.579 161.36C418.953 156.1 422.835 151.662 427.733 148.607C432.631 145.552 438.325 144.017 444.096 144.196C449.867 144.375 455.456 146.26 460.155 149.612C464.854 152.965 468.453 157.635 470.496 163.032C472.54 168.428 472.936 174.309 471.635 179.931C470.334 185.552 467.394 190.662 463.187 194.614C458.98 198.566 453.695 201.183 448 202.133C440.363 203.401 432.534 201.588 426.233 197.093C419.933 192.597 415.675 185.786 414.394 178.156Z" fill="url(#paint7_radial_16_45)"/>
<path d="M440.631 62.9083C440.19 60.3002 440.534 57.6199 441.62 55.2074C442.705 52.7949 444.483 50.7591 446.728 49.358C448.973 47.957 451.584 47.2539 454.23 47.3381C456.875 47.4222 459.436 48.2897 461.588 49.8305C463.739 51.3714 465.384 53.5161 466.314 55.9926C467.244 58.4692 467.417 61.1659 466.811 63.7407C466.204 66.3155 464.847 68.6524 462.909 70.4549C460.972 72.2574 458.543 73.4442 455.93 73.8649C452.447 74.439 448.879 73.6073 446.01 71.5526C443.141 69.4979 441.206 66.3885 440.631 62.9083Z" fill="url(#paint8_radial_16_45)"/>
<g opacity="0.55">
<path d="M1134.14 604.902C1143.19 611.33 1150.12 620.298 1154.07 630.669C1158.02 641.041 1158.79 652.349 1156.3 663.163C1153.82 673.976 1148.17 683.808 1140.09 691.413C1132 699.018 1121.84 704.054 1110.89 705.883C1099.94 707.712 1088.69 706.253 1078.57 701.689C1068.45 697.125 1059.91 689.663 1054.04 680.246C1048.16 670.83 1045.22 659.883 1045.57 648.793C1045.93 637.703 1049.57 626.968 1056.04 617.948C1064.68 605.891 1077.75 597.749 1092.39 595.303C1107.03 592.858 1122.04 596.31 1134.14 604.902Z" fill="url(#paint9_radial_16_45)"/>
<path d="M1031.43 662.08C1034.07 663.955 1036.08 666.568 1037.23 669.588C1038.38 672.608 1038.6 675.9 1037.87 679.048C1037.15 682.196 1035.51 685.058 1033.15 687.273C1030.8 689.487 1027.84 690.954 1024.65 691.489C1021.46 692.024 1018.19 691.601 1015.24 690.276C1012.29 688.95 1009.81 686.781 1008.09 684.042C1006.38 681.303 1005.51 678.118 1005.61 674.889C1005.71 671.66 1006.76 668.533 1008.64 665.902C1011.15 662.375 1014.97 659.99 1019.24 659.273C1023.52 658.557 1027.9 659.566 1031.43 662.08Z" fill="url(#paint10_radial_16_45)"/>
<path d="M1066.62 718.035C1067.82 718.892 1068.74 720.085 1069.27 721.465C1069.79 722.845 1069.89 724.349 1069.56 725.788C1069.23 727.226 1068.48 728.534 1067.41 729.547C1066.33 730.559 1064.98 731.231 1063.53 731.476C1062.07 731.722 1060.57 731.53 1059.23 730.926C1057.88 730.322 1056.74 729.333 1055.95 728.082C1055.17 726.832 1054.77 725.377 1054.82 723.902C1054.86 722.427 1055.34 720.997 1056.19 719.793C1056.76 718.993 1057.48 718.312 1058.31 717.79C1059.14 717.269 1060.07 716.916 1061.04 716.753C1062.01 716.589 1063 716.619 1063.96 716.839C1064.91 717.059 1065.82 717.465 1066.62 718.035Z" fill="radial-gradient(50% 50% at 50% 50.02%, #fff 0%, #ffdaa2 7%, #ff0e00 32%, #000 79%)"/>
</g>
<path d="M1350.36 541.074C1348.11 541.028 1345.92 540.317 1344.08 539.03C1342.23 537.744 1340.81 535.94 1339.99 533.847C1339.18 531.753 1339 529.465 1339.48 527.27C1339.96 525.075 1341.09 523.072 1342.71 521.515C1344.33 519.959 1346.38 518.917 1348.59 518.523C1350.81 518.129 1353.09 518.4 1355.15 519.302C1357.21 520.203 1358.96 521.695 1360.17 523.589C1361.38 525.482 1362 527.692 1361.96 529.939C1361.93 531.431 1361.6 532.903 1361 534.27C1360.4 535.638 1359.54 536.874 1358.46 537.908C1357.39 538.942 1356.12 539.754 1354.72 540.297C1353.33 540.84 1351.85 541.104 1350.36 541.074Z" fill="radial-gradient(50% 50% at 50% 50.02%, #fff 0%, #ffdaa2 7%, #ff0e00 32%, #000 79%)"/>
<path d="M1386.77 513.147C1384.24 513.106 1381.78 512.316 1379.71 510.878C1377.63 509.44 1376.03 507.418 1375.11 505.069C1374.18 502.72 1373.98 500.15 1374.52 497.684C1375.06 495.219 1376.32 492.969 1378.14 491.221C1379.96 489.472 1382.26 488.304 1384.75 487.864C1387.24 487.423 1389.8 487.731 1392.11 488.748C1394.42 489.765 1396.38 491.445 1397.73 493.575C1399.09 495.705 1399.78 498.189 1399.72 500.713C1399.64 504.074 1398.23 507.267 1395.81 509.596C1393.38 511.925 1390.13 513.202 1386.77 513.147Z" fill="url(#paint13_radial_16_45)"/>
<path d="M1339.54 492.737C1338.39 492.717 1337.28 492.356 1336.33 491.699C1335.39 491.043 1334.66 490.121 1334.24 489.051C1333.82 487.98 1333.72 486.809 1333.97 485.686C1334.21 484.562 1334.79 483.537 1335.62 482.74C1336.45 481.943 1337.5 481.41 1338.63 481.209C1339.76 481.008 1340.93 481.147 1341.98 481.609C1343.04 482.071 1343.93 482.835 1344.55 483.805C1345.17 484.774 1345.48 485.905 1345.46 487.055C1345.45 487.818 1345.29 488.571 1344.98 489.271C1344.68 489.971 1344.24 490.604 1343.69 491.132C1343.14 491.661 1342.49 492.075 1341.78 492.351C1341.07 492.626 1340.31 492.758 1339.54 492.737Z" fill="radial-gradient(50% 50% at 50% 50.02%, #fff 0%, #ffdaa2 7%, #ff0e00 32%, #000 79%)"/>
<g opacity="0.42">
<path d="M1365.65 488.839C1363.41 488.793 1361.22 488.082 1359.38 486.796C1357.53 485.509 1356.11 483.705 1355.29 481.612C1354.47 479.519 1354.3 477.23 1354.78 475.035C1355.26 472.84 1356.39 470.837 1358.01 469.281C1359.63 467.724 1361.68 466.683 1363.89 466.289C1366.11 465.895 1368.39 466.165 1370.45 467.067C1372.51 467.969 1374.25 469.46 1375.47 471.354C1376.68 473.247 1377.3 475.457 1377.26 477.704C1377.23 479.196 1376.9 480.668 1376.3 482.036C1375.7 483.403 1374.84 484.639 1373.76 485.673C1372.69 486.707 1371.41 487.519 1370.02 488.062C1368.63 488.605 1367.15 488.869 1365.65 488.839Z" fill="radial-gradient(50% 50% at 50% 50.02%, #fff 0%, #ffdaa2 7%, #ff0e00 32%, #000 79%)"/>
<path d="M1402.06 460.912C1399.54 460.871 1397.08 460.081 1395.01 458.643C1392.93 457.205 1391.33 455.183 1390.41 452.834C1389.48 450.485 1389.28 447.915 1389.82 445.45C1390.36 442.984 1391.62 440.734 1393.44 438.986C1395.26 437.237 1397.56 436.069 1400.05 435.629C1402.53 435.188 1405.1 435.496 1407.41 436.513C1409.72 437.53 1411.68 439.21 1413.03 441.34C1414.39 443.47 1415.08 445.954 1415.02 448.478C1414.94 451.839 1413.53 455.032 1411.1 457.361C1408.68 459.691 1405.43 460.967 1402.06 460.912Z" fill="url(#paint16_radial_16_45)"/>
<path d="M1354.84 440.502C1353.69 440.482 1352.57 440.121 1351.63 439.464C1350.68 438.808 1349.95 437.886 1349.53 436.816C1349.11 435.745 1349.02 434.574 1349.27 433.451C1349.51 432.327 1350.09 431.302 1350.92 430.505C1351.75 429.708 1352.79 429.176 1353.93 428.974C1355.06 428.773 1356.23 428.912 1357.28 429.374C1358.34 429.836 1359.23 430.6 1359.85 431.57C1360.47 432.539 1360.78 433.671 1360.76 434.82C1360.75 435.583 1360.59 436.336 1360.28 437.036C1359.98 437.736 1359.54 438.369 1358.99 438.898C1358.44 439.426 1357.79 439.84 1357.08 440.116C1356.37 440.391 1355.61 440.523 1354.84 440.502Z" fill="radial-gradient(50% 50% at 50% 50.02%, #fff 0%, #ffdaa2 7%, #ff0e00 32%, #000 79%)"/>
</g>
<g opacity="0.65">
<path d="M1387.86 585.639C1385.61 585.598 1383.42 584.89 1381.56 583.604C1379.71 582.318 1378.28 580.511 1377.46 578.414C1376.63 576.316 1376.45 574.021 1376.93 571.819C1377.42 569.618 1378.54 567.608 1380.16 566.045C1381.79 564.483 1383.84 563.436 1386.06 563.039C1388.28 562.642 1390.57 562.912 1392.63 563.815C1394.7 564.718 1396.45 566.213 1397.67 568.111C1398.88 570.01 1399.51 572.225 1399.46 574.479C1399.44 575.973 1399.12 577.448 1398.52 578.818C1397.92 580.189 1397.06 581.428 1395.98 582.464C1394.9 583.501 1393.63 584.315 1392.24 584.86C1390.84 585.405 1389.36 585.669 1387.86 585.639Z" fill="url(#paint18_radial_16_45)"/>
<path d="M1424.27 557.687C1421.75 557.646 1419.29 556.856 1417.22 555.418C1415.14 553.98 1413.54 551.958 1412.61 549.609C1411.69 547.26 1411.49 544.69 1412.03 542.224C1412.57 539.759 1413.83 537.509 1415.65 535.761C1417.47 534.012 1419.77 532.844 1422.26 532.404C1424.74 531.963 1427.3 532.271 1429.62 533.288C1431.93 534.305 1433.89 535.985 1435.24 538.115C1436.59 540.245 1437.29 542.729 1437.23 545.253C1437.14 548.614 1435.74 551.807 1433.31 554.136C1430.89 556.465 1427.64 557.742 1424.27 557.687Z" fill="url(#paint19_radial_16_45)"/>
<path d="M1377.05 537.277C1375.9 537.257 1374.78 536.895 1373.84 536.239C1372.89 535.583 1372.16 534.661 1371.74 533.591C1371.32 532.52 1371.23 531.349 1371.48 530.225C1371.72 529.102 1372.3 528.077 1373.13 527.28C1373.96 526.483 1375 525.95 1376.14 525.749C1377.27 525.547 1378.44 525.686 1379.49 526.148C1380.54 526.611 1381.44 527.375 1382.06 528.344C1382.67 529.314 1382.99 530.445 1382.97 531.595C1382.96 532.358 1382.8 533.111 1382.49 533.811C1382.19 534.511 1381.75 535.144 1381.2 535.672C1380.65 536.201 1380 536.615 1379.29 536.89C1378.57 537.166 1377.81 537.297 1377.05 537.277Z" fill="url(#paint20_radial_16_45)"/>
</g>
<g opacity="0.17">
<path d="M1293.52 611.119C1291.27 611.078 1289.07 610.37 1287.22 609.084C1285.37 607.798 1283.94 605.992 1283.12 603.894C1282.29 601.796 1282.11 599.501 1282.59 597.3C1283.07 595.098 1284.2 593.089 1285.82 591.526C1287.45 589.963 1289.5 588.917 1291.72 588.52C1293.94 588.123 1296.23 588.393 1298.29 589.296C1300.36 590.198 1302.11 591.693 1303.33 593.592C1304.54 595.49 1305.17 597.706 1305.12 599.959C1305.1 601.453 1304.77 602.928 1304.18 604.298C1303.58 605.669 1302.72 606.908 1301.64 607.944C1300.56 608.981 1299.29 609.795 1297.9 610.34C1296.5 610.885 1295.02 611.15 1293.52 611.119Z" fill="url(#paint21_radial_16_45)"/>
<path d="M1329.93 583.167C1327.41 583.126 1324.95 582.336 1322.88 580.898C1320.8 579.46 1319.2 577.438 1318.27 575.089C1317.35 572.74 1317.15 570.17 1317.69 567.704C1318.23 565.239 1319.49 562.989 1321.31 561.241C1323.13 559.492 1325.43 558.324 1327.92 557.884C1330.4 557.443 1332.96 557.751 1335.28 558.768C1337.59 559.785 1339.54 561.465 1340.9 563.595C1342.25 565.725 1342.94 568.209 1342.88 570.733C1342.8 574.094 1341.4 577.287 1338.97 579.616C1336.55 581.945 1333.3 583.222 1329.93 583.167Z" fill="url(#paint22_radial_16_45)"/>
<path d="M1282.71 562.757C1281.56 562.737 1280.44 562.376 1279.5 561.719C1278.55 561.063 1277.82 560.141 1277.4 559.071C1276.98 558 1276.89 556.829 1277.13 555.706C1277.38 554.582 1277.96 553.557 1278.79 552.76C1279.61 551.963 1280.66 551.43 1281.8 551.229C1282.93 551.028 1284.1 551.167 1285.15 551.629C1286.2 552.091 1287.1 552.855 1287.72 553.825C1288.33 554.794 1288.65 555.925 1288.63 557.075C1288.62 557.838 1288.45 558.591 1288.15 559.291C1287.85 559.991 1287.41 560.624 1286.86 561.152C1286.31 561.681 1285.66 562.095 1284.94 562.371C1284.23 562.646 1283.47 562.778 1282.71 562.757Z" fill="url(#paint23_radial_16_45)"/>
</g>
<g opacity="0.74">
<path d="M1204.28 541.048C1202.03 541.007 1199.83 540.299 1197.98 539.013C1196.13 537.727 1194.7 535.92 1193.88 533.823C1193.05 531.725 1192.87 529.43 1193.35 527.229C1193.83 525.027 1194.96 523.018 1196.58 521.455C1198.21 519.892 1200.26 518.846 1202.48 518.449C1204.7 518.052 1206.99 518.322 1209.05 519.225C1211.12 520.127 1212.87 521.622 1214.09 523.521C1215.3 525.419 1215.93 527.635 1215.88 529.888C1215.86 531.382 1215.53 532.857 1214.94 534.227C1214.34 535.598 1213.48 536.837 1212.4 537.873C1211.32 538.91 1210.05 539.724 1208.66 540.269C1207.26 540.814 1205.78 541.079 1204.28 541.048Z" fill="url(#paint24_radial_16_45)"/>
<path d="M1240.69 513.096C1238.17 513.055 1235.71 512.265 1233.63 510.827C1231.56 509.389 1229.96 507.367 1229.03 505.018C1228.11 502.669 1227.9 500.099 1228.44 497.633C1228.98 495.168 1230.24 492.918 1232.07 491.17C1233.89 489.421 1236.19 488.253 1238.67 487.813C1241.16 487.372 1243.72 487.68 1246.03 488.697C1248.35 489.714 1250.3 491.394 1251.66 493.524C1253.01 495.654 1253.7 498.138 1253.64 500.661C1253.56 504.023 1252.16 507.216 1249.73 509.545C1247.3 511.874 1244.05 513.151 1240.69 513.096Z" fill="url(#paint25_radial_16_45)"/>
<path d="M1193.47 492.686C1192.32 492.666 1191.2 492.305 1190.26 491.648C1189.31 490.992 1188.58 490.07 1188.16 489C1187.74 487.929 1187.65 486.758 1187.89 485.635C1188.14 484.511 1188.71 483.486 1189.54 482.689C1190.37 481.892 1191.42 481.359 1192.55 481.158C1193.69 480.957 1194.85 481.096 1195.91 481.558C1196.96 482.02 1197.86 482.784 1198.47 483.754C1199.09 484.723 1199.41 485.854 1199.38 487.004C1199.37 487.767 1199.21 488.52 1198.91 489.22C1198.61 489.92 1198.17 490.553 1197.62 491.081C1197.07 491.61 1196.42 492.024 1195.7 492.3C1194.99 492.575 1194.23 492.707 1193.47 492.686Z" fill="url(#paint26_radial_16_45)"/>
</g>
<path d="M1449.06 514.294C1446.8 514.253 1444.61 513.545 1442.76 512.258C1440.91 510.972 1439.48 509.166 1438.65 507.068C1437.83 504.971 1437.65 502.676 1438.13 500.474C1438.61 498.273 1439.73 496.263 1441.36 494.7C1442.98 493.137 1445.03 492.091 1447.25 491.694C1449.47 491.297 1451.76 491.567 1453.83 492.47C1455.89 493.373 1457.65 494.868 1458.86 496.766C1460.08 498.664 1460.7 500.88 1460.66 503.133C1460.63 504.628 1460.31 506.103 1459.71 507.473C1459.11 508.843 1458.25 510.082 1457.17 511.119C1456.1 512.156 1454.82 512.97 1453.43 513.515C1452.04 514.059 1450.55 514.324 1449.06 514.294Z" fill="radial-gradient(50% 50% at 50% 50.02%, #fff 0%, #ffdaa2 7%, #ff0e00 32%, #000 79%)"/>
<path d="M1485.47 486.342C1482.94 486.301 1480.48 485.511 1478.41 484.073C1476.33 482.635 1474.73 480.613 1473.81 478.264C1472.88 475.915 1472.68 473.345 1473.22 470.879C1473.76 468.414 1475.02 466.164 1476.84 464.416C1478.66 462.667 1480.96 461.499 1483.45 461.058C1485.94 460.618 1488.5 460.926 1490.81 461.943C1493.12 462.96 1495.08 464.64 1496.43 466.77C1497.79 468.9 1498.48 471.384 1498.42 473.907C1498.34 477.269 1496.93 480.462 1494.51 482.791C1492.08 485.12 1488.83 486.397 1485.47 486.342Z" fill="url(#paint28_radial_16_45)"/>
<path d="M1438.24 465.932C1437.09 465.911 1435.98 465.55 1435.03 464.894C1434.09 464.238 1433.36 463.316 1432.94 462.245C1432.52 461.175 1432.42 460.004 1432.67 458.88C1432.92 457.757 1433.49 456.732 1434.32 455.935C1435.15 455.138 1436.2 454.605 1437.33 454.404C1438.46 454.202 1439.63 454.341 1440.68 454.803C1441.74 455.265 1442.63 456.03 1443.25 456.999C1443.87 457.969 1444.19 459.1 1444.16 460.25C1444.15 461.013 1443.99 461.766 1443.69 462.466C1443.38 463.166 1442.94 463.798 1442.39 464.327C1441.84 464.856 1441.19 465.27 1440.48 465.545C1439.77 465.821 1439.01 465.952 1438.24 465.932Z" fill="url(#paint29_radial_16_45)"/>
<path d="M1692.3 390.765C1702.96 401.836 1710.08 415.816 1712.79 430.937C1715.49 446.057 1713.65 461.639 1707.49 475.713C1701.33 489.786 1691.14 501.719 1678.19 510.002C1665.25 518.285 1650.14 522.546 1634.77 522.247C1619.4 521.947 1604.47 517.101 1591.86 508.32C1579.25 499.54 1569.52 487.219 1563.92 472.917C1558.31 458.614 1557.08 442.972 1560.37 427.968C1563.66 412.964 1571.33 399.272 1582.41 388.624C1597.27 374.35 1617.19 366.557 1637.8 366.958C1658.41 367.359 1678.01 375.923 1692.3 390.765Z" fill="url(#paint30_radial_16_45)"/>
<path d="M1537.4 442.541C1540.52 445.773 1542.6 449.854 1543.39 454.269C1544.18 458.683 1543.64 463.232 1541.84 467.341C1540.05 471.45 1537.07 474.935 1533.29 477.354C1529.51 479.773 1525.1 481.019 1520.62 480.934C1516.13 480.848 1511.77 479.435 1508.09 476.874C1504.4 474.312 1501.56 470.717 1499.92 466.543C1498.28 462.368 1497.92 457.802 1498.88 453.421C1499.84 449.04 1502.07 445.041 1505.3 441.929C1509.64 437.76 1515.46 435.483 1521.48 435.597C1527.5 435.712 1533.23 438.209 1537.4 442.541Z" fill="url(#paint31_radial_16_45)"/>
<path d="M1571.24 527.926C1572.67 529.405 1573.63 531.277 1573.99 533.302C1574.36 535.328 1574.11 537.415 1573.28 539.3C1572.45 541.184 1571.09 542.78 1569.35 543.885C1567.61 544.989 1565.58 545.552 1563.52 545.501C1561.47 545.451 1559.47 544.79 1557.79 543.602C1556.11 542.413 1554.82 540.752 1554.08 538.83C1553.35 536.907 1553.2 534.809 1553.67 532.804C1554.13 530.799 1555.18 528.977 1556.68 527.569C1558.67 525.706 1561.31 524.7 1564.03 524.767C1566.76 524.833 1569.35 525.968 1571.24 527.926Z" fill="url(#paint32_radial_16_45)"/>
<g opacity="0.26">
<path d="M142.234 599.984C144.009 596.375 146.811 593.371 150.29 591.35C153.769 589.329 157.768 588.381 161.784 588.626C165.801 588.871 169.655 590.297 172.862 592.726C176.069 595.154 178.486 598.477 179.808 602.274C181.13 606.072 181.299 610.176 180.292 614.069C179.286 617.963 177.15 621.472 174.153 624.155C171.156 626.838 167.432 628.576 163.449 629.149C159.467 629.722 155.403 629.105 151.77 627.376C149.333 626.216 147.151 624.584 145.35 622.574C143.548 620.565 142.164 618.218 141.277 615.671C140.39 613.123 140.018 610.424 140.182 607.731C140.347 605.039 141.044 602.405 142.234 599.984Z" fill="radial-gradient(50% 50% at 50% 50.02%, #fff 0%, #ffdaa2 7%, #ff0e00 32%, #000 79%)"/>
<path d="M169.058 633.644C169.573 632.576 170.395 631.684 171.418 631.083C172.442 630.482 173.621 630.198 174.805 630.268C175.99 630.337 177.128 630.757 178.074 631.473C179.02 632.19 179.732 633.171 180.119 634.292C180.506 635.414 180.551 636.625 180.249 637.772C179.946 638.919 179.309 639.95 178.42 640.735C177.53 641.52 176.426 642.023 175.25 642.18C174.073 642.338 172.877 642.143 171.811 641.619C171.106 641.277 170.476 640.798 169.956 640.212C169.436 639.626 169.036 638.943 168.78 638.202C168.525 637.461 168.418 636.678 168.465 635.895C168.513 635.113 168.714 634.348 169.058 633.644Z" fill="url(#paint34_radial_16_45)"/>
<path d="M187.161 617.54C187.398 617.055 187.773 616.652 188.24 616.38C188.706 616.109 189.243 615.982 189.782 616.015C190.32 616.049 190.837 616.241 191.267 616.568C191.696 616.895 192.018 617.342 192.193 617.853C192.368 618.363 192.388 618.914 192.25 619.435C192.111 619.957 191.821 620.425 191.416 620.782C191.011 621.139 190.509 621.367 189.974 621.439C189.439 621.51 188.895 621.422 188.41 621.184C187.762 620.866 187.266 620.303 187.032 619.62C186.797 618.937 186.844 618.189 187.161 617.54Z" fill="url(#paint35_radial_16_45)"/>
<path d="M260.951 626.178C264.748 627.517 268.063 629.949 270.479 633.168C272.896 636.387 274.305 640.248 274.529 644.265C274.753 648.283 273.782 652.277 271.739 655.744C269.696 659.212 266.672 661.997 263.047 663.75C259.423 665.502 255.36 666.144 251.372 665.593C247.383 665.042 243.647 663.325 240.633 660.656C237.62 657.987 235.464 654.486 234.438 650.595C233.412 646.705 233.561 642.597 234.867 638.791C235.74 636.244 237.11 633.895 238.897 631.88C240.684 629.865 242.853 628.224 245.278 627.051C247.703 625.879 250.337 625.198 253.027 625.048C255.717 624.898 258.41 625.282 260.951 626.178Z" fill="radial-gradient(50% 50% at 50% 50.02%, #fff 0%, #ffdaa2 7%, #ff0e00 32%, #000 79%)"/>
<path d="M230.813 656.856C231.93 657.25 232.905 657.966 233.615 658.913C234.325 659.861 234.738 660.997 234.802 662.179C234.866 663.361 234.578 664.535 233.975 665.554C233.372 666.572 232.48 667.389 231.412 667.902C230.344 668.414 229.148 668.598 227.976 668.432C226.803 668.265 225.706 667.755 224.824 666.966C223.941 666.176 223.312 665.143 223.017 663.997C222.721 662.851 222.772 661.643 223.163 660.526C223.421 659.78 223.824 659.093 224.349 658.504C224.874 657.916 225.51 657.437 226.222 657.095C226.933 656.754 227.705 656.557 228.493 656.516C229.281 656.475 230.07 656.591 230.813 656.856Z" fill="url(#paint37_radial_16_45)"/>
<path d="M248.916 672.807C249.5 673.109 249.955 673.611 250.198 674.222C250.441 674.832 250.455 675.51 250.238 676.13C250.021 676.75 249.587 677.271 249.016 677.597C248.445 677.923 247.776 678.031 247.131 677.903C246.748 677.827 246.386 677.67 246.069 677.442C245.752 677.214 245.488 676.92 245.294 676.581C245.1 676.243 244.982 675.866 244.946 675.477C244.911 675.089 244.959 674.697 245.088 674.329C245.217 673.96 245.424 673.624 245.694 673.342C245.964 673.061 246.292 672.84 246.655 672.696C247.018 672.552 247.407 672.487 247.797 672.506C248.187 672.525 248.569 672.628 248.916 672.807Z" fill="url(#paint38_radial_16_45)"/>
<path d="M192.566 661.57C196.363 662.901 199.681 665.323 202.103 668.533C204.526 671.743 205.944 675.597 206.18 679.611C206.416 683.624 205.459 687.618 203.429 691.089C201.4 694.561 198.389 697.355 194.774 699.12C191.16 700.886 187.103 701.544 183.116 701.011C179.128 700.479 175.387 698.78 172.363 696.128C169.339 693.476 167.167 689.99 166.121 686.108C165.075 682.226 165.2 678.121 166.483 674.311C167.343 671.752 168.704 669.39 170.485 667.361C172.267 665.333 174.433 663.678 176.86 662.493C179.287 661.307 181.924 660.616 184.621 660.457C187.317 660.299 190.018 660.677 192.566 661.57Z" fill="url(#paint39_radial_16_45)"/>
<path d="M162.326 692.249C163.443 692.643 164.418 693.358 165.129 694.306C165.839 695.253 166.252 696.389 166.316 697.571C166.38 698.753 166.092 699.928 165.489 700.946C164.885 701.965 163.994 702.782 162.926 703.294C161.858 703.806 160.662 703.99 159.49 703.824C158.317 703.657 157.22 703.147 156.337 702.358C155.455 701.569 154.826 700.536 154.53 699.389C154.235 698.243 154.286 697.035 154.677 695.918C154.935 695.172 155.337 694.485 155.862 693.897C156.387 693.308 157.024 692.829 157.735 692.488C158.447 692.146 159.219 691.95 160.007 691.909C160.795 691.868 161.583 691.983 162.326 692.249Z" fill="url(#paint40_radial_16_45)"/>
<path d="M180.481 708.25C181.165 708.493 181.726 708.996 182.041 709.65C182.356 710.303 182.4 711.055 182.163 711.741C181.926 712.423 181.428 712.984 180.778 713.299C180.128 713.614 179.379 713.659 178.696 713.423C178.313 713.347 177.951 713.189 177.634 712.961C177.317 712.733 177.053 712.44 176.859 712.101C176.665 711.762 176.547 711.386 176.511 710.997C176.476 710.608 176.524 710.217 176.653 709.848C176.782 709.48 176.989 709.144 177.259 708.862C177.529 708.58 177.857 708.36 178.22 708.216C178.583 708.071 178.972 708.007 179.362 708.026C179.752 708.045 180.134 708.148 180.481 708.327V708.25Z" fill="url(#paint41_radial_16_45)"/>
<path d="M96.7979 730.444C93.9607 728.331 91.8159 725.423 90.6359 722.09C89.4559 718.756 89.294 715.148 90.1707 711.722C91.0475 708.296 92.9233 705.208 95.5599 702.85C98.1966 700.493 101.475 698.971 104.979 698.479C108.483 697.987 112.054 698.547 115.239 700.087C118.423 701.628 121.078 704.079 122.866 707.131C124.653 710.183 125.493 713.696 125.278 717.226C125.063 720.755 123.803 724.141 121.658 726.953C118.809 730.689 114.6 733.151 109.946 733.804C105.291 734.458 100.567 733.25 96.7979 730.444Z" fill="url(#paint42_radial_16_45)"/>
<path d="M129.843 713.194C129.054 712.578 128.465 711.743 128.147 710.795C127.83 709.846 127.799 708.825 128.058 707.859C128.318 706.893 128.856 706.024 129.606 705.362C130.355 704.699 131.284 704.272 132.275 704.133C133.266 703.994 134.276 704.149 135.18 704.58C136.083 705.011 136.84 705.697 137.355 706.555C137.871 707.412 138.122 708.402 138.078 709.402C138.035 710.401 137.698 711.365 137.109 712.175C136.707 712.728 136.197 713.195 135.61 713.548C135.023 713.9 134.371 714.131 133.693 714.226C133.014 714.321 132.324 714.279 131.663 714.101C131.001 713.924 130.382 713.615 129.843 713.194Z" fill="radial-gradient(50% 50% at 50% 50.02%, #FFF 0%, #FFDAA2 7%, #FF0E00 32%, #000 79%)"/>
<path d="M119.159 695.154C118.784 694.871 118.502 694.484 118.347 694.041C118.193 693.598 118.173 693.119 118.291 692.665C118.409 692.211 118.659 691.803 119.01 691.491C119.36 691.179 119.796 690.978 120.261 690.914C120.726 690.849 121.2 690.924 121.622 691.129C122.044 691.334 122.396 691.66 122.633 692.065C122.87 692.47 122.981 692.936 122.953 693.404C122.925 693.872 122.758 694.321 122.474 694.695C122.094 695.194 121.533 695.522 120.911 695.608C120.29 695.694 119.66 695.531 119.159 695.154Z" fill="url(#paint44_radial_16_45)"/>
</g>
<g opacity="0.69">
<path d="M68.1643 411.582C65.3413 383.719 70.8497 355.646 83.9929 330.911C97.1361 306.177 117.324 285.893 142.003 272.624C166.682 259.356 194.744 253.699 222.641 256.369C250.537 259.039 277.015 269.915 298.725 287.624C320.436 305.332 336.404 329.076 344.611 355.854C352.817 382.631 352.894 411.24 344.83 438.061C336.767 464.882 320.925 488.711 299.31 506.534C277.694 524.358 251.275 535.376 223.393 538.194C186.009 541.967 148.656 530.748 119.547 507.005C90.4383 483.263 71.9561 448.939 68.1643 411.582Z" fill="url(#paint45_radial_16_45)"/>
<path d="M348.687 511.44C347.867 503.307 349.477 495.114 353.316 487.897C357.154 480.679 363.048 474.761 370.252 470.89C377.456 467.02 385.647 465.371 393.789 466.152C401.93 466.934 409.657 470.11 415.993 475.28C422.328 480.449 426.987 487.38 429.381 495.196C431.775 503.012 431.796 511.361 429.442 519.189C427.087 527.017 422.463 533.971 416.154 539.173C409.845 544.374 402.134 547.59 393.996 548.412C383.084 549.501 372.186 546.22 363.691 539.289C355.197 532.358 349.801 522.342 348.687 511.44Z" fill="url(#paint46_radial_16_45)"/>
<path d="M396.24 350.913C395.86 347.192 396.594 343.441 398.347 340.136C400.101 336.831 402.797 334.12 406.093 332.347C409.389 330.574 413.138 329.817 416.864 330.174C420.591 330.53 424.127 331.983 427.027 334.349C429.927 336.715 432.059 339.888 433.154 343.465C434.248 347.043 434.256 350.864 433.177 354.446C432.097 358.028 429.979 361.21 427.089 363.588C424.2 365.966 420.669 367.435 416.944 367.807C414.475 368.057 411.98 367.818 409.603 367.105C407.225 366.391 405.012 365.216 403.089 363.647C401.167 362.078 399.572 360.146 398.397 357.961C397.222 355.776 396.489 353.381 396.24 350.913Z" fill="url(#paint47_radial_16_45)"/>
</g>
<path style="mix-blend-mode:screen" d="M985.13 315.139C971.009 315.139 957.206 310.954 945.466 303.115C933.725 295.275 924.575 284.133 919.171 271.096C913.768 258.06 912.354 243.715 915.108 229.875C917.863 216.035 924.663 203.323 934.647 193.345C944.632 183.367 957.353 176.572 971.201 173.819C985.05 171.067 999.405 172.479 1012.45 177.879C1025.5 183.279 1036.65 192.424 1044.49 204.156C1052.34 215.889 1056.52 229.683 1056.52 243.794C1056.52 262.716 1049 280.862 1035.61 294.242C1022.22 307.622 1004.06 315.139 985.13 315.139Z" fill="url(#paint48_radial_16_45)"/>
<path style="mix-blend-mode:screen" d="M1295.41 471.155C1281.29 471.155 1267.48 466.971 1255.74 459.132C1244 451.292 1234.85 440.149 1229.45 427.113C1224.05 414.076 1222.63 399.731 1225.39 385.892C1228.14 372.052 1234.94 359.339 1244.93 349.362C1254.91 339.384 1267.63 332.589 1281.48 329.836C1295.33 327.083 1309.68 328.496 1322.73 333.896C1335.77 339.296 1346.92 348.44 1354.77 360.173C1362.61 371.906 1366.8 385.7 1366.8 399.81C1366.8 418.732 1359.28 436.879 1345.89 450.259C1332.5 463.639 1314.34 471.155 1295.41 471.155Z" fill="url(#paint49_radial_16_45)"/>
<path style="mix-blend-mode:screen" d="M457.868 652.907C450.137 652.907 442.58 650.616 436.152 646.324C429.724 642.032 424.714 635.931 421.755 628.794C418.797 621.656 418.023 613.802 419.531 606.225C421.039 598.648 424.762 591.688 430.228 586.225C435.695 580.762 442.66 577.042 450.242 575.535C457.824 574.028 465.683 574.801 472.826 577.758C479.968 580.714 486.073 585.721 490.368 592.144C494.663 598.568 496.955 606.12 496.955 613.846C496.955 624.205 492.837 634.141 485.507 641.466C478.176 648.792 468.234 652.907 457.868 652.907Z" fill="url(#paint50_radial_16_45)"/>
<path style="mix-blend-mode:screen" d="M18.9032 181.953C15.21 181.953 11.5996 180.859 8.52782 178.81C5.456 176.761 3.06049 173.849 1.6437 170.441C0.226904 167.032 -0.147651 163.281 0.567315 159.66C1.28228 156.039 3.05472 152.711 5.66086 150.096C8.26701 147.481 11.59 145.696 15.2104 144.967C18.8308 144.237 22.5862 144.596 26.0026 145.998C29.419 147.4 32.3432 149.782 34.406 152.844C36.4688 155.905 37.5778 159.508 37.5929 163.199C37.6029 165.658 37.127 168.095 36.1922 170.37C35.2575 172.645 33.8824 174.713 32.1459 176.455C30.4094 178.198 28.3457 179.58 26.0732 180.524C23.8006 181.467 21.364 181.953 18.9032 181.953Z" fill="url(#paint51_radial_16_45)"/>
<path style="mix-blend-mode:screen" d="M238.181 294.066C235.156 294.066 232.198 293.17 229.682 291.49C227.166 289.81 225.205 287.422 224.047 284.629C222.89 281.835 222.587 278.761 223.177 275.796C223.767 272.83 225.224 270.106 227.364 267.968C229.503 265.83 232.229 264.374 235.197 263.784C238.164 263.194 241.24 263.497 244.036 264.654C246.831 265.811 249.221 267.77 250.902 270.285C252.583 272.799 253.48 275.755 253.48 278.778C253.48 282.833 251.868 286.722 248.999 289.589C246.13 292.456 242.239 294.066 238.181 294.066Z" fill="url(#paint52_radial_16_45)"/>
<path style="mix-blend-mode:screen" d="M182.087 328.057C179.061 328.057 176.103 327.161 173.588 325.481C171.072 323.801 169.111 321.413 167.953 318.62C166.795 315.826 166.492 312.752 167.082 309.787C167.673 306.821 169.13 304.097 171.269 301.959C173.409 299.821 176.135 298.365 179.102 297.775C182.07 297.185 185.146 297.488 187.941 298.645C190.737 299.802 193.126 301.761 194.807 304.276C196.488 306.79 197.385 309.745 197.385 312.769C197.385 316.824 195.774 320.713 192.905 323.58C190.036 326.447 186.144 328.057 182.087 328.057Z" fill="url(#paint53_radial_16_45)"/>
<path style="mix-blend-mode:screen" d="M878.754 558.426C875.728 558.426 872.771 557.529 870.255 555.849C867.739 554.169 865.778 551.781 864.62 548.988C863.462 546.194 863.159 543.12 863.75 540.155C864.34 537.189 865.797 534.465 867.936 532.327C870.076 530.189 872.802 528.733 875.77 528.143C878.737 527.553 881.813 527.856 884.609 529.013C887.404 530.17 889.793 532.13 891.474 534.644C893.155 537.158 894.053 540.114 894.053 543.137C894.053 547.192 892.441 551.081 889.572 553.948C886.703 556.815 882.812 558.426 878.754 558.426Z" fill="url(#paint54_radial_16_45)"/>
<path style="mix-blend-mode:screen" d="M1405.71 690.898C1402.68 690.898 1399.73 690.002 1397.21 688.322C1394.7 686.642 1392.73 684.254 1391.58 681.461C1390.42 678.667 1390.12 675.593 1390.71 672.627C1391.3 669.662 1392.75 666.938 1394.89 664.8C1397.03 662.662 1399.76 661.206 1402.73 660.616C1405.69 660.026 1408.77 660.329 1411.56 661.486C1414.36 662.643 1416.75 664.602 1418.43 667.116C1420.11 669.631 1421.01 672.586 1421.01 675.61C1421.01 679.665 1419.4 683.553 1416.53 686.421C1413.66 689.288 1409.77 690.898 1405.71 690.898Z" fill="url(#paint55_radial_16_45)"/>
<path style="mix-blend-mode:screen" d="M822.66 592.391C819.634 592.391 816.676 591.495 814.16 589.815C811.645 588.135 809.684 585.747 808.526 582.954C807.368 580.16 807.065 577.086 807.655 574.12C808.245 571.155 809.702 568.431 811.842 566.293C813.982 564.154 816.708 562.698 819.675 562.108C822.643 561.519 825.719 561.821 828.514 562.978C831.31 564.136 833.699 566.095 835.38 568.609C837.061 571.123 837.958 574.079 837.958 577.103C837.958 581.158 836.346 585.046 833.477 587.913C830.608 590.78 826.717 592.391 822.66 592.391Z" fill="url(#paint56_radial_16_45)"/>
<path style="mix-blend-mode:screen" d="M401.085 673.929C398.059 673.929 395.101 673.032 392.585 671.352C390.069 669.672 388.109 667.284 386.951 664.491C385.793 661.697 385.49 658.623 386.08 655.658C386.67 652.692 388.127 649.968 390.267 647.83C392.407 645.692 395.132 644.236 398.1 643.646C401.068 643.056 404.144 643.359 406.939 644.516C409.735 645.673 412.124 647.632 413.805 650.147C415.486 652.661 416.383 655.617 416.383 658.64C416.383 662.695 414.771 666.584 411.902 669.451C409.033 672.318 405.142 673.929 401.085 673.929Z" fill="url(#paint57_radial_16_45)"/>
<path style="mix-blend-mode:screen" d="M780.155 498.954C777.13 498.954 774.172 498.058 771.656 496.378C769.14 494.698 767.179 492.31 766.021 489.517C764.863 486.723 764.56 483.649 765.151 480.684C765.741 477.718 767.198 474.994 769.338 472.856C771.477 470.718 774.203 469.262 777.171 468.672C780.138 468.082 783.214 468.385 786.01 469.542C788.805 470.699 791.195 472.658 792.876 475.173C794.557 477.687 795.454 480.642 795.454 483.666C795.454 487.721 793.842 491.609 790.973 494.477C788.104 497.344 784.213 498.954 780.155 498.954Z" fill="url(#paint58_radial_16_45)"/>
<path style="mix-blend-mode:screen" opacity="0.67" d="M144.427 223.766C136.695 223.766 129.137 221.474 122.709 217.181C116.28 212.888 111.27 206.786 108.313 199.647C105.355 192.508 104.582 184.653 106.093 177.075C107.603 169.497 111.328 162.537 116.797 157.075C122.266 151.613 129.233 147.895 136.817 146.391C144.401 144.886 152.261 145.663 159.403 148.624C166.545 151.584 172.648 156.595 176.94 163.022C181.232 169.449 183.52 177.003 183.515 184.73C183.515 189.858 182.504 194.937 180.539 199.674C178.574 204.412 175.695 208.716 172.065 212.342C168.435 215.967 164.126 218.842 159.383 220.802C154.641 222.762 149.559 223.769 144.427 223.766Z" fill="url(#paint59_radial_16_45)"/>
<path style="mix-blend-mode:screen" d="M882.4 479.156C875.679 479.151 869.11 477.155 863.524 473.42C857.938 469.684 853.586 464.378 851.018 458.171C848.449 451.964 847.78 445.136 849.094 438.549C850.408 431.962 853.647 425.912 858.402 421.165C863.156 416.417 869.212 413.185 875.804 411.876C882.397 410.568 889.229 411.242 895.438 413.813C901.647 416.385 906.954 420.738 910.688 426.323C914.421 431.908 916.414 438.474 916.414 445.191C916.417 449.654 915.54 454.075 913.831 458.199C912.123 462.323 909.617 466.069 906.457 469.224C903.298 472.379 899.547 474.881 895.419 476.585C891.291 478.289 886.867 479.163 882.4 479.156Z" fill="url(#paint60_radial_16_45)"/>
<path style="mix-blend-mode:screen" opacity="0.68" d="M553.457 95.7525C544.048 95.7475 534.852 92.9547 527.031 87.7271C519.21 82.4996 513.116 75.0721 509.519 66.3837C505.922 57.6953 504.983 48.1361 506.822 38.9147C508.661 29.6932 513.194 21.2237 519.849 14.5767C526.504 7.92977 534.982 3.40394 544.21 1.57142C553.439 -0.261107 563.004 0.681957 571.696 4.28138C580.389 7.88081 587.818 13.975 593.045 21.7934C598.271 29.6118 601.061 38.8034 601.061 48.2061C601.065 54.4531 599.835 60.6394 597.444 66.4112C595.052 72.183 591.546 77.4269 587.124 81.843C582.703 86.2591 577.454 89.7607 571.677 92.1474C565.9 94.5342 559.709 95.7592 553.457 95.7525Z" fill="url(#paint61_radial_16_45)"/>
<path style="mix-blend-mode:screen" d="M358.427 592.289C352.104 592.289 345.922 590.415 340.664 586.904C335.406 583.393 331.308 578.403 328.888 572.564C326.467 566.726 325.834 560.301 327.068 554.103C328.302 547.905 331.347 542.212 335.819 537.743C340.29 533.274 345.987 530.231 352.19 528.998C358.392 527.765 364.821 528.398 370.663 530.817C376.506 533.235 381.499 537.33 385.013 542.585C388.526 547.839 390.401 554.017 390.401 560.337C390.405 564.534 389.58 568.69 387.974 572.568C386.369 576.446 384.014 579.97 381.044 582.938C378.074 585.906 374.548 588.259 370.667 589.864C366.787 591.468 362.627 592.292 358.427 592.289Z" fill="url(#paint62_radial_16_45)"/>
<path style="mix-blend-mode:screen" d="M1102.95 367.629C1093.37 367.629 1084.01 364.789 1076.04 359.47C1068.07 354.15 1061.86 346.589 1058.2 337.743C1054.53 328.896 1053.57 319.162 1055.44 309.771C1057.31 300.38 1061.92 291.753 1068.7 284.983C1075.47 278.212 1084.1 273.601 1093.5 271.733C1102.9 269.865 1112.64 270.824 1121.49 274.488C1130.34 278.152 1137.91 284.358 1143.23 292.319C1148.56 300.281 1151.4 309.641 1151.4 319.216C1151.4 332.056 1146.29 344.37 1137.21 353.449C1128.12 362.528 1115.8 367.629 1102.95 367.629Z" fill="url(#paint63_radial_16_45)"/>
<path style="mix-blend-mode:screen" d="M1267.82 114.532C1258.24 114.532 1248.87 111.692 1240.91 106.373C1232.94 101.053 1226.73 93.4919 1223.06 84.6456C1219.4 75.7993 1218.44 66.0651 1220.31 56.674C1222.17 47.2828 1226.79 38.6565 1233.56 31.8859C1240.34 25.1152 1248.97 20.5043 1258.37 18.6363C1267.77 16.7683 1277.51 17.727 1286.36 21.3913C1295.21 25.0555 1302.78 31.2607 1308.1 39.2222C1313.42 47.1836 1316.27 56.5437 1316.27 66.1189C1316.27 78.9587 1311.16 91.2727 1302.08 100.352C1292.99 109.431 1280.67 114.532 1267.82 114.532Z" fill="url(#paint64_radial_16_45)"/>
<path style="mix-blend-mode:screen" d="M388.591 774.882C379.009 774.882 369.643 772.042 361.676 766.723C353.709 761.403 347.5 753.842 343.833 744.996C340.167 736.15 339.207 726.415 341.077 717.024C342.946 707.633 347.56 699.007 354.335 692.236C361.11 685.465 369.742 680.855 379.14 678.987C388.537 677.119 398.278 678.077 407.13 681.741C415.982 685.406 423.548 691.611 428.872 699.572C434.195 707.534 437.036 716.894 437.036 726.469C437.036 732.827 435.783 739.122 433.348 744.996C430.914 750.87 427.345 756.207 422.847 760.702C418.348 765.198 413.008 768.764 407.13 771.197C401.252 773.63 394.953 774.882 388.591 774.882Z" fill="url(#paint65_radial_16_45)"/>
<path style="mix-blend-mode:screen" d="M851.778 708.2C842.196 708.2 832.83 705.36 824.863 700.041C816.896 694.721 810.687 687.16 807.02 678.314C803.354 669.467 802.394 659.733 804.263 650.342C806.133 640.951 810.747 632.324 817.522 625.554C824.297 618.783 832.929 614.172 842.327 612.304C851.724 610.436 861.465 611.395 870.317 615.059C879.169 618.723 886.735 624.929 892.058 632.89C897.382 640.852 900.223 650.212 900.223 659.787C900.223 672.627 895.119 684.941 886.034 694.02C876.948 703.099 864.626 708.2 851.778 708.2Z" fill="url(#paint66_radial_16_45)"/>
<path style="mix-blend-mode:screen" d="M710.165 444.503C700.583 444.503 691.217 441.663 683.25 436.344C675.283 431.024 669.074 423.463 665.407 414.617C661.741 405.771 660.781 396.036 662.651 386.645C664.52 377.254 669.134 368.628 675.909 361.857C682.684 355.086 691.316 350.476 700.714 348.608C710.111 346.739 719.852 347.698 728.704 351.362C737.556 355.027 745.122 361.232 750.446 369.193C755.769 377.155 758.61 386.515 758.61 396.09C758.61 408.93 753.506 421.244 744.421 430.323C735.336 439.402 723.013 444.503 710.165 444.503Z" fill="url(#paint67_radial_16_45)"/>
<path style="mix-blend-mode:screen" d="M1119.48 467.435C1109.89 467.435 1100.53 464.596 1092.56 459.276C1084.59 453.957 1078.38 446.395 1074.72 437.549C1071.05 428.703 1070.09 418.969 1071.96 409.578C1073.83 400.186 1078.44 391.56 1085.22 384.789C1091.99 378.019 1100.63 373.408 1110.02 371.54C1119.42 369.672 1129.16 370.631 1138.01 374.295C1146.87 377.959 1154.43 384.164 1159.76 392.126C1165.08 400.087 1167.92 409.447 1167.92 419.022C1167.92 431.862 1162.82 444.176 1153.73 453.255C1144.65 462.335 1132.32 467.435 1119.48 467.435Z" fill="url(#paint68_radial_16_45)"/>
<path style="mix-blend-mode:screen" d="M1520.98 196.069C1511.4 196.069 1502.04 193.23 1494.07 187.91C1486.1 182.59 1479.89 175.029 1476.23 166.183C1472.56 157.337 1471.6 147.602 1473.47 138.211C1475.34 128.82 1479.95 120.194 1486.73 113.423C1493.5 106.653 1502.14 102.042 1511.53 100.174C1520.93 98.3056 1530.67 99.2644 1539.52 102.929C1548.38 106.593 1555.94 112.798 1561.26 120.76C1566.59 128.721 1569.43 138.081 1569.43 147.656C1569.43 160.496 1564.33 172.81 1555.24 181.889C1546.16 190.968 1533.83 196.069 1520.98 196.069Z" fill="url(#paint69_radial_16_45)"/>
<path style="mix-blend-mode:screen" d="M1456.04 769.021C1444.24 769.021 1432.69 765.522 1422.88 758.967C1413.06 752.411 1405.41 743.094 1400.89 732.193C1396.38 721.292 1395.2 709.297 1397.5 697.725C1399.81 686.154 1405.49 675.525 1413.84 667.184C1422.19 658.843 1432.83 653.164 1444.41 650.865C1455.99 648.566 1468 649.751 1478.9 654.27C1489.81 658.788 1499.13 666.438 1505.68 676.251C1512.24 686.063 1515.74 697.598 1515.73 709.397C1515.73 717.229 1514.19 724.985 1511.19 732.22C1508.19 739.456 1503.79 746.03 1498.25 751.567C1492.7 757.104 1486.12 761.495 1478.88 764.49C1471.64 767.485 1463.88 769.025 1456.04 769.021Z" fill="url(#paint70_radial_16_45)"/>
<path style="mix-blend-mode:screen" d="M1345.05 706.671C1338.78 706.671 1332.66 704.813 1327.44 701.333C1322.23 697.853 1318.17 692.906 1315.77 687.119C1313.37 681.332 1312.74 674.964 1313.97 668.82C1315.19 662.676 1318.21 657.032 1322.64 652.603C1327.07 648.174 1332.72 645.157 1338.87 643.935C1345.02 642.713 1351.39 643.34 1357.18 645.737C1362.97 648.135 1367.92 652.194 1371.4 657.403C1374.89 662.611 1376.75 668.734 1376.75 674.999C1376.74 683.397 1373.4 691.449 1367.45 697.387C1361.51 703.325 1353.46 706.664 1345.05 706.671Z" fill="url(#paint71_radial_16_45)"/>
<path style="mix-blend-mode:screen" d="M1365.17 344.11C1359.79 344.115 1354.52 342.524 1350.05 339.539C1345.57 336.553 1342.08 332.307 1340.01 327.338C1337.95 322.37 1337.41 316.901 1338.46 311.625C1339.51 306.348 1342.1 301.502 1345.91 297.698C1349.71 293.894 1354.56 291.304 1359.84 290.256C1365.12 289.208 1370.59 289.748 1375.57 291.809C1380.54 293.87 1384.79 297.359 1387.78 301.834C1390.76 306.309 1392.35 311.569 1392.35 316.948C1392.35 324.152 1389.49 331.061 1384.39 336.154C1379.29 341.248 1372.38 344.11 1365.17 344.11Z" fill="url(#paint72_radial_16_45)"/>
<path style="mix-blend-mode:screen" d="M1309.07 366.278C1306.05 366.278 1303.09 365.381 1300.58 363.701C1298.06 362.021 1296.1 359.634 1294.94 356.84C1293.78 354.047 1293.48 350.973 1294.07 348.007C1294.66 345.041 1296.12 342.317 1298.26 340.179C1300.4 338.041 1303.12 336.585 1306.09 335.995C1309.06 335.405 1312.13 335.708 1314.93 336.865C1317.72 338.022 1320.11 339.982 1321.8 342.496C1323.48 345.01 1324.37 347.966 1324.37 350.99C1324.37 355.044 1322.76 358.933 1319.89 361.8C1317.02 364.667 1313.13 366.278 1309.07 366.278Z" fill="url(#paint73_radial_16_45)"/>
<path style="mix-blend-mode:screen" d="M1240.82 172.805C1237.79 172.805 1234.83 171.909 1232.32 170.229C1229.8 168.549 1227.84 166.161 1226.68 163.368C1225.53 160.574 1225.22 157.5 1225.81 154.534C1226.4 151.569 1227.86 148.845 1230 146.707C1232.14 144.568 1234.87 143.112 1237.83 142.523C1240.8 141.933 1243.88 142.235 1246.67 143.393C1249.47 144.55 1251.86 146.509 1253.54 149.023C1255.22 151.537 1256.12 154.493 1256.12 157.517C1256.12 161.572 1254.5 165.46 1251.64 168.327C1248.77 171.195 1244.88 172.805 1240.82 172.805Z" fill="url(#paint74_radial_16_45)"/>
<path style="mix-blend-mode:screen" d="M1220.42 317.152C1213.03 317.152 1205.81 314.962 1199.66 310.859C1193.52 306.756 1188.73 300.925 1185.91 294.102C1183.08 287.28 1182.34 279.773 1183.79 272.531C1185.23 265.289 1188.79 258.638 1194.02 253.418C1199.24 248.199 1205.9 244.646 1213.15 243.208C1220.4 241.771 1227.91 242.514 1234.73 245.343C1241.56 248.172 1247.39 252.961 1251.49 259.103C1255.59 265.245 1257.78 272.464 1257.77 279.848C1257.77 284.749 1256.81 289.602 1254.93 294.13C1253.05 298.657 1250.3 302.771 1246.83 306.235C1243.36 309.699 1239.24 312.446 1234.71 314.32C1230.18 316.193 1225.32 317.155 1220.42 317.152Z" fill="url(#paint75_radial_16_45)"/>
<path style="mix-blend-mode:screen" d="M922.941 215.892C919.915 215.892 916.958 214.996 914.442 213.316C911.926 211.636 909.965 209.248 908.807 206.454C907.649 203.661 907.346 200.587 907.937 197.621C908.527 194.656 909.984 191.932 912.124 189.794C914.263 187.655 916.989 186.199 919.957 185.609C922.924 185.02 926 185.322 928.796 186.479C931.591 187.637 933.98 189.596 935.661 192.11C937.342 194.624 938.24 197.58 938.24 200.604C938.24 204.659 936.628 208.547 933.759 211.414C930.89 214.281 926.999 215.892 922.941 215.892Z" fill="url(#paint76_radial_16_45)"/>
<path style="mix-blend-mode:screen" d="M866.847 245.858C863.821 245.858 860.863 244.961 858.347 243.281C855.832 241.601 853.871 239.214 852.713 236.42C851.555 233.626 851.252 230.553 851.842 227.587C852.433 224.621 853.89 221.897 856.029 219.759C858.169 217.621 860.895 216.165 863.862 215.575C866.83 214.985 869.906 215.288 872.701 216.445C875.497 217.602 877.886 219.562 879.567 222.076C881.248 224.59 882.145 227.546 882.145 230.57C882.145 234.624 880.533 238.513 877.664 241.38C874.795 244.247 870.904 245.858 866.847 245.858Z" fill="url(#paint77_radial_16_45)"/>
<path style="mix-blend-mode:screen" d="M1378.5 278.116C1375.48 278.116 1372.52 277.219 1370 275.539C1367.49 273.859 1365.53 271.472 1364.37 268.678C1363.21 265.885 1362.91 262.811 1363.5 259.845C1364.09 256.879 1365.55 254.155 1367.69 252.017C1369.83 249.879 1372.55 248.423 1375.52 247.833C1378.49 247.243 1381.56 247.546 1384.36 248.703C1387.15 249.86 1389.54 251.82 1391.22 254.334C1392.91 256.848 1393.8 259.804 1393.8 262.828C1393.8 266.882 1392.19 270.771 1389.32 273.638C1386.45 276.505 1382.56 278.116 1378.5 278.116Z" fill="url(#paint78_radial_16_45)"/>
<path style="mix-blend-mode:screen" d="M1339.42 189.801C1336.39 189.801 1333.43 188.904 1330.92 187.224C1328.4 185.544 1326.44 183.156 1325.28 180.363C1324.12 177.569 1323.82 174.495 1324.41 171.53C1325 168.564 1326.46 165.84 1328.6 163.702C1330.74 161.564 1333.46 160.108 1336.43 159.518C1339.4 158.928 1342.48 159.231 1345.27 160.388C1348.07 161.545 1350.46 163.505 1352.14 166.019C1353.82 168.533 1354.72 171.489 1354.72 174.512C1354.72 178.567 1353.1 182.456 1350.23 185.323C1347.37 188.19 1343.47 189.801 1339.42 189.801Z" fill="radial-gradient(50% 50% at 50% 50.02%, #fff 0%, #ffdaa2 7%, #ff0e00 32%, #000 79%)"/>
<path style="mix-blend-mode:screen" d="M1242.53 490.47C1239.5 490.47 1236.54 489.573 1234.03 487.893C1231.51 486.213 1229.55 483.825 1228.39 481.032C1227.23 478.238 1226.93 475.164 1227.52 472.199C1228.11 469.233 1229.57 466.509 1231.71 464.371C1233.85 462.233 1236.57 460.777 1239.54 460.187C1242.51 459.597 1245.59 459.9 1248.38 461.057C1251.18 462.214 1253.57 464.174 1255.25 466.688C1256.93 469.202 1257.82 472.158 1257.82 475.181C1257.82 479.236 1256.21 483.125 1253.34 485.992C1250.48 488.859 1246.58 490.47 1242.53 490.47Z" fill="url(#paint80_radial_16_45)"/>
<defs>
<radialGradient id="paint0_radial_16_45" cx="0" cy="0" r="1" gradientUnits="userSpaceOnUse" gradientTransform="translate(1241.18 188.603) scale(70.016 69.9692)">
<stop stop-color="#EBEBEB"/>
<stop offset="1" stop-color="#EBEBEB" stop-opacity="0"/>
</radialGradient>
<radialGradient id="paint1_radial_16_45" cx="0" cy="0" r="1" gradientUnits="userSpaceOnUse" gradientTransform="translate(1157.82 125.564) scale(20.449 20.4353)">
<stop stop-color="#EBEBEB"/>
<stop offset="1" stop-color="#EBEBEB" stop-opacity="0"/>
</radialGradient>
<radialGradient id="paint2_radial_16_45" cx="0" cy="0" r="1" gradientUnits="userSpaceOnUse" gradientTransform="translate(1137.53 202.133) scale(9.33206 9.32583)">
<stop stop-color="#EBEBEB"/>
<stop offset="1" stop-color="#EBEBEB" stop-opacity="0"/>
</radialGradient>
<radialGradient id="paint3_radial_16_45" cx="0" cy="0" r="1" gradientUnits="userSpaceOnUse" gradientTransform="translate(909.263 131.266) rotate(55.9922) scale(34.4567 34.4654)">
<stop stop-color="#EBEBEB"/>
<stop offset="1" stop-color="#EBEBEB" stop-opacity="0"/>
</radialGradient>
<radialGradient id="paint4_radial_16_45" cx="0" cy="0" r="1" gradientUnits="userSpaceOnUse" gradientTransform="translate(912.077 79.9233) rotate(55.9923) scale(10.0669 10.0694)">
<stop stop-color="#EBEBEB"/>
<stop offset="1" stop-color="#EBEBEB" stop-opacity="0"/>
</radialGradient>
<radialGradient id="paint5_radial_16_45" cx="0" cy="0" r="1" gradientUnits="userSpaceOnUse" gradientTransform="translate(875.222 92.7096) rotate(55.9921) scale(4.58744 4.5886)">
<stop stop-color="#EBEBEB"/>
<stop offset="1" stop-color="#EBEBEB" stop-opacity="0"/>
</radialGradient>
<radialGradient id="paint6_radial_16_45" cx="0" cy="0" r="1" gradientUnits="userSpaceOnUse" gradientTransform="translate(310.868 104.181) rotate(170.516) scale(99.9992 99.936)">
<stop stop-color="#EBEBEB"/>
<stop offset="1" stop-color="#EBEBEB" stop-opacity="0"/>
</radialGradient>
<radialGradient id="paint7_radial_16_45" cx="0" cy="0" r="1" gradientUnits="userSpaceOnUse" gradientTransform="translate(443.172 173.403) rotate(170.516) scale(29.1941 29.1756)">
<stop stop-color="#EBEBEB"/>
<stop offset="1" stop-color="#EBEBEB" stop-opacity="0"/>
</radialGradient>
<radialGradient id="paint8_radial_16_45" cx="0" cy="0" r="1" gradientUnits="userSpaceOnUse" gradientTransform="translate(453.698 60.765) rotate(170.516) scale(13.3349 13.3265)">
<stop stop-color="#EBEBEB"/>
<stop offset="1" stop-color="#EBEBEB" stop-opacity="0"/>
</radialGradient>
<radialGradient id="paint9_radial_16_45" cx="0" cy="0" r="1" gradientUnits="userSpaceOnUse" gradientTransform="translate(1101.1 654.494) rotate(-54.3773) scale(55.732 55.744)">
<stop stop-color="#EBEBEB"/>
<stop offset="1" stop-color="#EBEBEB" stop-opacity="0"/>
</radialGradient>
<radialGradient id="paint10_radial_16_45" cx="0" cy="0" r="1" gradientUnits="userSpaceOnUse" gradientTransform="translate(1021.59 679.212) rotate(-54.3773) scale(16.2753 16.2788)">
<stop stop-color="#EBEBEB"/>
<stop offset="1" stop-color="#EBEBEB" stop-opacity="0"/>
</radialGradient>
<radialGradient id="paint11_radial_16_45" cx="0" cy="0" r="1" gradientUnits="userSpaceOnUse" gradientTransform="translate(1061.79 727.837) rotate(-54.3774) scale(7.43939 7.44099)">
<stop stop-color="#EBEBEB"/>
<stop offset="1" stop-color="#EBEBEB" stop-opacity="0"/>
</radialGradient>
<radialGradient id="paint12_radial_16_45" cx="0" cy="0" r="1" gradientUnits="userSpaceOnUse" gradientTransform="translate(1349.98 530.321) rotate(91.1465) scale(11.3665 11.3742)">
<stop stop-color="#EBEBEB"/>
<stop offset="1" stop-color="#EBEBEB" stop-opacity="0"/>
</radialGradient>
<radialGradient id="paint13_radial_16_45" cx="0" cy="0" r="1" gradientUnits="userSpaceOnUse" gradientTransform="translate(1386.45 501.099) rotate(91.1465) scale(12.6918 12.7003)">
<stop stop-color="#EBEBEB"/>
<stop offset="1" stop-color="#EBEBEB" stop-opacity="0"/>
</radialGradient>
<radialGradient id="paint14_radial_16_45" cx="0" cy="0" r="1" gradientUnits="userSpaceOnUse" gradientTransform="translate(1339.1 487.535) rotate(91.1465) scale(5.81069 5.81458)">
<stop stop-color="#EBEBEB"/>
<stop offset="1" stop-color="#EBEBEB" stop-opacity="0"/>
</radialGradient>
<radialGradient id="paint15_radial_16_45" cx="0" cy="0" r="1" gradientUnits="userSpaceOnUse" gradientTransform="translate(1365.33 478.092) rotate(91.1465) scale(11.3665 11.3742)">
<stop stop-color="#EBEBEB"/>
<stop offset="1" stop-color="#EBEBEB" stop-opacity="0"/>
</radialGradient>
<radialGradient id="paint16_radial_16_45" cx="0" cy="0" r="1" gradientUnits="userSpaceOnUse" gradientTransform="translate(1401.78 448.844) rotate(91.1465) scale(12.6918 12.7003)">
<stop stop-color="#EBEBEB"/>
<stop offset="1" stop-color="#EBEBEB" stop-opacity="0"/>
</radialGradient>
<radialGradient id="paint17_radial_16_45" cx="0" cy="0" r="1" gradientUnits="userSpaceOnUse" gradientTransform="translate(1354.43 435.305) rotate(91.1465) scale(5.81069 5.81458)">
<stop stop-color="#EBEBEB"/>
<stop offset="1" stop-color="#EBEBEB" stop-opacity="0"/>
</radialGradient>
<radialGradient id="paint18_radial_16_45" cx="0" cy="0" r="1" gradientUnits="userSpaceOnUse" gradientTransform="translate(1387.47 574.915) rotate(91.1465) scale(11.3665 11.3742)">
<stop stop-color="#EBEBEB"/>
<stop offset="1" stop-color="#EBEBEB" stop-opacity="0"/>
</radialGradient>
<radialGradient id="paint19_radial_16_45" cx="0" cy="0" r="1" gradientUnits="userSpaceOnUse" gradientTransform="translate(1423.95 545.667) rotate(91.1465) scale(12.6918 12.7003)">
<stop stop-color="#EBEBEB"/>
<stop offset="1" stop-color="#EBEBEB" stop-opacity="0"/>
</radialGradient>
<radialGradient id="paint20_radial_16_45" cx="0" cy="0" r="1" gradientUnits="userSpaceOnUse" gradientTransform="translate(1376.59 532.128) rotate(91.1465) scale(5.81069 5.81458)">
<stop stop-color="#EBEBEB"/>
<stop offset="1" stop-color="#EBEBEB" stop-opacity="0"/>
</radialGradient>
<radialGradient id="paint21_radial_16_45" cx="0" cy="0" r="1" gradientUnits="userSpaceOnUse" gradientTransform="translate(1293.1 600.329) rotate(91.1465) scale(11.3665 11.3742)">
<stop stop-color="#EBEBEB"/>
<stop offset="1" stop-color="#EBEBEB" stop-opacity="0"/>
</radialGradient>
<radialGradient id="paint22_radial_16_45" cx="0" cy="0" r="1" gradientUnits="userSpaceOnUse" gradientTransform="translate(1329.57 571.106) rotate(91.1465) scale(12.6918 12.7003)">
<stop stop-color="#EBEBEB"/>
<stop offset="1" stop-color="#EBEBEB" stop-opacity="0"/>
</radialGradient>
<radialGradient id="paint23_radial_16_45" cx="0" cy="0" r="1" gradientUnits="userSpaceOnUse" gradientTransform="translate(1282.22 557.542) rotate(91.1465) scale(5.81069 5.81458)">
<stop stop-color="#EBEBEB"/>
<stop offset="1" stop-color="#EBEBEB" stop-opacity="0"/>
</radialGradient>
<radialGradient id="paint24_radial_16_45" cx="0" cy="0" r="1" gradientUnits="userSpaceOnUse" gradientTransform="translate(1203.9 530.206) rotate(91.1465) scale(11.3665 11.3742)">
<stop stop-color="#EBEBEB"/>
<stop offset="1" stop-color="#EBEBEB" stop-opacity="0"/>
</radialGradient>
<radialGradient id="paint25_radial_16_45" cx="0" cy="0" r="1" gradientUnits="userSpaceOnUse" gradientTransform="translate(1240.34 500.957) rotate(91.1465) scale(12.6918 12.7003)">
<stop stop-color="#EBEBEB"/>
<stop offset="1" stop-color="#EBEBEB" stop-opacity="0"/>
</radialGradient>
<radialGradient id="paint26_radial_16_45" cx="0" cy="0" r="1" gradientUnits="userSpaceOnUse" gradientTransform="translate(1192.99 487.418) rotate(91.1465) scale(5.81069 5.81458)">
<stop stop-color="#EBEBEB"/>
<stop offset="1" stop-color="#EBEBEB" stop-opacity="0"/>
</radialGradient>
<radialGradient id="paint27_radial_16_45" cx="0" cy="0" r="1" gradientUnits="userSpaceOnUse" gradientTransform="translate(1448.74 503.593) rotate(91.1465) scale(11.3665 11.3742)">
<stop stop-color="#EBEBEB"/>
<stop offset="1" stop-color="#EBEBEB" stop-opacity="0"/>
</radialGradient>
<radialGradient id="paint28_radial_16_45" cx="0" cy="0" r="1" gradientUnits="userSpaceOnUse" gradientTransform="translate(1485.19 474.345) rotate(91.1465) scale(12.6918 12.7003)">
<stop stop-color="#EBEBEB"/>
<stop offset="1" stop-color="#EBEBEB" stop-opacity="0"/>
</radialGradient>
<radialGradient id="paint29_radial_16_45" cx="0" cy="0" r="1" gradientUnits="userSpaceOnUse" gradientTransform="translate(1437.84 460.806) rotate(91.1465) scale(5.81069 5.81458)">
<stop stop-color="#EBEBEB"/>
<stop offset="1" stop-color="#EBEBEB" stop-opacity="0"/>
</radialGradient>
<radialGradient id="paint30_radial_16_45" cx="0" cy="0" r="1" gradientUnits="userSpaceOnUse" gradientTransform="translate(1636.23 444.6) rotate(-43.8709) scale(77.6913 77.6892)">
<stop stop-color="#EBEBEB"/>
<stop offset="1" stop-color="#EBEBEB" stop-opacity="0"/>
</radialGradient>
<radialGradient id="paint31_radial_16_45" cx="0" cy="0" r="1" gradientUnits="userSpaceOnUse" gradientTransform="translate(1520.98 458.263) rotate(-43.8709) scale(22.6854 22.6848)">
<stop stop-color="#EBEBEB"/>
<stop offset="1" stop-color="#EBEBEB" stop-opacity="0"/>
</radialGradient>
<radialGradient id="paint32_radial_16_45" cx="0" cy="0" r="1" gradientUnits="userSpaceOnUse" gradientTransform="translate(1563.73 535.12) rotate(-43.8709) scale(10.3741 10.3739)">
<stop stop-color="#EBEBEB"/>
<stop offset="1" stop-color="#EBEBEB" stop-opacity="0"/>
</radialGradient>
<radialGradient id="paint33_radial_16_45" cx="0" cy="0" r="1" gradientUnits="userSpaceOnUse" gradientTransform="translate(160.654 608.999) rotate(-153.975) scale(20.4718 20.4634)">
<stop stop-color="#EBEBEB"/>
<stop offset="1" stop-color="#EBEBEB" stop-opacity="0"/>
</radialGradient>
<radialGradient id="paint34_radial_16_45" cx="0" cy="0" r="1" gradientUnits="userSpaceOnUse" gradientTransform="translate(174.451 636.268) rotate(-153.975) scale(5.99113 5.98867)">
<stop stop-color="#EBEBEB"/>
<stop offset="1" stop-color="#EBEBEB" stop-opacity="0"/>
</radialGradient>
<radialGradient id="paint35_radial_16_45" cx="0" cy="0" r="1" gradientUnits="userSpaceOnUse" gradientTransform="translate(189.628 618.75) rotate(-153.975) scale(2.72788 2.72674)">
<stop stop-color="#EBEBEB"/>
<stop offset="1" stop-color="#EBEBEB" stop-opacity="0"/>
</radialGradient>
<radialGradient id="paint36_radial_16_45" cx="0" cy="0" r="1" gradientUnits="userSpaceOnUse" gradientTransform="translate(254.333 645.595) rotate(-70.8381) scale(20.4622 20.473)">
<stop stop-color="#EBEBEB"/>
<stop offset="1" stop-color="#EBEBEB" stop-opacity="0"/>
</radialGradient>
<radialGradient id="paint37_radial_16_45" cx="0" cy="0" r="1" gradientUnits="userSpaceOnUse" gradientTransform="translate(228.898 662.555) rotate(-70.8381) scale(5.98833 5.99148)">
<stop stop-color="#EBEBEB"/>
<stop offset="1" stop-color="#EBEBEB" stop-opacity="0"/>
</radialGradient>
<radialGradient id="paint38_radial_16_45" cx="0" cy="0" r="1" gradientUnits="userSpaceOnUse" gradientTransform="translate(248.121 675.51) rotate(-70.8379) scale(2.72658 2.72804)">
<stop stop-color="#EBEBEB"/>
<stop offset="1" stop-color="#EBEBEB" stop-opacity="0"/>
</radialGradient>
<radialGradient id="paint39_radial_16_45" cx="0" cy="0" r="1" gradientUnits="userSpaceOnUse" gradientTransform="translate(185.89 680.995) rotate(-70.8381) scale(20.4622 20.473)">
<stop stop-color="#EBEBEB"/>
<stop offset="1" stop-color="#EBEBEB" stop-opacity="0"/>
</radialGradient>
<radialGradient id="paint40_radial_16_45" cx="0" cy="0" r="1" gradientUnits="userSpaceOnUse" gradientTransform="translate(160.455 697.955) rotate(-70.8381) scale(5.98833 5.99147)">
<stop stop-color="#EBEBEB"/>
<stop offset="1" stop-color="#EBEBEB" stop-opacity="0"/>
</radialGradient>
<radialGradient id="paint41_radial_16_45" cx="0" cy="0" r="1" gradientUnits="userSpaceOnUse" gradientTransform="translate(179.679 710.911) rotate(-70.838) scale(2.72659 2.72803)">
<stop stop-color="#EBEBEB"/>
<stop offset="1" stop-color="#EBEBEB" stop-opacity="0"/>
</radialGradient>
<radialGradient id="paint42_radial_16_45" cx="0" cy="0" r="1" gradientUnits="userSpaceOnUse" gradientTransform="translate(107.489 716.251) rotate(127.078) scale(17.7387 17.7419)">
<stop stop-color="#EBEBEB"/>
<stop offset="1" stop-color="#EBEBEB" stop-opacity="0"/>
</radialGradient>
<radialGradient id="paint43_radial_16_45" cx="0" cy="0" r="1" gradientUnits="userSpaceOnUse" gradientTransform="translate(132.985 709.023) rotate(127.079) scale(5.17377 5.17472)">
<stop stop-color="#EBEBEB"/>
<stop offset="1" stop-color="#EBEBEB" stop-opacity="0"/>
</radialGradient>
<radialGradient id="paint44_radial_16_45" cx="0" cy="0" r="1" gradientUnits="userSpaceOnUse" gradientTransform="translate(120.605 693.23) rotate(127.078) scale(2.37026 2.37069)">
<stop stop-color="#EBEBEB"/>
<stop offset="1" stop-color="#EBEBEB" stop-opacity="0"/>
</radialGradient>
<radialGradient id="paint45_radial_16_45" cx="0" cy="0" r="1" gradientUnits="userSpaceOnUse" gradientTransform="translate(209.165 397.498) rotate(174.214) scale(141.688 141.596)">
<stop stop-color="#EBEBEB"/>
<stop offset="1" stop-color="#EBEBEB" stop-opacity="0"/>
</radialGradient>
<radialGradient id="paint46_radial_16_45" cx="0" cy="0" r="1" gradientUnits="userSpaceOnUse" gradientTransform="translate(389.875 507.421) rotate(174.214) scale(41.3821 41.355)">
<stop stop-color="#EBEBEB"/>
<stop offset="1" stop-color="#EBEBEB" stop-opacity="0"/>
</radialGradient>
<radialGradient id="paint47_radial_16_45" cx="0" cy="0" r="1" gradientUnits="userSpaceOnUse" gradientTransform="translate(415.079 349.177) rotate(174.214) scale(18.919 18.9066)">
<stop stop-color="#EBEBEB"/>
<stop offset="1" stop-color="#EBEBEB" stop-opacity="0"/>
</radialGradient>
<radialGradient id="paint48_radial_16_45" cx="0" cy="0" r="1" gradientUnits="userSpaceOnUse" gradientTransform="translate(985.13 243.819) rotate(90) scale(71.3451 71.3929)">
<stop stop-color="white"/>
<stop offset="0.07" stop-color="#FFDAA2"/>
<stop offset="0.32" stop-color="#FF0E00"/>
<stop offset="0.79"/>
</radialGradient>
<radialGradient id="paint49_radial_16_45" cx="0" cy="0" r="1" gradientUnits="userSpaceOnUse" gradientTransform="translate(1295.41 399.836) rotate(90) scale(71.3451 71.3929)">
<stop stop-color="white"/>
<stop offset="0.07" stop-color="#FFDAA2"/>
<stop offset="0.32" stop-color="#FF0E00"/>
<stop offset="0.79"/>
</radialGradient>
<radialGradient id="paint50_radial_16_45" cx="0" cy="0" r="1" gradientUnits="userSpaceOnUse" gradientTransform="translate(457.868 613.846) rotate(90) scale(39.0615 39.0876)">
<stop stop-color="white"/>
<stop offset="0.07" stop-color="#FFDAA2"/>
<stop offset="0.32" stop-color="#FF0E00"/>
<stop offset="0.79"/>
</radialGradient>
<radialGradient id="paint51_radial_16_45" cx="0" cy="0" r="1" gradientUnits="userSpaceOnUse" gradientTransform="translate(18.9032 163.301) rotate(90) scale(18.6771 18.6896)">
<stop stop-color="white"/>
<stop offset="0.07" stop-color="#FFDAA2"/>
<stop offset="0.32" stop-color="#FF0E00"/>
<stop offset="0.79"/>
</radialGradient>
<radialGradient id="paint52_radial_16_45" cx="0" cy="0" r="1" gradientUnits="userSpaceOnUse" gradientTransform="translate(238.181 278.804) rotate(90) scale(15.2882 15.2985)">
<stop stop-color="white"/>
<stop offset="0.07" stop-color="#FFDAA2"/>
<stop offset="0.32" stop-color="#FF0E00"/>
<stop offset="0.79"/>
</radialGradient>
<radialGradient id="paint53_radial_16_45" cx="0" cy="0" r="1" gradientUnits="userSpaceOnUse" gradientTransform="translate(182.087 312.795) rotate(90) scale(15.2882 15.2985)">
<stop stop-color="white"/>
<stop offset="0.07" stop-color="#FFDAA2"/>
<stop offset="0.32" stop-color="#FF0E00"/>
<stop offset="0.79"/>
</radialGradient>
<radialGradient id="paint54_radial_16_45" cx="0" cy="0" r="1" gradientUnits="userSpaceOnUse" gradientTransform="translate(878.754 543.137) rotate(90) scale(15.2882 15.2985)">
<stop stop-color="white"/>
<stop offset="0.07" stop-color="#FFDAA2"/>
<stop offset="0.32" stop-color="#FF0E00"/>
<stop offset="0.79"/>
</radialGradient>
<radialGradient id="paint55_radial_16_45" cx="0" cy="0" r="1" gradientUnits="userSpaceOnUse" gradientTransform="translate(1405.71 675.636) rotate(90) scale(15.2882 15.2985)">
<stop stop-color="white"/>
<stop offset="0.07" stop-color="#FFDAA2"/>
<stop offset="0.32" stop-color="#FF0E00"/>
<stop offset="0.79"/>
</radialGradient>
<radialGradient id="paint56_radial_16_45" cx="0" cy="0" r="1" gradientUnits="userSpaceOnUse" gradientTransform="translate(822.66 577.128) rotate(90) scale(15.2882 15.2985)">
<stop stop-color="white"/>
<stop offset="0.07" stop-color="#FFDAA2"/>
<stop offset="0.32" stop-color="#FF0E00"/>
<stop offset="0.79"/>
</radialGradient>
<radialGradient id="paint57_radial_16_45" cx="0" cy="0" r="1" gradientUnits="userSpaceOnUse" gradientTransform="translate(401.11 658.666) rotate(90) scale(15.2882 15.2985)">
<stop stop-color="white"/>
<stop offset="0.07" stop-color="#FFDAA2"/>
<stop offset="0.32" stop-color="#FF0E00"/>
<stop offset="0.79"/>
</radialGradient>
<radialGradient id="paint58_radial_16_45" cx="0" cy="0" r="1" gradientUnits="userSpaceOnUse" gradientTransform="translate(780.155 483.692) rotate(90) scale(15.2882 15.2985)">
<stop stop-color="white"/>
<stop offset="0.07" stop-color="#FFDAA2"/>
<stop offset="0.32" stop-color="#FF0E00"/>
<stop offset="0.79"/>
</radialGradient>
<radialGradient id="paint59_radial_16_45" cx="0" cy="0" r="1" gradientUnits="userSpaceOnUse" gradientTransform="translate(144.427 184.73) rotate(90) scale(39.0615 39.0876)">
<stop stop-color="white"/>
<stop offset="0.07" stop-color="#FFDAA2"/>
<stop offset="0.32" stop-color="#FF0E00"/>
<stop offset="0.79"/>
</radialGradient>
<radialGradient id="paint60_radial_16_45" cx="0" cy="0" r="1" gradientUnits="userSpaceOnUse" gradientTransform="translate(882.426 445.293) rotate(90) scale(33.9654 33.9881)">
<stop stop-color="white"/>
<stop offset="0.07" stop-color="#FFDAA2"/>
<stop offset="0.32" stop-color="#FF0E00"/>
<stop offset="0.79"/>
</radialGradient>
<radialGradient id="paint61_radial_16_45" cx="0" cy="0" r="1" gradientUnits="userSpaceOnUse" gradientTransform="translate(553.483 48.2316) rotate(90) scale(47.5464 47.5783)">
<stop stop-color="white"/>
<stop offset="0.07" stop-color="#FFDAA2"/>
<stop offset="0.32" stop-color="#FF0E00"/>
<stop offset="0.79"/>
</radialGradient>
<radialGradient id="paint62_radial_16_45" cx="0" cy="0" r="1" gradientUnits="userSpaceOnUse" gradientTransform="translate(358.427 560.337) rotate(90) scale(31.9524 31.9738)">
<stop stop-color="white"/>
<stop offset="0.07" stop-color="#FFDAA2"/>
<stop offset="0.32" stop-color="#FF0E00"/>
<stop offset="0.79"/>
</radialGradient>
<radialGradient id="paint63_radial_16_45" cx="0" cy="0" r="1" gradientUnits="userSpaceOnUse" gradientTransform="translate(1102.95 319.139) rotate(90) scale(48.5147 48.5472)">
<stop stop-color="white"/>
<stop offset="0.07" stop-color="#FFDAA2"/>
<stop offset="0.32" stop-color="#FF0E00"/>
<stop offset="0.79"/>
</radialGradient>
<radialGradient id="paint64_radial_16_45" cx="0" cy="0" r="1" gradientUnits="userSpaceOnUse" gradientTransform="translate(1267.85 66.0169) rotate(90) scale(48.5147 48.5472)">
<stop stop-color="white"/>
<stop offset="0.07" stop-color="#FFDAA2"/>
<stop offset="0.32" stop-color="#FF0E00"/>
<stop offset="0.79"/>
</radialGradient>
<radialGradient id="paint65_radial_16_45" cx="0" cy="0" r="1" gradientUnits="userSpaceOnUse" gradientTransform="translate(388.591 726.393) rotate(90) scale(48.5147 48.5472)">
<stop stop-color="white"/>
<stop offset="0.07" stop-color="#FFDAA2"/>
<stop offset="0.32" stop-color="#FF0E00"/>
<stop offset="0.79"/>
</radialGradient>
<radialGradient id="paint66_radial_16_45" cx="0" cy="0" r="1" gradientUnits="userSpaceOnUse" gradientTransform="translate(851.778 659.71) rotate(90) scale(48.5147 48.5472)">
<stop stop-color="white"/>
<stop offset="0.07" stop-color="#FFDAA2"/>
<stop offset="0.32" stop-color="#FF0E00"/>
<stop offset="0.79"/>
</radialGradient>
<radialGradient id="paint67_radial_16_45" cx="0" cy="0" r="1" gradientUnits="userSpaceOnUse" gradientTransform="translate(710.292 396.014) rotate(90) scale(48.5147 48.5472)">
<stop stop-color="white"/>
<stop offset="0.07" stop-color="#FFDAA2"/>
<stop offset="0.32" stop-color="#FF0E00"/>
<stop offset="0.79"/>
</radialGradient>
<radialGradient id="paint68_radial_16_45" cx="0" cy="0" r="1" gradientUnits="userSpaceOnUse" gradientTransform="translate(1119.5 418.946) rotate(90) scale(48.5147 48.5472)">
<stop stop-color="white"/>
<stop offset="0.07" stop-color="#FFDAA2"/>
<stop offset="0.32" stop-color="#FF0E00"/>
<stop offset="0.79"/>
</radialGradient>
<radialGradient id="paint69_radial_16_45" cx="0" cy="0" r="1" gradientUnits="userSpaceOnUse" gradientTransform="translate(1521.06 147.58) rotate(90) scale(48.5147 48.5472)">
<stop stop-color="white"/>
<stop offset="0.07" stop-color="#FFDAA2"/>
<stop offset="0.32" stop-color="#FF0E00"/>
<stop offset="0.79"/>
</radialGradient>
<radialGradient id="paint70_radial_16_45" cx="0" cy="0" r="1" gradientUnits="userSpaceOnUse" gradientTransform="translate(1456.04 709.397) rotate(90) scale(59.6496 59.6896)">
<stop stop-color="white"/>
<stop offset="0.07" stop-color="#FFDAA2"/>
<stop offset="0.32" stop-color="#FF0E00"/>
<stop offset="0.79"/>
</radialGradient>
<radialGradient id="paint71_radial_16_45" cx="0" cy="0" r="1" gradientUnits="userSpaceOnUse" gradientTransform="translate(1345.13 674.999) rotate(90) scale(31.6721 31.6933)">
<stop stop-color="white"/>
<stop offset="0.07" stop-color="#FFDAA2"/>
<stop offset="0.32" stop-color="#FF0E00"/>
<stop offset="0.79"/>
</radialGradient>
<radialGradient id="paint72_radial_16_45" cx="0" cy="0" r="1" gradientUnits="userSpaceOnUse" gradientTransform="translate(1365.17 317.024) rotate(90) scale(27.1621 27.1803)">
<stop stop-color="white"/>
<stop offset="0.07" stop-color="#FFDAA2"/>
<stop offset="0.32" stop-color="#FF0E00"/>
<stop offset="0.79"/>
</radialGradient>
<radialGradient id="paint73_radial_16_45" cx="0" cy="0" r="1" gradientUnits="userSpaceOnUse" gradientTransform="translate(1309.07 351.015) rotate(90) scale(15.2882 15.2985)">
<stop stop-color="white"/>
<stop offset="0.07" stop-color="#FFDAA2"/>
<stop offset="0.32" stop-color="#FF0E00"/>
<stop offset="0.79"/>
</radialGradient>
<radialGradient id="paint74_radial_16_45" cx="0" cy="0" r="1" gradientUnits="userSpaceOnUse" gradientTransform="translate(1240.82 157.542) rotate(90) scale(15.2882 15.2985)">
<stop stop-color="white"/>
<stop offset="0.07" stop-color="#FFDAA2"/>
<stop offset="0.32" stop-color="#FF0E00"/>
<stop offset="0.79"/>
</radialGradient>
<radialGradient id="paint75_radial_16_45" cx="0" cy="0" r="1" gradientUnits="userSpaceOnUse" gradientTransform="translate(1220.42 279.848) rotate(90) scale(37.3288 37.3538)">
<stop stop-color="white"/>
<stop offset="0.07" stop-color="#FFDAA2"/>
<stop offset="0.32" stop-color="#FF0E00"/>
<stop offset="0.79"/>
</radialGradient>
<radialGradient id="paint76_radial_16_45" cx="0" cy="0" r="1" gradientUnits="userSpaceOnUse" gradientTransform="translate(922.941 200.604) rotate(90) scale(15.2882 15.2985)">
<stop stop-color="white"/>
<stop offset="0.07" stop-color="#FFDAA2"/>
<stop offset="0.32" stop-color="#FF0E00"/>
<stop offset="0.79"/>
</radialGradient>
<radialGradient id="paint77_radial_16_45" cx="0" cy="0" r="1" gradientUnits="userSpaceOnUse" gradientTransform="translate(866.847 230.595) rotate(90) scale(15.2882 15.2985)">
<stop stop-color="white"/>
<stop offset="0.07" stop-color="#FFDAA2"/>
<stop offset="0.32" stop-color="#FF0E00"/>
<stop offset="0.79"/>
</radialGradient>
<radialGradient id="paint78_radial_16_45" cx="0" cy="0" r="1" gradientUnits="userSpaceOnUse" gradientTransform="translate(1378.5 262.853) rotate(90) scale(15.2882 15.2985)">
<stop stop-color="white"/>
<stop offset="0.07" stop-color="#FFDAA2"/>
<stop offset="0.32" stop-color="#FF0E00"/>
<stop offset="0.79"/>
</radialGradient>
<radialGradient id="paint79_radial_16_45" cx="0" cy="0" r="1" gradientUnits="userSpaceOnUse" gradientTransform="translate(1339.42 174.512) rotate(90) scale(15.2882 15.2985)">
<stop stop-color="white"/>
<stop offset="0.07" stop-color="#FFDAA2"/>
<stop offset="0.32" stop-color="#FF0E00"/>
<stop offset="0.79"/>
</radialGradient>
<radialGradient id="paint80_radial_16_45" cx="0" cy="0" r="1" gradientUnits="userSpaceOnUse" gradientTransform="translate(1242.53 475.181) rotate(90) scale(15.2882 15.2985)">
<stop stop-color="white"/>
<stop offset="0.07" stop-color="#FFDAA2"/>
<stop offset="0.32" stop-color="#FF0E00"/>
<stop offset="0.79"/>
</radialGradient>
</defs>
</svg>
