<svg width="176" height="176" viewBox="0 0 176 176" fill="none" xmlns="http://www.w3.org/2000/svg">
<circle cx="87.5315" cy="87.5315" r="87.1953" stroke="#EEEEEE" stroke-width="0.672506"/>
<circle cx="87.5316" cy="87.5315" r="55.8671" stroke="#EEEEEE" stroke-width="0.672506"/>
<rect x="72.8884" y="63.2497" width="29.6337" height="46.7856" rx="14.7913" stroke="white" stroke-width="1.34501"/>
<path class="star" d="M26.4355 45.9536L27.9955 50.3402L32.2003 48.3415L30.2015 52.5463L34.5881 54.1062L30.2015 55.6662L32.2003 59.871L27.9955 57.8723L26.4355 62.2589L24.8756 57.8723L20.6707 59.871L22.6695 55.6662L18.2829 54.1062L22.6695 52.5463L20.6707 48.3415L24.8756 50.3402L26.4355 45.9536Z" fill="#919191"/>
<path class="star" d="M147.051 114.877L148.611 119.264L152.816 117.265L150.817 121.47L155.204 123.03L150.817 124.59L152.816 128.794L148.611 126.796L147.051 131.182L145.491 126.796L141.287 128.794L143.285 124.59L138.899 123.03L143.285 121.47L141.287 117.265L145.491 119.264L147.051 114.877Z" fill="#919191"/>
</svg>
