<svg width="18" height="15" viewBox="0 0 18 15" fill="none" xmlns="http://www.w3.org/2000/svg">
<path d="M17.68 1.99968C17.0299 2.28193 16.3421 2.46788 15.6384 2.55166C16.378 2.11887 16.9342 1.4313 17.2027 0.617917C16.5034 1.02652 15.7396 1.31322 14.9441 1.46573C14.6091 1.11489 14.2062 0.835789 13.7599 0.645388C13.3136 0.454987 12.8332 0.357264 12.3479 0.35816C10.3832 0.35816 8.79321 1.92391 8.79321 3.85405C8.79182 4.12252 8.82261 4.3902 8.88491 4.65136C7.47606 4.58536 6.0965 4.22622 4.8345 3.59691C3.57251 2.9676 2.45585 2.08199 1.55599 0.996728C1.2403 1.52855 1.07334 2.13534 1.07257 2.75369C1.07257 3.96589 1.70546 5.03738 2.66111 5.66513C2.09491 5.6517 1.54032 5.50195 1.04441 5.22859V5.27188C1.04441 6.96752 2.27192 8.37814 3.89655 8.69923C3.59104 8.78061 3.27622 8.82185 2.96004 8.82189C2.73569 8.82228 2.51184 8.80053 2.29177 8.75695C2.74342 10.1459 4.05793 11.1561 5.61506 11.185C4.34978 12.1594 2.79636 12.686 1.19893 12.6822C0.915385 12.6817 0.632101 12.6649 0.35051 12.6316C1.97557 13.6686 3.86458 14.2171 5.79269 14.2118C12.3403 14.2118 15.9174 8.88322 15.9174 4.26172C15.9174 4.1102 15.9135 3.95867 15.9062 3.81076C16.6005 3.31724 17.2012 2.70394 17.68 1.99968Z" fill="#030211"/>
</svg>
