<svg width="87" height="87" viewBox="0 0 87 87" fill="none" xmlns="http://www.w3.org/2000/svg">
<mask id="path-1-inside-1_436_3" fill="white">
<path d="M73.4258 72.2081C66.6542 80.1991 57.1076 85.3293 46.7067 86.5667C36.3057 87.8042 25.822 85.057 17.3645 78.8779C8.90697 72.6988 3.10313 63.5461 1.12049 53.2612C-0.862156 42.9762 1.1235 32.322 6.67803 23.4418L7.33129 23.8504C1.88005 32.5655 -0.0686935 43.0216 1.87708 53.1153C3.82286 63.2091 9.51878 72.1915 17.8191 78.2557C26.1193 84.3199 36.4081 87.016 46.6157 85.8016C56.8232 84.5872 66.1922 79.5524 72.838 71.71L73.4258 72.2081Z"/>
</mask>
<path d="M73.4258 72.2081C66.6542 80.1991 57.1076 85.3293 46.7067 86.5667C36.3057 87.8042 25.822 85.057 17.3645 78.8779C8.90697 72.6988 3.10313 63.5461 1.12049 53.2612C-0.862156 42.9762 1.1235 32.322 6.67803 23.4418L7.33129 23.8504C1.88005 32.5655 -0.0686935 43.0216 1.87708 53.1153C3.82286 63.2091 9.51878 72.1915 17.8191 78.2557C26.1193 84.3199 36.4081 87.016 46.6157 85.8016C56.8232 84.5872 66.1922 79.5524 72.838 71.71L73.4258 72.2081Z" fill="#030211" stroke="white" stroke-width="2" mask="url(#path-1-inside-1_436_3)"/>
<path d="M20.4214 18.4755C20.0687 18.7576 19.716 18.7576 19.3632 18.546L10.757 13.7491C10.4748 13.608 10.3337 13.3964 10.3337 13.1847C10.3337 12.9731 10.4748 12.7615 10.6865 12.6204C10.8981 12.4793 11.0392 12.4088 11.1803 12.4088C11.3213 12.4088 11.533 12.4793 11.6741 12.5498L19.2927 16.853L17.1764 8.38781C17.1059 8.17618 17.1059 8.03509 17.1764 7.82346C17.247 7.61183 17.3175 7.54129 17.5291 7.40021C17.7408 7.25912 17.9524 7.18858 18.164 7.25912C18.3756 7.32966 18.5167 7.54129 18.5873 7.82346L20.7741 17.4879C20.8446 17.6995 20.8446 17.9111 20.7741 18.0522C20.7036 18.1933 20.5625 18.3344 20.4214 18.4755Z" fill="white"/>
<path d="M26.0649 15.0182C25.5711 15.2299 25.2889 15.0888 25.0067 14.6655L21.0563 6.48252C20.8447 5.98872 20.9152 5.63601 21.409 5.42438C21.9028 5.21275 22.185 5.35383 22.4672 5.77709L26.4176 13.9601C26.6292 14.4539 26.5587 14.8066 26.0649 15.0182Z" fill="white"/>
<path d="M29.3098 13.3964C28.7455 13.5375 28.4633 13.3964 28.2517 12.832L25.7827 4.36687C25.6416 3.80253 25.7827 3.52035 26.347 3.30872L31.5672 1.82732C31.9905 1.68624 32.2021 1.82732 32.3432 2.25058C32.4843 2.67384 32.3432 2.95601 31.9199 3.02655L27.3346 4.36687L28.2517 7.5413L32.4843 6.27153C32.9075 6.13045 33.1192 6.27153 33.2603 6.69479C33.4013 7.11805 33.2603 7.32968 32.837 7.47076L28.6044 8.74054L29.592 12.0561L34.1773 10.7157C34.6006 10.5747 34.8122 10.7157 34.9533 11.139C35.0944 11.5623 34.9533 11.7739 34.53 11.915L29.3098 13.3964Z" fill="white"/>
<path d="M39.6091 11.3507C39.1859 11.3507 38.9037 11.0685 38.7626 10.6453L36.0114 1.40413C35.9409 1.12196 35.9409 0.910332 36.082 0.769246C36.2231 0.62816 36.4347 0.557617 36.7169 0.557617C36.9285 0.557617 37.0696 0.62816 37.2107 0.698703C37.3517 0.769246 37.4223 0.980875 37.4928 1.1925L39.7502 9.02278L42.7836 1.47468C42.9952 1.05142 43.2774 0.839789 43.6301 0.839789C43.8417 0.839789 43.9828 0.910332 44.0533 1.05142C44.1944 1.1925 44.265 1.33359 44.3355 1.54522L46.5929 9.44604L49.6968 1.82739C49.7673 1.61576 49.9084 1.47468 49.9789 1.40413C50.12 1.26305 50.2611 1.26305 50.4727 1.26305C50.7549 1.26305 50.896 1.40413 51.0371 1.54522C51.1782 1.75685 51.1782 1.96848 51.0371 2.18011L47.3689 11.1391C47.2983 11.3507 47.1572 11.4918 47.0161 11.6329C46.875 11.7034 46.734 11.774 46.5223 11.774C46.3107 11.774 46.0991 11.7034 46.0285 11.5623C45.958 11.4212 45.8169 11.2802 45.7464 11.0685L43.489 3.30879L40.4556 10.7864C40.3851 10.998 40.244 11.1391 40.1029 11.2802C39.9618 11.3507 39.8207 11.3507 39.6091 11.3507Z" fill="white"/>
<path d="M55.5518 14.4553C55.1285 14.1731 54.9874 13.8204 55.2696 13.3972L59.5727 5.49636C59.8549 5.0731 60.2076 4.93201 60.6309 5.21419L63.8053 6.90722C64.7929 7.47156 65.4278 8.10645 65.71 8.88242C65.9921 9.6584 65.8511 10.5049 65.3573 11.3514C64.8635 12.2685 64.2286 12.7623 63.3821 12.9739C62.6061 13.1855 61.689 12.9739 60.7014 12.4801L58.2324 11.1398L56.6099 14.1026C56.3983 14.5964 56.0456 14.6669 55.5518 14.4553ZM58.8673 10.0817L61.1247 11.3514C62.465 12.0569 63.3821 11.8452 64.0169 10.7165C64.6518 9.58785 64.2991 8.67079 62.9588 7.89482L60.7014 6.62505L58.8673 10.0817Z" fill="white"/>
<path d="M63.0999 19.0404C62.7471 18.6877 62.7471 18.335 63.0999 17.9117L69.3077 11.4218C69.6604 11.069 70.0131 11.069 70.4363 11.4218L72.9759 13.8908C73.8224 14.6667 74.2457 15.4427 74.3162 16.2892C74.3867 17.1357 74.1046 17.8412 73.3991 18.5466C72.8348 19.111 72.2705 19.3931 71.6356 19.4637C71.0007 19.5342 70.3658 19.3931 69.6604 18.9699C69.872 19.3931 69.9425 19.9575 69.7309 20.5924L69.0255 23.2024C68.9549 23.4846 68.8138 23.6962 68.6022 23.7668C68.3906 23.8373 68.179 23.7668 67.9673 23.5552C67.8262 23.4141 67.6852 23.273 67.6852 23.0614C67.6146 22.9203 67.6852 22.7086 67.7557 22.497L68.6022 19.3226C68.7433 18.8993 68.7433 18.5466 68.6022 18.2644C68.4611 17.9823 68.32 17.7001 67.9673 17.4179L66.7681 16.2892L64.2286 18.8993C63.8053 19.3931 63.4526 19.3931 63.0999 19.0404ZM67.4735 15.5838L69.3077 17.3474C70.4363 18.4055 71.3534 18.4761 72.2705 17.559C73.117 16.6419 73.0464 15.6543 71.9177 14.6667L70.0836 12.9032L67.4735 15.5838Z" fill="white"/>
<path d="M71.3535 28.9872C70.8597 28.1407 70.6481 27.2942 70.6481 26.3771C70.6481 25.5306 70.9302 24.7546 71.424 23.9786C71.9178 23.2027 72.6233 22.5678 73.6109 22.074C74.5985 21.5096 75.5155 21.2275 76.3621 21.1569C77.2791 21.0864 78.0551 21.298 78.8311 21.7213C79.5365 22.1445 80.1714 22.7794 80.6652 23.6259C81.159 24.4724 81.3706 25.319 81.3706 26.1655C81.3706 27.012 81.0884 27.788 80.5946 28.5639C80.1008 29.3399 79.3954 29.9748 78.4078 30.4686C77.4907 31.0329 76.5031 31.3151 75.6566 31.3857C74.7396 31.4562 73.9636 31.2446 73.1876 30.8213C72.4116 30.4686 71.8473 29.8337 71.3535 28.9872ZM72.4822 28.3523C72.976 29.2694 73.6814 29.7632 74.5985 29.9043C75.5155 30.0453 76.5031 29.8337 77.6318 29.1988C78.7605 28.5639 79.4659 27.8585 79.7481 27.012C80.1008 26.1655 79.9597 25.319 79.4659 24.4019C78.9721 23.4848 78.2667 22.991 77.3497 22.85C76.4326 22.7089 75.445 22.9205 74.3163 23.5554C73.1876 24.1903 72.4822 24.8957 72.2 25.8128C71.9178 26.5182 71.9884 27.4353 72.4822 28.3523Z" fill="white"/>
<path d="M73.6813 33.6414C73.6108 33.4298 73.6108 33.2182 73.6813 33.0771C73.7519 32.936 73.893 32.7949 74.1046 32.7244C74.2457 32.6538 74.3868 32.6538 74.5278 32.7244C74.6689 32.7949 74.7395 32.8654 74.81 33.0771L74.9511 33.5003C75.3038 34.4174 76.0092 34.6996 76.9968 34.3469L83.5573 32.2306C84.0511 32.0895 84.3333 32.2306 84.5449 32.7244C84.686 33.2182 84.545 33.5709 84.0512 33.712L77.4906 35.8283C76.6441 36.1104 75.8682 36.1104 75.3038 35.8283C74.6689 35.5461 74.2457 34.9817 73.893 34.1352L73.6813 33.6414Z" fill="white"/>
<path d="M75.445 39.427C75.3744 38.8627 75.5861 38.5805 76.1504 38.5099L84.8977 37.3813C85.4621 37.3107 85.7443 37.5223 85.8148 38.0867L86.5202 43.448C86.5908 43.8712 86.3791 44.0828 86.0264 44.1534C85.6032 44.2239 85.3915 44.0123 85.321 43.589L84.7567 38.8627L81.3706 39.3565L81.9349 43.7301C82.0055 44.1534 81.7938 44.365 81.3706 44.4356C80.9473 44.5061 80.7357 44.2945 80.6652 43.8712L80.1008 39.4975L76.7148 39.9208L77.2791 44.6472C77.3496 45.0704 77.138 45.2821 76.7148 45.3526C76.2915 45.4232 76.0799 45.2115 76.0093 44.7883L75.445 39.427Z" fill="white"/>
<path d="M75.5155 51.2789C75.6566 50.2208 75.9388 49.3743 76.5031 48.6688C76.9969 47.9634 77.7024 47.4696 78.5489 47.1874C79.3954 46.9053 80.383 46.8347 81.4412 46.9758C82.4993 47.1169 83.4164 47.3991 84.1923 47.8929C84.9683 48.3867 85.4621 49.0216 85.8148 49.8681C86.1675 50.6441 86.2381 51.5611 86.097 52.6193C86.0264 53.1836 85.8854 53.7479 85.6737 54.2417C85.4621 54.7355 85.1799 55.1588 84.8272 55.5821C84.6861 55.7937 84.4745 55.8642 84.2629 55.8642C84.0512 55.8642 83.9102 55.7937 83.7691 55.7231C83.628 55.6526 83.5574 55.441 83.4869 55.2999C83.4869 55.0883 83.5574 54.9472 83.6985 54.7355C83.9807 54.4534 84.1923 54.1007 84.404 53.7479C84.545 53.3952 84.6861 52.972 84.7567 52.5487C84.8978 51.42 84.6861 50.503 84.0512 49.8681C83.4164 49.1626 82.4993 48.8099 81.2295 48.5983C79.9598 48.4572 78.9721 48.5983 78.1962 49.0921C77.4202 49.5859 76.9969 50.4324 76.8559 51.4906C76.7853 51.9138 76.7853 52.3371 76.8559 52.7603C76.9264 53.1836 77.0675 53.5363 77.2791 53.9596C77.4202 54.1712 77.4202 54.3828 77.3497 54.5239C77.2791 54.665 77.2086 54.8061 76.9969 54.8766C76.7853 54.9472 76.6442 54.9472 76.5031 54.8766C76.3621 54.8061 76.1504 54.7355 76.0799 54.5239C75.7977 54.1007 75.6566 53.5363 75.5155 52.972C75.3745 52.4076 75.445 51.9138 75.5155 51.2789Z" fill="white"/>
<path d="M73.4697 58.8969C73.6813 58.4031 73.9635 58.262 74.4573 58.4737L82.3581 61.5776L83.4868 58.6853C83.6279 58.262 83.9101 58.121 84.3333 58.3326C84.7566 58.4737 84.8271 58.7558 84.686 59.1791L81.7938 66.445C81.6527 66.8683 81.3705 67.0094 80.9473 66.8683C80.524 66.7272 80.4535 66.445 80.5946 66.0218L81.7232 63.1295L73.8224 60.0256C73.4697 59.6729 73.3286 59.3202 73.4697 58.8969Z" fill="white"/>
</svg>
