<?xml version="1.0" encoding="utf-8"?><svg viewBox="0 0 1714 775" xmlns="http://www.w3.org/2000/svg" xmlns:xlink="http://www.w3.org/1999/xlink"><style>:root>svg{display:none}:root>svg:target{display:block}</style><svg viewBox="0 0 22 21" id="arrow" xmlns="http://www.w3.org/2000/svg"><path d="M21.144 9.694a1.025 1.025 0 010 1.443l-9.109 9.109a1.05 1.05 0 01-1.113.215 1.013 1.013 0 01-.62-.936v-8.097H1.193a1.012 1.012 0 110-2.025h9.11V1.307a1.013 1.013 0 01.62-.937 1.063 1.063 0 011.112.216l9.11 9.108z"/></svg><svg viewBox="0 0 221 222" id="bg-link" xmlns="http://www.w3.org/2000/svg"><path d="M102.947 5.304a14.001 14.001 0 0114.941 0l6.269 3.955a14 14 0 0010.159 1.899l7.274-1.423a14.001 14.001 0 0113.932 5.397l4.417 5.952a14 14 0 008.786 5.44l7.298 1.302a14 14 0 0111.041 10.065l1.968 7.146a14.002 14.002 0 006.228 8.247l6.335 3.85a14 14 0 016.66 13.373l-.746 7.375a13.997 13.997 0 002.828 9.94l4.517 5.878a14 14 0 011.378 14.876l-3.36 6.608a14.002 14.002 0 00-.953 10.29l2.088 7.113a14 14 0 01-4.088 14.37l-5.52 4.947a14.003 14.003 0 00-4.607 9.251l-.621 7.387a14.001 14.001 0 01-9.004 11.922l-6.934 2.62a14 14 0 00-7.638 6.962l-3.248 6.663a13.997 13.997 0 01-12.702 7.865l-7.413-.062a13.998 13.998 0 00-9.636 3.733l-5.436 5.04a14 14 0 01-14.686 2.745l-6.889-2.736a14.001 14.001 0 00-10.335 0l-6.889 2.736a14 14 0 01-14.686-2.745l-5.436-5.04a14 14 0 00-9.636-3.733l-7.413.062a13.999 13.999 0 01-12.702-7.865l-3.248-6.663a14 14 0 00-7.638-6.962l-6.934-2.62a14 14 0 01-9.003-11.922l-.622-7.387a14 14 0 00-4.607-9.251l-5.52-4.947a14 14 0 01-4.088-14.37l2.088-7.113a13.999 13.999 0 00-.953-10.29l-3.36-6.608A14 14 0 015.981 93.7l4.517-5.878a14 14 0 002.829-9.94l-.747-7.375a14 14 0 016.66-13.374l6.335-3.849a14 14 0 006.228-8.247l1.968-7.146a14 14 0 0111.041-10.065l7.298-1.301a14 14 0 008.787-5.44l4.417-5.953a14 14 0 0113.93-5.397l7.276 1.423a14 14 0 0010.158-1.899l6.269-3.955z"/></svg><svg viewBox="0 0 56 56" id="curve-border" xmlns="http://www.w3.org/2000/svg"><path d="M27.566 1.385a.5.5 0 01.79 0l.388-.302-.388.302 2.928 3.77a1.5 1.5 0 001.957.365l4.092-2.457a.5.5 0 01.736.286l1.37 4.572A1.5 1.5 0 0041.13 8.97l4.703-.813a.5.5 0 01.584.532l-.376 4.759a1.5 1.5 0 001.2 1.589l4.68.94a.5.5 0 01.352.707l-2.07 4.302a1.5 1.5 0 00.545 1.915l4.024 2.568a.5.5 0 01.073.786l-3.484 3.264a1.5 1.5 0 00-.183 1.982l2.824 3.848a.5.5 0 01-.216.76l-4.427 1.784a1.5 1.5 0 00-.887 1.782l1.243 4.609a.5.5 0 01-.476.63l-4.773.065a1.5 1.5 0 00-1.47 1.341l-.506 4.747a.5.5 0 01-.672.416l-4.474-1.664a1.5 1.5 0 00-1.856.72l-2.186 4.243a.5.5 0 01-.776.145l-3.571-3.168a1.5 1.5 0 00-1.99 0l-3.572 3.168a.5.5 0 01-.776-.145l-2.186-4.244a1.5 1.5 0 00-1.856-.719l-4.474 1.664a.5.5 0 01-.672-.416l-.505-4.747a1.5 1.5 0 00-1.47-1.34l-4.774-.066a.5.5 0 01-.476-.63l1.244-4.609a1.5 1.5 0 00-.888-1.782l-4.427-1.785a.5.5 0 01-.216-.76L4.743 31.5a1.5 1.5 0 00-.184-1.982l-3.483-3.264a.5.5 0 01.072-.786L5.172 22.9a1.5 1.5 0 00.545-1.915l-2.07-4.302A.5.5 0 014 15.977l4.68-.941a1.5 1.5 0 001.2-1.59l-.376-4.758a.5.5 0 01.583-.532l4.704.813a1.5 1.5 0 001.692-1.048l1.37-4.572a.5.5 0 01.735-.286l4.093 2.457a1.5 1.5 0 001.956-.365l2.929-3.77-.388-.301.388.301z"/></svg><svg viewBox="0 0 19 19" id="fb" xmlns="http://www.w3.org/2000/svg"><path d="M16.83.508H2.18c-.8 0-1.5.576-1.5 1.367v14.683c0 .796.7 1.504 1.5 1.504h14.646c.805 0 1.409-.713 1.409-1.504V1.875c.004-.791-.604-1.367-1.404-1.367zM6.123 15.14H3.607V7.321H6.12v7.82zm-1.17-9.008h-.019c-.805 0-1.326-.599-1.326-1.349 0-.763.535-1.349 1.358-1.349.823 0 1.326.581 1.344 1.35 0 .75-.521 1.348-1.358 1.348zm10.36 9.008h-2.514v-4.275c0-1.024-.366-1.724-1.276-1.724-.695 0-1.107.47-1.29.928-.068.165-.087.389-.087.618v4.453H7.63V7.321h2.515V8.41c.366-.52.938-1.27 2.268-1.27 1.651 0 2.9 1.087 2.9 3.433v4.568z"/></svg><svg viewBox="0 0 20 18" id="in" xmlns="http://www.w3.org/2000/svg"><path fill-rule="evenodd" clip-rule="evenodd" d="M19.35 9.337c0-4.8-4.156-8.693-9.281-8.693C4.943.644.787 4.536.787 9.337c0 4.34 3.394 7.936 7.831 8.589v-6.075H6.261V9.337h2.357V7.422c0-2.178 1.386-3.383 3.506-3.383 1.016 0 2.079.17 2.079.17v2.14h-1.171c-1.153 0-1.513.67-1.513 1.358v1.63h2.574l-.411 2.514h-2.163v6.076c4.438-.653 7.832-4.25 7.832-8.59z"/></svg><svg viewBox="0 0 19 18" id="inst" xmlns="http://www.w3.org/2000/svg"><path d="M13.547 2.082A3.83 3.83 0 0116.19 3.14a3.545 3.545 0 011.1 2.544v7.202a3.545 3.545 0 01-1.1 2.544 3.83 3.83 0 01-2.643 1.058H6.062A3.83 3.83 0 013.42 15.43a3.545 3.545 0 01-1.1-2.543V5.683a3.545 3.545 0 011.1-2.544 3.83 3.83 0 012.643-1.058h7.485zm0-1.44H6.062C3.18.642.822 2.91.822 5.684v7.202c0 2.774 2.358 5.043 5.24 5.043h7.485c2.882 0 5.24-2.27 5.24-5.042V5.683c0-2.773-2.358-5.042-5.24-5.042z"/><path d="M14.67 5.684c-.222 0-.44-.063-.624-.182a1.09 1.09 0 01-.413-.485 1.042 1.042 0 01-.064-.624c.043-.21.15-.402.307-.553a1.14 1.14 0 01.575-.296c.218-.042.444-.02.649.061.205.082.38.22.504.398a1.052 1.052 0 01-.14 1.365 1.158 1.158 0 01-.795.316zm-4.865.72c.592 0 1.17.17 1.663.486.493.316.876.766 1.103 1.293.227.526.286 1.106.17 1.665a2.85 2.85 0 01-.82 1.475 3.031 3.031 0 01-1.532.788 3.103 3.103 0 01-1.73-.164 2.973 2.973 0 01-1.344-1.06 2.805 2.805 0 01-.505-1.602 2.83 2.83 0 01.878-2.036 3.058 3.058 0 012.117-.845zm0-1.44c-.889 0-1.757.253-2.495.728a4.362 4.362 0 00-1.655 1.94 4.17 4.17 0 00-.255 2.497 4.274 4.274 0 001.229 2.212 4.548 4.548 0 002.3 1.183 4.655 4.655 0 002.594-.246 4.459 4.459 0 002.016-1.591 4.206 4.206 0 00.757-2.402A4.24 4.24 0 0012.98 6.23a4.582 4.582 0 00-3.175-1.265z"/></svg><svg viewBox="0 0 113 68" id="logo" xmlns="http://www.w3.org/2000/svg"><path d="M11.204 48.553c.023.421-.09.84-.33 1.226-.24.386-.6.728-1.054 1.001-1.136.658-2.58.989-4.045.927H3.504v4.615H1.083v-8.526a4.725 4.725 0 00-.15-1.47.927.927 0 00-.3-.523 1.56 1.56 0 00-.633-.34v-.15h6.016c.694-.03 1.39.04 2.047.206a5.915 5.915 0 011.772.753c.434.293.775.648 1 1.041.226.393.331.816.309 1.24m12.377 7.769h-9.024v-8.526a4.723 4.723 0 00-.15-1.47.973.973 0 00-.33-.496 1.613 1.613 0 00-.633-.314v-.15h3.535v9.688h6.542l.06 1.268zm15.896 0h-2.482l-2.105-3.315h-6.542l-2 3.315h-2.12l6.617-10.987h1.744l6.888 10.987zm-5.384-4.572l-1.88-3.005a6.058 6.058 0 01-.707-1.322c-.178.45-.394.89-.647 1.322L29.07 51.75h4.963zm17.655-5.115h-4.992v9.687h-2.467v-9.709h-5.008v-1.3h12.467v1.322zm4.813 9.687H54.14v-8.526a4.723 4.723 0 00-.15-1.47.99.99 0 00-.337-.484 1.627 1.627 0 00-.626-.305v-.17h3.534l-.06 10.955zm18.949 0h-2l-9.941-8.43v8.43h-2.105v-8.526a4.726 4.726 0 00-.15-1.47.963.963 0 00-.317-.492 1.588 1.588 0 00-.616-.318v-.15h3.008l9.97 8.377v-8.43h2.075l.076 11.009zm17.67-4.263a3.36 3.36 0 01-.385 1.823c-.302.583-.77 1.116-1.374 1.566a7.168 7.168 0 01-2.194.917 8.705 8.705 0 01-2.528.223 8.1 8.1 0 01-2.582-.188 6.55 6.55 0 01-2.21-.965c-.624-.436-1.102-.966-1.397-1.55a3.018 3.018 0 01-.308-1.826v-4.263a4.587 4.587 0 00-.166-1.47.967.967 0 00-.322-.494 1.6 1.6 0 00-.625-.316v-.15h3.52v6.693c-.05.429.022.86.213 1.269.192.408.497.785.899 1.107.844.5 1.908.773 3.008.773s2.164-.273 3.008-.773c.398-.323.701-.7.89-1.109.189-.408.259-.839.207-1.267v-6.714h2.346v6.714zm19.671 4.263h-2.406v-8.26l-4.752 4.935h-.843l-4.752-4.934v8.259h-2.286v-8.526a4.726 4.726 0 00-.15-1.47.962.962 0 00-.317-.492 1.59 1.59 0 00-.615-.318v-.15h3.398l5.354 5.574 5.309-5.573h2.06v10.955zm-23.04 7.79h20.183l2.857-.48-2.917-.437H89.752v.917zm-58.56-4.199h7.188v.789h-6.015v2.525h5.383v.789H32.41v2.61h6.18v.8h-7.398v-7.513zm12.632 0h1.429l2.872 2.93 3.008-2.93h1.429l-3.61 3.602 3.91 3.911h-1.503l-3.234-3.197-3.188 3.197h-1.323l3.895-3.868-3.685-3.645zm21.882.671c.367.233.655.522.843.845.188.323.27.672.24 1.02.028.357-.054.713-.241 1.045a2.61 2.61 0 01-.842.874c-.85.481-1.921.724-3.008.681h-2.812v2.388H58.65v-7.524h3.986c1.104-.05 2.196.189 3.068.671zm-.873 3.197c.267-.164.477-.37.612-.6.136-.232.194-.482.17-.732a1.177 1.177 0 00-.17-.721 1.748 1.748 0 00-.612-.59c-.648-.325-1.433-.482-2.225-.447h-2.722v3.549h2.722c.794.032 1.58-.13 2.225-.459zm15.04-3.431c.83.33 1.525.807 2.014 1.385.528.571.815 1.236.828 1.919.01.682-.245 1.353-.737 1.939-.503.582-1.214 1.06-2.06 1.385a7.364 7.364 0 01-2.783.512 7.534 7.534 0 01-2.812-.512c-.83-.329-1.526-.807-2.015-1.385-.487-.588-.741-1.258-.737-1.94-.004-.671.25-1.33.737-1.907.49-.579 1.184-1.056 2.015-1.385a7.534 7.534 0 012.812-.512 7.362 7.362 0 012.782.512l-.045-.011zm-2.783.277a5.792 5.792 0 00-2.153.4c-.657.263-1.205.643-1.592 1.103-.389.456-.592.98-.586 1.513-.006.54.197 1.07.586 1.534.387.447.931.814 1.58 1.066a5.81 5.81 0 002.157.405c.757 0 1.5-.14 2.159-.405.618-.261 1.135-.627 1.503-1.066.39-.464.592-.994.587-1.534.005-.533-.198-1.057-.587-1.513-.37-.437-.887-.803-1.503-1.066a5.686 5.686 0 00-2.106-.426l-.045-.011zM2.918 63.195L0 63.632l2.918.48H23.1v-.917H2.918zm76.201-39.089c1.633-2.455 1.891-5.258.722-7.843-.192 1.34-.7 2.648-1.504 3.868a8.959 8.959 0 01.827 3.73l-.045.245zm-6.466.693v.618a8.827 8.827 0 01-.933 3.911c2.093-.695 3.938-1.715 5.399-2.984.49-1.59.49-3.237 0-4.827-1.198 1.286-2.73 2.4-4.512 3.282h.046zm.48-8.525c-.54 1.256-1.368 2.44-2.45 3.506.882 1.164 1.482 2.425 1.774 3.73.53-.274 1.032-.573 1.504-.896 1.038-.748 1.92-1.6 2.617-2.525-.754-1.437-1.927-2.744-3.444-3.837v.022zm.362-5.84c.229.796.344 1.606.346 2.419a8.568 8.568 0 01-.286 2.131c.225.139.436.288.646.437 1.321.934 2.418 2.014 3.249 3.197.607-1.185.912-2.437.902-3.698a6.865 6.865 0 00-.075-1.065c-1.214-1.385-2.848-2.56-4.782-3.443v.022zM49.01 16.529c.12-.309.241-.607.392-.905-.518.158-1.02.34-1.504.543 0 .384.15.767.255 1.14.316-.266.572-.522.857-.778zm-1.503 4.743c.427.245.874.473 1.338.682a6.987 6.987 0 01-.21-.938 9.12 9.12 0 01-.647-.863c-.2.366-.37.74-.511 1.119h.03zm-3.444-2.718c.6.68 1.306 1.31 2.105 1.876.249-.6.566-1.184.948-1.748a9.022 9.022 0 01-.617-1.79c-.894.49-1.71 1.048-2.436 1.662zm26.95 5.67c-.195-1.21-.673-2.387-1.414-3.485a16.426 16.426 0 01-3.008 1.918 8.53 8.53 0 01-.27 2.888 19.035 19.035 0 004.691-1.321zm-7.625 6.042a22.5 22.5 0 001.91.075 21.3 21.3 0 004.436-.459c.891-1.385 1.358-2.889 1.368-4.412a21.628 21.628 0 01-5.263 1.269c-.534 1.264-1.362 2.456-2.451 3.527zm-3.354-3.57a16.265 16.265 0 01-3.008 1.897c1.42.66 2.985 1.146 4.632 1.439 1.068-.961 1.902-2.042 2.467-3.198h-1.008a24.483 24.483 0 01-3.083-.138zm2.542-2.6a13.87 13.87 0 01-1.384 1.598c.639.056 1.281.084 1.925.085.496 0 .992 0 1.504-.053a7.725 7.725 0 00.39-2.387c-.786.292-1.6.545-2.435.757zm9.61-9.911c.078-.45.118-.901.12-1.354a8.085 8.085 0 00-.662-3.143 20.399 20.399 0 00-6.226-.96c.89 1.16 1.495 2.417 1.79 3.72 1.786.374 3.47.961 4.977 1.737zm-5.024 2.376a14.898 14.898 0 012.662 2.132c.943-1.013 1.63-2.135 2.03-3.315-1.35-.765-2.876-1.36-4.511-1.758v.725a8.804 8.804 0 01-.226 2.216h.045zm-4.797-3.506c.416.549.773 1.119 1.068 1.705.79.281 1.544.61 2.255.98a8.26 8.26 0 00.12-1.363 6.121 6.121 0 000-1.066 21.843 21.843 0 00-3.443-.256zm-3.715-3.26a14.232 14.232 0 012.707 2.13h.888c1.074.002 2.147.073 3.203.214-.346-1.18-.966-2.31-1.835-3.346a19.973 19.973 0 00-4.963 1.001zm4.813-6.757c-3.47-1.143-7.418-1.325-11.069-.512a22.33 22.33 0 015.46 1.066 23.026 23.026 0 015.308-.554h.3zm.962 4.582h.873c1.883 0 3.754.223 5.534.661-.983-1.485-2.428-2.793-4.226-3.826a20.955 20.955 0 00-3.444-.298 21.239 21.239 0 00-3.323.256c.96.448 1.851.966 2.661 1.545.714.51 1.359 1.067 1.925 1.662zm-12.03-.33c1.783.378 3.466.966 4.977 1.737a21.481 21.481 0 015.249-1.268 13.961 13.961 0 00-1.264-1.012 16.343 16.343 0 00-3.609-1.908c-2.018.538-3.849 1.378-5.369 2.462l.015-.011zm-8.242-.256c2.136-.29 4.33-.29 6.467 0l.601-.447c1.314-.942 2.838-1.723 4.512-2.313a20.956 20.956 0 00-5.219-.64 18.575 18.575 0 00-1.504.054c-1.96.84-3.626 1.984-4.872 3.346h.015zm31.702 21.783c-1.492.846-3.182 1.498-4.993 1.928-.854 1.217-2.004 2.318-3.399 3.25 3.625-.929 6.622-2.794 8.392-5.221v.043zm-5.76-23.445c1.208 1.059 2.154 2.255 2.797 3.538 1.68.622 3.205 1.435 4.512 2.408-.734-1.506-1.93-2.878-3.504-4.017a16.545 16.545 0 00-3.805-1.95v.02zm-33.1 4.06c1.49-.857 3.18-1.525 4.992-1.971.861-1.214 2.011-2.314 3.4-3.25-2.117.54-4.038 1.406-5.625 2.536-1.115.787-2.05 1.693-2.767 2.685zm-3.91 15.335c-1.712-2.055-2.512-4.427-2.297-6.808.214-2.38 1.434-4.66 3.5-6.545.85-2.32 2.663-4.404 5.205-5.985 2.542-1.581 5.695-2.585 9.051-2.881C51.443 1.34 54.785.777 58.14.93c3.355.154 6.566 1.018 9.22 2.48 3.268.6 6.207 1.882 8.435 3.68 2.228 1.797 3.643 4.027 4.062 6.401 1.713 2.055 2.513 4.428 2.296 6.81-.218 2.381-1.442 4.662-3.514 6.543-.84 2.32-2.65 4.407-5.19 5.987-2.542 1.58-5.696 2.58-9.052 2.869-2.9 1.207-6.245 1.77-9.601 1.616-3.357-.154-6.57-1.017-9.227-2.48-3.263-.602-6.195-1.884-8.42-3.679-2.225-1.795-3.64-4.02-4.063-6.39zm6.917 4.593c-1.68-.618-3.204-1.428-4.511-2.398 1.29 2.544 3.875 4.654 7.248 5.915-1.199-1.054-2.14-2.242-2.782-3.517h.045zm20.513 1.599a20.163 20.163 0 01-4.978-1.737 21.478 21.478 0 01-5.248 1.268c.39.373.812.729 1.263 1.065a16.67 16.67 0 003.594 1.897c2.006-.551 3.822-1.402 5.324-2.493h.045zm3.369 3.666c1.962-.866 3.627-2.03 4.872-3.41-2.136.29-4.33.29-6.466 0l-.602.447c-1.314.942-2.838 1.723-4.511 2.313 1.672.43 3.438.65 5.218.65.421.053.932.032 1.444 0h.045zm-14.468.575c3.472 1.152 7.428 1.339 11.084.522a22.188 22.188 0 01-5.459-1.066 23.04 23.04 0 01-5.264.597l-.36-.053zm-1.864-4.561c-1.884 0-3.755-.223-5.534-.66.977 1.484 2.416 2.792 4.21 3.825 2.242.362 4.57.362 6.813 0a17.504 17.504 0 01-2.647-1.535 14.305 14.305 0 01-1.97-1.673l-.872.043zm5.835-17.85c-.341.303-.658.62-.948.948a25.58 25.58 0 011.309-.16c.436-.042.797-.309 1.203-.458a22.7 22.7 0 00-1.564-.33zm6.21-.693a13.766 13.766 0 00-2.375-1.726c-.957.427-1.844.928-2.647 1.492.848.171 1.674.396 2.466.671a22.19 22.19 0 012.557-.437zm1.775 2.057c-.24-.352-.496-.693-.782-1.066-.54.043-1.078.107-1.609.192.376.181.737.363 1.098.565.439.087.87.19 1.293.309zM52.77 24.352l-1.293-.278c.228.367.49.723.782 1.066a19.85 19.85 0 001.609-.192 11.656 11.656 0 01-1.098-.596zm6.677 1.065c.344-.304.666-.62.963-.948l-1.309.149c-.405.16-.796.32-1.218.458.512.181 1.038.341 1.564.394v-.053zm-3.804 2.462c.953-.427 1.84-.923 2.646-1.481a21.95 21.95 0 01-2.45-.672c-.836.192-1.69.338-2.558.437.69.636 1.482 1.212 2.362 1.716zm-9.911-6.192a14.453 14.453 0 01-2.662-2.131c-.941 1.015-1.633 2.136-2.045 3.314 1.35.766 2.876 1.36 4.511 1.758v-.724a8.791 8.791 0 01.196-2.217zm4.752 3.506a11.612 11.612 0 01-1.068-1.715 17.658 17.658 0 01-2.255-.97c-.086.448-.126.9-.12 1.353a5.93 5.93 0 000 1.066c1.129.184 2.285.274 3.443.266zm-1.248 4.263a19.95 19.95 0 004.903-.991 14.648 14.648 0 01-2.707-2.131h-.888a22.796 22.796 0 01-3.203-.213c.364 1.179 1.005 2.306 1.895 3.335zm-7.986-.842c1.95.63 4.068.957 6.212.96-.878-1.159-1.478-2.412-1.775-3.71a20.168 20.168 0 01-4.978-1.747 8.12 8.12 0 00-.105 1.3 7.773 7.773 0 00.647 3.197zm-1.503-6.564c.501-1.278 1.299-2.489 2.36-3.581-.858-1.16-1.443-2.414-1.729-3.709-.526.277-1.028.576-1.504.896-1.069.756-1.971 1.621-2.677 2.568.786 1.419 1.985 2.704 3.52 3.772l.03.054zm-5.159 2.302c1.21 1.386 2.845 2.563 4.783 3.442a8.492 8.492 0 010-4.583 10.754 10.754 0 01-.647-.437c-1.324-.931-2.422-2.012-3.248-3.197-.796 1.525-1.1 3.156-.888 4.774zM33.747 14.1c-.974 1.425-1.488 2.987-1.504 4.571a8.01 8.01 0 00.842 3.325c.194-1.34.702-2.647 1.504-3.868a8.797 8.797 0 01-.842-3.74c-.03-.086-.015-.171-.015-.246l.015-.042zm7.37-5.222c-2.1.693-3.947 1.717-5.4 2.994a7.726 7.726 0 00-.406 2.473c.006.791.127 1.58.361 2.355a14.496 14.496 0 012.18-1.897 17.37 17.37 0 012.362-1.385v-.63a8.811 8.811 0 01.887-3.867l.015-.043zM52.8 11.563a16.84 16.84 0 013.008-1.897 19.231 19.231 0 00-4.677-1.449c-1.075.96-1.914 2.04-2.481 3.197h1.022a24.231 24.231 0 013.128.15zm-4.933 3.368c.771-.3 1.576-.553 2.407-.757.396-.56.86-1.094 1.383-1.598a22.988 22.988 0 00-1.925-.085 17.408 17.408 0 00-1.503.053 7.95 7.95 0 00-.361 2.376v.01zm-6.015-.885c.188 1.207.667 2.382 1.414 3.474a16.35 16.35 0 013.007-1.918 9.02 9.02 0 01.346-2.898 19.606 19.606 0 00-4.782 1.332l.015.01zm5.715-6.127a20.622 20.622 0 00-4.452.447c-.894 1.382-1.36 2.882-1.368 4.402a21.64 21.64 0 015.248-1.205c.536-1.266 1.37-2.458 2.467-3.527a18.819 18.819 0 00-1.91-.128l.015.01zm17.82 9.069a17.9 17.9 0 00-1.338-.682c.094.313.164.63.21.948.237.276.453.56.647.853.188-.37.344-.747.467-1.13l.015.01zm.978 4.4c.892-.5 1.708-1.064 2.437-1.683a12.22 12.22 0 00-2.106-1.875 10.906 10.906 0 01-.947 1.747c.26.59.46 1.192.601 1.801l.015.01zm-2.902 1.258c.496-.17.977-.351 1.504-.554a7.937 7.937 0 00-.301-1.15c-.24.266-.511.521-.782.777-.27.256-.286.618-.436.917l.015.01zm-7.61-8.024a18.891 18.891 0 00-1.504.053 15.804 15.804 0 00-2.767 1.556c-.37.26-.722.534-1.053.82a7.771 7.771 0 00-.406 2.494v1.066c.624.714 1.36 1.376 2.196 1.971.376.256.767.512 1.158.736a21.22 21.22 0 003.52.298 19.13 19.13 0 001.653-.032 15.14 15.14 0 003.82-2.376 7.72 7.72 0 00.406-2.494v-1.066a12.54 12.54 0 00-2.195-1.971 16.02 16.02 0 00-1.173-.735 20.932 20.932 0 00-3.67-.33l.015.01zM8.692 48.478c.022-.475-.197-.94-.616-1.31a2.733 2.733 0 00-.93-.481 3.538 3.538 0 00-1.13-.148H3.504v3.91h2.361a3.82 3.82 0 001.097-.114c.352-.09.674-.228.948-.407.267-.19.474-.416.609-.666.134-.25.194-.517.173-.784z"/></svg><svg viewBox="0 0 140 140" id="play" xmlns="http://www.w3.org/2000/svg"><path d="M70 8.75a61.25 61.25 0 100 122.5 61.25 61.25 0 000-122.5zm32.581 65.166l-52.5 26.25a4.38 4.38 0 01-5.778-1.785 4.376 4.376 0 01-.553-2.131v-52.5a4.375 4.375 0 016.33-3.911l52.501 26.25a4.377 4.377 0 010 7.822v.005z"/></svg><svg viewBox="0 0 1714 775" id="points" xmlns="http://www.w3.org/2000/svg"><g opacity=".27"><path d="M1311.19 188.679a69.962 69.962 0 01-11.8 38.873 70 70 0 01-31.42 25.771 70.051 70.051 0 01-76.3-15.168 69.97 69.97 0 01-19.17-35.825 69.938 69.938 0 013.99-40.427 69.95 69.95 0 0125.79-31.401 70.04 70.04 0 0188.4 8.702 69.856 69.856 0 0115.18 22.699 69.905 69.905 0 015.33 26.776zM1178.25 125.565c0 4.031-1.2 7.972-3.44 11.324a20.411 20.411 0 01-9.15 7.508 20.42 20.42 0 01-11.79 1.16 20.362 20.362 0 01-10.44-5.579 20.357 20.357 0 01-5.59-10.437 20.461 20.461 0 011.16-11.777 20.4 20.4 0 017.52-9.148 20.375 20.375 0 0111.33-3.436c5.41 0 10.6 2.148 14.42 5.971a20.36 20.36 0 015.98 14.414zM1146.89 202.133a9.368 9.368 0 01-11.19 9.172 9.383 9.383 0 01-4.79-2.56 9.327 9.327 0 01-2.56-4.788 9.34 9.34 0 013.98-9.599 9.367 9.367 0 015.2-1.576 9.27 9.27 0 013.58.705 9.333 9.333 0 015.78 8.646z"/></g><path d="M928.5 159.887a34.468 34.468 0 01-38.271.151 34.423 34.423 0 01-12.749-15.395 34.401 34.401 0 01-2.042-19.879 34.418 34.418 0 019.351-17.663 34.467 34.467 0 0137.503-7.624 34.44 34.44 0 0120.714 25 34.406 34.406 0 01-14.506 35.41zM917.689 88.338a10.205 10.205 0 01-15.211-4.387 10.183 10.183 0 012.163-11.174 10.197 10.197 0 0111.172-2.206 10.187 10.187 0 011.876 17.766zM877.785 96.593a4.591 4.591 0 01-7.071-4.666 4.589 4.589 0 018.295-1.73 4.608 4.608 0 01-1.224 6.396zM212.327 120.596a99.873 99.873 0 017.467-57.536 99.95 99.95 0 0138.194-43.694 100.055 100.055 0 01111.061 3.416 99.949 99.949 0 0135.434 45.959 99.874 99.874 0 013.911 57.886 99.918 99.918 0 01-28.928 50.302 100.029 100.029 0 01-52.018 25.765 100.081 100.081 0 01-74.57-17.23 99.949 99.949 0 01-40.551-64.868zM414.394 178.156a29.158 29.158 0 012.185-16.796 29.178 29.178 0 0111.154-12.753 29.208 29.208 0 0132.422 1.005 29.176 29.176 0 0110.341 13.42 29.15 29.15 0 011.139 16.899 29.171 29.171 0 01-8.448 14.683A29.199 29.199 0 01448 202.133a29.237 29.237 0 01-21.767-5.04 29.207 29.207 0 01-11.839-18.937zM440.631 62.908a13.35 13.35 0 016.097-13.55 13.367 13.367 0 0119.586 6.635 13.344 13.344 0 01-3.405 14.462 13.362 13.362 0 01-6.979 3.41 13.317 13.317 0 01-9.92-2.312 13.3 13.3 0 01-5.379-8.645z"/><g opacity=".55"><path d="M1134.14 604.902a56.078 56.078 0 0119.93 25.767 55.99 55.99 0 012.23 32.494 56.001 56.001 0 01-16.21 28.25 56.133 56.133 0 01-61.52 10.276 56.061 56.061 0 01-24.53-21.443 56.035 56.035 0 01-8.47-31.453 56.084 56.084 0 0146.82-53.49 56.137 56.137 0 0141.75 9.599zM1031.43 662.08a16.319 16.319 0 015.8 7.508c1.15 3.02 1.37 6.312.64 9.46a16.241 16.241 0 01-4.72 8.225 16.352 16.352 0 01-17.91 3.003 16.337 16.337 0 01-9.63-15.387 16.32 16.32 0 013.03-8.987 16.335 16.335 0 0110.6-6.629c4.28-.716 8.66.293 12.19 2.807zM1066.62 718.035c1.2.857 2.12 2.05 2.65 3.43a7.485 7.485 0 01-1.86 8.082 7.51 7.51 0 01-3.88 1.929 7.502 7.502 0 01-7.58-3.394 7.429 7.429 0 01-1.13-4.18 7.482 7.482 0 011.37-4.109 7.468 7.468 0 014.85-3.04 7.477 7.477 0 015.58 1.282z"/></g><path d="M1350.36 541.074a11.37 11.37 0 01-6.28-2.044 11.35 11.35 0 01-4.09-5.183 11.453 11.453 0 01-.51-6.577 11.378 11.378 0 0120.69-3.681 11.411 11.411 0 011.79 6.35 11.35 11.35 0 01-.96 4.331 11.332 11.332 0 01-2.54 3.638 11.211 11.211 0 01-3.74 2.389c-1.39.543-2.87.807-4.36.777zM1386.77 513.147a12.74 12.74 0 01-7.06-2.269 12.685 12.685 0 01-4.6-5.809 12.683 12.683 0 01-.59-7.385 12.743 12.743 0 0110.23-9.82 12.744 12.744 0 0112.98 5.711 12.697 12.697 0 011.99 7.138 12.757 12.757 0 01-3.91 8.883 12.767 12.767 0 01-9.04 3.551zM1339.54 492.737a5.808 5.808 0 01-5.3-3.686 5.779 5.779 0 01-.27-3.365 5.76 5.76 0 011.65-2.946 5.807 5.807 0 016.36-1.131 5.794 5.794 0 012.57 2.196c.62.969.93 2.1.91 3.25a5.648 5.648 0 01-.48 2.216c-.3.7-.74 1.333-1.29 1.861a5.761 5.761 0 01-4.15 1.605z"/><g opacity=".42"><path d="M1365.65 488.839a11.37 11.37 0 01-6.27-2.043 11.358 11.358 0 01-4.09-5.184 11.369 11.369 0 018.6-15.323c2.22-.394 4.5-.124 6.56.778 2.06.902 3.8 2.393 5.02 4.287a11.411 11.411 0 011.79 6.35 11.36 11.36 0 01-.96 4.332 11.338 11.338 0 01-2.54 3.637 11.312 11.312 0 01-3.74 2.389c-1.39.543-2.87.807-4.37.777zM1402.06 460.912a12.733 12.733 0 01-7.05-2.269 12.685 12.685 0 01-4.6-5.809 12.742 12.742 0 019.64-17.205c2.48-.441 5.05-.133 7.36.884a12.723 12.723 0 015.62 4.827 12.697 12.697 0 011.99 7.138 12.725 12.725 0 01-3.92 8.883 12.73 12.73 0 01-9.04 3.551zM1354.84 440.502a5.782 5.782 0 01-3.21-1.038 5.776 5.776 0 01-2.36-6.013 5.76 5.76 0 011.65-2.946 5.807 5.807 0 016.36-1.131 5.794 5.794 0 012.57 2.196c.62.969.93 2.101.91 3.25a5.648 5.648 0 01-.48 2.216c-.3.7-.74 1.333-1.29 1.862a5.761 5.761 0 01-4.15 1.604z"/></g><g opacity=".65"><path d="M1387.86 585.639a11.444 11.444 0 01-6.3-2.035 11.369 11.369 0 01-4.1-5.19 11.35 11.35 0 01-.53-6.595 11.487 11.487 0 013.23-5.774 11.437 11.437 0 015.9-3.006 11.417 11.417 0 0111.61 5.072 11.387 11.387 0 011.79 6.368 11.189 11.189 0 01-.94 4.339c-.6 1.371-1.46 2.61-2.54 3.646a11.418 11.418 0 01-3.74 2.396c-1.4.545-2.88.809-4.38.779zM1424.27 557.687a12.77 12.77 0 01-11.66-8.078 12.763 12.763 0 013.04-13.848 12.764 12.764 0 0113.97-2.473 12.723 12.723 0 015.62 4.827 12.777 12.777 0 011.99 7.138 12.767 12.767 0 01-3.92 8.883 12.734 12.734 0 01-9.04 3.551zM1377.05 537.277a5.79 5.79 0 01-3.21-1.038 5.779 5.779 0 01-2.36-6.014 5.762 5.762 0 011.65-2.945 5.785 5.785 0 013.01-1.531 5.798 5.798 0 013.35.399 5.86 5.86 0 012.57 2.196c.61.97.93 2.101.91 3.251a5.648 5.648 0 01-.48 2.216 5.755 5.755 0 01-5.44 3.466z"/></g><g opacity=".17"><path d="M1293.52 611.119a11.418 11.418 0 01-6.3-2.035 11.364 11.364 0 01-4.1-5.19 11.347 11.347 0 01-.53-6.594 11.41 11.41 0 013.23-5.774 11.43 11.43 0 015.9-3.006c2.22-.397 4.51-.127 6.57.776 2.07.902 3.82 2.397 5.04 4.296a11.384 11.384 0 011.79 6.367 11.373 11.373 0 01-.94 4.339c-.6 1.371-1.46 2.61-2.54 3.646a11.418 11.418 0 01-3.74 2.396c-1.4.545-2.88.81-4.38.779zM1329.93 583.167a12.77 12.77 0 01-11.66-8.078 12.763 12.763 0 013.04-13.848 12.764 12.764 0 0113.97-2.473 12.777 12.777 0 015.62 4.827 12.768 12.768 0 011.98 7.138 12.715 12.715 0 01-3.91 8.883 12.734 12.734 0 01-9.04 3.551zM1282.71 562.757a5.782 5.782 0 01-3.21-1.038 5.787 5.787 0 01-2.1-2.648 5.862 5.862 0 01-.27-3.365 5.85 5.85 0 011.66-2.946 5.748 5.748 0 013.01-1.531 5.807 5.807 0 013.35.4 5.848 5.848 0 012.57 2.196c.61.969.93 2.1.91 3.25a5.83 5.83 0 01-.48 2.216 5.715 5.715 0 01-3.21 3.08c-.71.275-1.47.407-2.23.386z"/></g><g opacity=".74"><path d="M1204.28 541.048a11.418 11.418 0 01-6.3-2.035 11.369 11.369 0 01-4.1-5.19 11.347 11.347 0 01-.53-6.594 11.41 11.41 0 013.23-5.774 11.43 11.43 0 015.9-3.006c2.22-.397 4.51-.127 6.57.776 2.07.902 3.82 2.397 5.04 4.296a11.384 11.384 0 011.79 6.367 11.373 11.373 0 01-.94 4.339c-.6 1.371-1.46 2.61-2.54 3.646a11.418 11.418 0 01-3.74 2.396c-1.4.545-2.88.81-4.38.779zM1240.69 513.096a12.79 12.79 0 01-7.06-2.269 12.815 12.815 0 01-4.6-5.809 12.766 12.766 0 01-.59-7.385c.54-2.465 1.8-4.715 3.63-6.463a12.742 12.742 0 0113.96-2.473 12.748 12.748 0 015.63 4.827 12.767 12.767 0 011.98 7.137 12.715 12.715 0 01-3.91 8.884 12.767 12.767 0 01-9.04 3.551zM1193.47 492.686a5.782 5.782 0 01-3.21-1.038 5.787 5.787 0 01-2.1-2.648 5.862 5.862 0 01-.27-3.365 5.833 5.833 0 011.65-2.946 5.822 5.822 0 016.37-1.131 5.768 5.768 0 012.56 2.196c.62.969.94 2.1.91 3.25a5.82 5.82 0 01-.47 2.216 5.715 5.715 0 01-3.21 3.08c-.71.275-1.47.407-2.23.386z"/></g><path d="M1449.06 514.294a11.385 11.385 0 01-6.3-2.036 11.45 11.45 0 01-4.11-5.19c-.82-2.097-1-4.392-.52-6.594.48-2.201 1.6-4.211 3.23-5.774a11.361 11.361 0 015.89-3.006 11.391 11.391 0 0111.61 5.072 11.393 11.393 0 01.85 10.707 11.376 11.376 0 01-10.65 6.821zM1485.47 486.342a12.74 12.74 0 01-7.06-2.269 12.685 12.685 0 01-4.6-5.809 12.683 12.683 0 01-.59-7.385 12.743 12.743 0 0110.23-9.821 12.753 12.753 0 0112.98 5.712 12.696 12.696 0 011.99 7.137 12.757 12.757 0 01-3.91 8.884 12.767 12.767 0 01-9.04 3.551zM1438.24 465.932a5.824 5.824 0 01-3.21-1.038 5.83 5.83 0 01-2.36-6.014 5.834 5.834 0 011.65-2.945 5.822 5.822 0 013.01-1.531 5.798 5.798 0 013.35.399 5.8 5.8 0 013.48 5.447 5.82 5.82 0 01-.47 2.216c-.31.7-.75 1.332-1.3 1.861a5.755 5.755 0 01-4.15 1.605zM1692.3 390.765a77.65 77.65 0 0120.49 40.172 77.63 77.63 0 01-5.3 44.776 77.733 77.733 0 01-72.72 46.534 77.737 77.737 0 01-42.91-13.927 77.651 77.651 0 01-27.94-35.403 77.582 77.582 0 01-3.55-44.949 77.628 77.628 0 0122.04-39.344 77.769 77.769 0 0155.39-21.666 77.75 77.75 0 0154.5 23.807zM1537.4 442.541a22.637 22.637 0 014.44 24.8 22.624 22.624 0 01-8.55 10.013 22.694 22.694 0 01-25.2-.48 22.663 22.663 0 01-8.17-10.331 22.698 22.698 0 015.38-24.614 22.735 22.735 0 0116.18-6.332 22.7 22.7 0 0115.92 6.944zM1571.24 527.926a10.344 10.344 0 012.75 5.376 10.29 10.29 0 01-.71 5.998 10.372 10.372 0 01-3.93 4.585 10.404 10.404 0 01-5.83 1.616c-2.05-.05-4.05-.711-5.73-1.899a10.44 10.44 0 01-3.71-4.772 10.335 10.335 0 01-.41-6.026 10.361 10.361 0 0110.36-8.037c2.73.066 5.32 1.201 7.21 3.159z"/><g opacity=".26"><path d="M142.234 599.984a20.392 20.392 0 018.056-8.634 20.409 20.409 0 0122.572 1.376 20.384 20.384 0 016.946 9.548 20.379 20.379 0 01-5.655 21.881 20.404 20.404 0 01-32.876-8.484 20.383 20.383 0 01.957-15.687zM169.058 633.644a5.988 5.988 0 015.747-3.376 5.996 5.996 0 015.314 4.024 5.993 5.993 0 01.13 3.48 5.992 5.992 0 01-8.438 3.847 5.958 5.958 0 01-3.031-3.417 5.958 5.958 0 01.278-4.558zM187.161 617.54a2.728 2.728 0 114.901 2.395 2.728 2.728 0 01-4.901-2.395zM260.951 626.178a20.392 20.392 0 0113.578 18.087 20.388 20.388 0 01-11.482 19.485 20.41 20.41 0 01-22.414-3.094 20.386 20.386 0 01-6.195-10.061 20.367 20.367 0 014.459-18.715 20.404 20.404 0 0122.054-5.702zM230.813 656.856a5.994 5.994 0 013.989 5.323 5.99 5.99 0 01-11.785 1.818 5.98 5.98 0 01.146-3.471 5.972 5.972 0 015.33-4.01 5.983 5.983 0 012.32.34zM248.916 672.807a2.727 2.727 0 11-2.504 4.845 2.727 2.727 0 012.504-4.845zM192.566 661.57a20.399 20.399 0 019.537 6.963 20.37 20.37 0 011.326 22.556 20.4 20.4 0 01-20.313 9.922 20.4 20.4 0 01-16.995-14.903 20.375 20.375 0 0110.739-23.615 20.408 20.408 0 0115.706-.923zM162.326 692.249a5.981 5.981 0 013.163 8.697 5.989 5.989 0 01-5.999 2.878 5.993 5.993 0 01-4.96-4.435 5.988 5.988 0 01.147-3.471 5.955 5.955 0 013.058-3.43 5.96 5.96 0 014.591-.239zM180.481 708.25a2.755 2.755 0 011.682 3.491 2.725 2.725 0 01-3.467 1.682 2.73 2.73 0 01-2.043-3.575 2.734 2.734 0 011.567-1.632 2.72 2.72 0 012.261.111v-.077zM96.798 730.444a17.826 17.826 0 01-1.238-27.594 17.86 17.86 0 0119.679-2.763 17.832 17.832 0 01-5.293 33.717 17.857 17.857 0 01-13.148-3.36zM129.843 713.194a5.099 5.099 0 01-.237-7.832 5.102 5.102 0 017.749 1.193c.516.857.767 1.847.723 2.847a5.086 5.086 0 01-2.468 4.146 5.106 5.106 0 01-5.767-.354zM119.159 695.154a2.377 2.377 0 01-.868-2.489 2.366 2.366 0 011.97-1.751 2.366 2.366 0 012.372 1.151 2.37 2.37 0 01-3.474 3.089z"/></g><g opacity=".69"><path d="M68.164 411.582a141.515 141.515 0 0115.829-80.671 141.648 141.648 0 0158.01-58.287 141.77 141.77 0 01156.722 15 141.587 141.587 0 0145.886 68.23 141.506 141.506 0 01.219 82.207 141.583 141.583 0 01-45.52 68.473 141.734 141.734 0 01-75.917 31.66 141.777 141.777 0 01-103.846-31.189 141.593 141.593 0 01-51.383-95.423zM348.687 511.44a41.306 41.306 0 014.629-23.543 41.343 41.343 0 0116.936-17.007 41.38 41.38 0 0145.741 4.39 41.325 41.325 0 0113.388 19.916 41.305 41.305 0 01-13.227 43.977 41.372 41.372 0 01-22.158 9.239 41.43 41.43 0 01-30.305-9.123 41.373 41.373 0 01-15.004-27.849zM396.24 350.913a18.903 18.903 0 019.853-18.566 18.928 18.928 0 0120.934 2.002 18.905 18.905 0 01-10.083 33.458 18.9 18.9 0 01-18.547-9.846 18.884 18.884 0 01-2.157-7.048z"/></g><path d="M985.13 315.139a71.429 71.429 0 01-39.664-12.024 71.357 71.357 0 01-26.295-32.019 71.31 71.31 0 0115.476-77.751 71.412 71.412 0 0136.554-19.526 71.444 71.444 0 0141.249 4.06 71.337 71.337 0 0132.04 26.277 71.314 71.314 0 01-8.88 90.086 71.421 71.421 0 01-50.48 20.897zM1295.41 471.155a71.45 71.45 0 01-39.67-12.023 71.332 71.332 0 01-26.29-32.019 71.285 71.285 0 01-4.06-41.221 71.253 71.253 0 0119.54-36.53 71.373 71.373 0 0136.55-19.526 71.442 71.442 0 0141.25 4.06 71.436 71.436 0 0132.04 26.277 71.316 71.316 0 01-8.88 90.086 71.42 71.42 0 01-50.48 20.896zM457.868 652.907a39.107 39.107 0 01-21.716-6.583 39.044 39.044 0 01-5.924-60.099 39.11 39.11 0 0142.598-8.467 39.083 39.083 0 0117.542 14.386 39.044 39.044 0 01-4.861 49.322 39.1 39.1 0 01-27.639 11.441zM18.903 181.953a18.698 18.698 0 01-17.26-11.512 18.667 18.667 0 014.018-20.345 18.694 18.694 0 0128.745 2.748 18.665 18.665 0 01-2.26 23.611 18.693 18.693 0 01-13.243 5.498zM238.181 294.066a15.305 15.305 0 01-14.134-9.437 15.289 15.289 0 013.317-16.661 15.3 15.3 0 0116.672-3.314 15.293 15.293 0 019.444 14.124c0 4.055-1.612 7.944-4.481 10.811a15.303 15.303 0 01-10.818 4.477zM182.087 328.057a15.3 15.3 0 01-14.134-9.437 15.28 15.28 0 013.316-16.661 15.307 15.307 0 0123.538 2.317 15.278 15.278 0 01-1.902 19.304 15.305 15.305 0 01-10.818 4.477zM878.754 558.426a15.304 15.304 0 01-14.134-9.438 15.284 15.284 0 0111.15-20.845 15.297 15.297 0 0118.283 14.994c0 4.055-1.612 7.944-4.481 10.811a15.304 15.304 0 01-10.818 4.478zM1405.71 690.898c-3.03 0-5.98-.896-8.5-2.576a15.27 15.27 0 01-5.63-6.861 15.267 15.267 0 01-.87-8.834 15.268 15.268 0 0112.02-12.011 15.28 15.28 0 018.83.87 15.293 15.293 0 019.45 14.124 15.28 15.28 0 01-4.48 10.811 15.306 15.306 0 01-10.82 4.477zM822.66 592.391a15.298 15.298 0 01-14.134-9.437 15.283 15.283 0 0111.149-20.846 15.3 15.3 0 0115.705 6.501 15.28 15.28 0 01-1.903 19.304 15.303 15.303 0 01-10.817 4.478zM401.085 673.929a15.292 15.292 0 01-15.005-18.271 15.278 15.278 0 014.187-7.828 15.303 15.303 0 0123.538 2.317 15.28 15.28 0 01-1.903 19.304 15.303 15.303 0 01-10.817 4.478zM780.155 498.954a15.305 15.305 0 01-14.134-9.437 15.278 15.278 0 013.317-16.661 15.3 15.3 0 0116.672-3.314 15.293 15.293 0 019.444 14.124c0 4.055-1.612 7.943-4.481 10.811a15.303 15.303 0 01-10.818 4.477z"/><path opacity=".67" d="M144.427 223.766a39.105 39.105 0 01-21.718-6.585 39.057 39.057 0 01-14.396-17.534 39.028 39.028 0 01-2.22-22.572 39.052 39.052 0 0110.704-20 39.102 39.102 0 0160.143 5.947 39.04 39.04 0 016.575 21.708 39.004 39.004 0 01-2.976 14.944 39.048 39.048 0 01-21.156 21.128 39.093 39.093 0 01-14.956 2.964z"/><path d="M882.4 479.156a34.006 34.006 0 01-18.876-5.736 33.969 33.969 0 01-12.506-15.249 33.943 33.943 0 017.384-37.006 33.994 33.994 0 0117.402-9.289 34.017 34.017 0 0119.634 1.937 33.991 33.991 0 0115.25 12.51 33.954 33.954 0 015.726 18.868 33.92 33.92 0 01-9.957 24.033 33.955 33.955 0 01-24.057 9.932z"/><path opacity=".68" d="M553.457 95.752a47.6 47.6 0 01-26.426-8.025 47.55 47.55 0 01-17.512-21.343 47.516 47.516 0 01-2.697-27.47 47.539 47.539 0 0113.027-24.337 47.607 47.607 0 0151.847-10.295 47.57 47.57 0 0121.349 17.511 47.53 47.53 0 018.016 26.413 47.49 47.49 0 01-13.937 33.637 47.58 47.58 0 01-33.667 13.91z"/><path d="M358.427 592.289a31.988 31.988 0 01-17.763-5.385 31.955 31.955 0 01-11.776-14.34 31.921 31.921 0 01-1.82-18.461 31.947 31.947 0 018.751-16.36 31.986 31.986 0 0149.194 4.842 31.938 31.938 0 015.388 17.752 31.916 31.916 0 01-9.357 22.601 31.955 31.955 0 01-22.617 9.351zM1102.95 367.629a48.47 48.47 0 01-26.91-8.159 48.353 48.353 0 01-17.84-21.727 48.373 48.373 0 0110.5-52.76 48.409 48.409 0 0124.8-13.25 48.472 48.472 0 0127.99 2.755 48.43 48.43 0 0121.74 17.831 48.344 48.344 0 018.17 26.897c0 12.84-5.11 25.154-14.19 34.233a48.478 48.478 0 01-34.26 14.18zM1267.82 114.532c-9.58 0-18.95-2.84-26.91-8.159a48.438 48.438 0 01-17.85-21.727 48.43 48.43 0 01-2.75-27.972 48.359 48.359 0 0113.25-24.788 48.48 48.48 0 0152.8-10.495 48.428 48.428 0 0129.91 44.728 48.42 48.42 0 01-14.19 34.233 48.478 48.478 0 01-34.26 14.18zM388.591 774.882a48.474 48.474 0 01-26.915-8.159 48.424 48.424 0 01-17.843-21.727 48.383 48.383 0 01-2.756-27.972 48.403 48.403 0 0113.258-24.788 48.476 48.476 0 0152.795-10.495 48.453 48.453 0 0121.742 17.831 48.394 48.394 0 01-6.025 61.13 48.444 48.444 0 01-34.256 14.18zM851.778 708.2a48.474 48.474 0 01-26.915-8.159 48.393 48.393 0 01-7.341-74.487 48.451 48.451 0 0124.805-13.25 48.477 48.477 0 0127.99 2.755 48.438 48.438 0 0121.741 17.831 48.387 48.387 0 01-6.024 61.13 48.465 48.465 0 01-34.256 14.18zM710.165 444.503a48.474 48.474 0 01-26.915-8.159 48.424 48.424 0 01-17.843-21.727 48.383 48.383 0 01-2.756-27.972 48.403 48.403 0 0113.258-24.788 48.468 48.468 0 0152.795-10.495 48.453 48.453 0 0121.742 17.831 48.394 48.394 0 01-6.025 61.13 48.463 48.463 0 01-34.256 14.18zM1119.48 467.435a48.47 48.47 0 01-26.92-8.159 48.348 48.348 0 01-17.84-21.727 48.376 48.376 0 0110.5-52.76 48.454 48.454 0 0152.79-10.494 48.45 48.45 0 0121.75 17.831 48.408 48.408 0 018.16 26.896c0 12.84-5.1 25.154-14.19 34.233a48.45 48.45 0 01-34.25 14.18zM1520.98 196.069c-9.58 0-18.94-2.839-26.91-8.159a48.353 48.353 0 01-17.84-21.727 48.377 48.377 0 0110.5-52.76 48.454 48.454 0 0152.79-10.494 48.371 48.371 0 0121.74 17.831 48.377 48.377 0 01-6.02 61.129 48.46 48.46 0 01-34.26 14.18zM1456.04 769.021a59.708 59.708 0 01-55.15-36.828 59.715 59.715 0 01-3.39-34.468 59.671 59.671 0 0116.34-30.541 59.72 59.72 0 0165.06-12.914 59.62 59.62 0 0126.78 21.981 59.546 59.546 0 0110.05 33.146 59.583 59.583 0 01-17.48 42.17 59.78 59.78 0 01-19.37 12.923 59.667 59.667 0 01-22.84 4.531zM1345.05 706.671c-6.27 0-12.39-1.858-17.61-5.338a31.691 31.691 0 01-11.67-14.214 31.581 31.581 0 01-1.8-18.299 31.654 31.654 0 018.67-16.217 31.707 31.707 0 0134.54-6.866 31.676 31.676 0 0114.22 11.666 31.603 31.603 0 015.35 17.596 31.676 31.676 0 01-9.3 22.388 31.71 31.71 0 01-22.4 9.284zM1365.17 344.11a27.197 27.197 0 01-15.12-4.571 27.25 27.25 0 01-10.04-12.201 27.176 27.176 0 015.9-29.64 27.165 27.165 0 0113.93-7.442 27.25 27.25 0 0115.73 1.553 27.232 27.232 0 0112.21 10.025 27.27 27.27 0 014.57 15.114c0 7.204-2.86 14.113-7.96 19.206a27.193 27.193 0 01-19.22 7.956zM1309.07 366.278c-3.02 0-5.98-.897-8.49-2.577a15.287 15.287 0 01-5.64-6.861 15.283 15.283 0 013.32-16.661 15.286 15.286 0 017.83-4.184c2.97-.59 6.04-.287 8.84.87a15.384 15.384 0 016.87 5.631 15.281 15.281 0 012.57 8.494c0 4.054-1.61 7.943-4.48 10.81a15.307 15.307 0 01-10.82 4.478zM1240.82 172.805c-3.03 0-5.99-.896-8.5-2.576a15.292 15.292 0 01-5.64-6.861 15.35 15.35 0 01-.87-8.834 15.31 15.31 0 0112.02-12.011c2.97-.59 6.05-.288 8.84.87a15.29 15.29 0 019.45 14.124c0 4.055-1.62 7.943-4.48 10.81a15.303 15.303 0 01-10.82 4.478zM1220.42 317.152a37.4 37.4 0 01-20.76-6.293 37.296 37.296 0 01-13.75-16.757 37.22 37.22 0 01-2.12-21.571c1.44-7.242 5-13.893 10.23-19.113a37.363 37.363 0 0140.71-8.075 37.318 37.318 0 0123.04 34.505c0 4.901-.96 9.754-2.84 14.282a37.331 37.331 0 01-34.51 23.022zM922.941 215.892a15.303 15.303 0 01-14.134-9.438 15.28 15.28 0 013.317-16.66 15.293 15.293 0 017.833-4.185 15.303 15.303 0 0115.704 6.501 15.282 15.282 0 01-1.902 19.304 15.304 15.304 0 01-10.818 4.478zM866.847 245.858a15.293 15.293 0 01-14.134-9.438 15.28 15.28 0 013.316-16.661 15.307 15.307 0 0123.538 2.317 15.28 15.28 0 01-1.903 19.304 15.303 15.303 0 01-10.817 4.478zM1378.5 278.116c-3.02 0-5.98-.897-8.5-2.577a15.33 15.33 0 01-5.63-6.861 15.283 15.283 0 013.32-16.661 15.286 15.286 0 017.83-4.184c2.97-.59 6.04-.287 8.84.87a15.305 15.305 0 016.86 5.631 15.211 15.211 0 012.58 8.494c0 4.054-1.61 7.943-4.48 10.81a15.307 15.307 0 01-10.82 4.478zM1339.42 189.801c-3.03 0-5.99-.897-8.5-2.577a15.292 15.292 0 01-5.64-6.861 15.283 15.283 0 013.32-16.661 15.305 15.305 0 0116.67-3.314 15.29 15.29 0 019.45 14.124c0 4.055-1.62 7.944-4.49 10.811a15.284 15.284 0 01-10.81 4.478zM1242.53 490.47c-3.03 0-5.99-.897-8.5-2.577a15.292 15.292 0 01-5.64-6.861 15.283 15.283 0 013.32-16.661 15.305 15.305 0 0116.67-3.314 15.278 15.278 0 016.87 5.631 15.28 15.28 0 012.57 8.493c0 4.055-1.61 7.944-4.48 10.811a15.284 15.284 0 01-10.81 4.478z"/><defs><radialGradient id="ia" cx="0" cy="0" r="1" gradientUnits="userSpaceOnUse" gradientTransform="matrix(20.449 0 0 20.4353 1157.82 125.564)"><stop stop-color="#EBEBEB"/><stop offset="1" stop-color="#EBEBEB" stop-opacity="0"/></radialGradient><radialGradient id="ib" cx="0" cy="0" r="1" gradientUnits="userSpaceOnUse" gradientTransform="matrix(5.63046 8.34508 -8.34715 5.63186 912.077 79.923)"><stop stop-color="#EBEBEB"/><stop offset="1" stop-color="#EBEBEB" stop-opacity="0"/></radialGradient><radialGradient id="ic" cx="0" cy="0" r="1" gradientUnits="userSpaceOnUse" gradientTransform="matrix(2.5658 3.8028 -3.80376 2.56644 875.22 92.708)"><stop stop-color="#EBEBEB"/><stop offset="1" stop-color="#EBEBEB" stop-opacity="0"/></radialGradient><radialGradient id="id" cx="0" cy="0" r="1" gradientUnits="userSpaceOnUse" gradientTransform="matrix(-98.63238 16.47709 -16.46667 -98.57004 310.868 104.181)"><stop stop-color="#EBEBEB"/><stop offset="1" stop-color="#EBEBEB" stop-opacity="0"/></radialGradient><radialGradient id="ie" cx="0" cy="0" r="1" gradientUnits="userSpaceOnUse" gradientTransform="rotate(170.516 214.394 105.083) scale(29.1941 29.1756)"><stop stop-color="#EBEBEB"/><stop offset="1" stop-color="#EBEBEB" stop-opacity="0"/></radialGradient><radialGradient id="if" cx="0" cy="0" r="1" gradientUnits="userSpaceOnUse" gradientTransform="matrix(-13.15263 2.19722 -2.19584 -13.14435 453.698 60.765)"><stop stop-color="#EBEBEB"/><stop offset="1" stop-color="#EBEBEB" stop-opacity="0"/></radialGradient><radialGradient id="ig" cx="0" cy="0" r="1" gradientUnits="userSpaceOnUse" gradientTransform="matrix(32.46083 -45.30287 45.31263 32.46782 1101.1 654.494)"><stop stop-color="#EBEBEB"/><stop offset="1" stop-color="#EBEBEB" stop-opacity="0"/></radialGradient><radialGradient id="ih" cx="0" cy="0" r="1" gradientUnits="userSpaceOnUse" gradientTransform="matrix(9.47947 -13.2297 13.23255 9.4815 1021.59 679.212)"><stop stop-color="#EBEBEB"/><stop offset="1" stop-color="#EBEBEB" stop-opacity="0"/></radialGradient><radialGradient id="ii" cx="0" cy="0" r="1" gradientUnits="userSpaceOnUse" gradientTransform="matrix(-.25406 12.68926 -12.69776 -.25423 1386.454 501.107)"><stop stop-color="#EBEBEB"/><stop offset="1" stop-color="#EBEBEB" stop-opacity="0"/></radialGradient><radialGradient id="ij" cx="0" cy="0" r="1" gradientUnits="userSpaceOnUse" gradientTransform="matrix(-.25406 12.68926 -12.69776 -.25423 1401.784 448.853)"><stop stop-color="#EBEBEB"/><stop offset="1" stop-color="#EBEBEB" stop-opacity="0"/></radialGradient><radialGradient id="ik" cx="0" cy="0" r="1" gradientUnits="userSpaceOnUse" gradientTransform="matrix(-.22753 11.36422 -11.37192 -.22768 1387.474 574.924)"><stop stop-color="#EBEBEB"/><stop offset="1" stop-color="#EBEBEB" stop-opacity="0"/></radialGradient><radialGradient id="il" cx="0" cy="0" r="1" gradientUnits="userSpaceOnUse" gradientTransform="matrix(-.25406 12.68926 -12.69776 -.25423 1423.953 545.675)"><stop stop-color="#EBEBEB"/><stop offset="1" stop-color="#EBEBEB" stop-opacity="0"/></radialGradient><radialGradient id="im" cx="0" cy="0" r="1" gradientUnits="userSpaceOnUse" gradientTransform="rotate(91.147 427.502 940.722) scale(5.81069 5.81458)"><stop stop-color="#EBEBEB"/><stop offset="1" stop-color="#EBEBEB" stop-opacity="0"/></radialGradient><radialGradient id="in" cx="0" cy="0" r="1" gradientUnits="userSpaceOnUse" gradientTransform="matrix(-.22753 11.36422 -11.37192 -.22768 1293.104 600.337)"><stop stop-color="#EBEBEB"/><stop offset="1" stop-color="#EBEBEB" stop-opacity="0"/></radialGradient><radialGradient id="io" cx="0" cy="0" r="1" gradientUnits="userSpaceOnUse" gradientTransform="matrix(-.25406 12.68926 -12.69776 -.25423 1329.574 571.114)"><stop stop-color="#EBEBEB"/><stop offset="1" stop-color="#EBEBEB" stop-opacity="0"/></radialGradient><radialGradient id="ip" cx="0" cy="0" r="1" gradientUnits="userSpaceOnUse" gradientTransform="rotate(91.147 367.862 907.179) scale(5.81069 5.81458)"><stop stop-color="#EBEBEB"/><stop offset="1" stop-color="#EBEBEB" stop-opacity="0"/></radialGradient><radialGradient id="iq" cx="0" cy="0" r="1" gradientUnits="userSpaceOnUse" gradientTransform="matrix(-.22753 11.36422 -11.37192 -.22768 1203.904 530.213)"><stop stop-color="#EBEBEB"/><stop offset="1" stop-color="#EBEBEB" stop-opacity="0"/></radialGradient><radialGradient id="ir" cx="0" cy="0" r="1" gradientUnits="userSpaceOnUse" gradientTransform="matrix(-.25406 12.68926 -12.69776 -.25423 1240.343 500.964)"><stop stop-color="#EBEBEB"/><stop offset="1" stop-color="#EBEBEB" stop-opacity="0"/></radialGradient><radialGradient id="is" cx="0" cy="0" r="1" gradientUnits="userSpaceOnUse" gradientTransform="rotate(91.147 357.615 828.386) scale(5.81069 5.81458)"><stop stop-color="#EBEBEB"/><stop offset="1" stop-color="#EBEBEB" stop-opacity="0"/></radialGradient><radialGradient id="it" cx="0" cy="0" r="1" gradientUnits="userSpaceOnUse" gradientTransform="matrix(-.25406 12.68926 -12.69776 -.25423 1485.195 474.353)"><stop stop-color="#EBEBEB"/><stop offset="1" stop-color="#EBEBEB" stop-opacity="0"/></radialGradient><radialGradient id="iu" cx="0" cy="0" r="1" gradientUnits="userSpaceOnUse" gradientTransform="rotate(91.147 493.082 935.08) scale(5.81069 5.81458)"><stop stop-color="#EBEBEB"/><stop offset="1" stop-color="#EBEBEB" stop-opacity="0"/></radialGradient><radialGradient id="iv" cx="0" cy="0" r="1" gradientUnits="userSpaceOnUse" gradientTransform="matrix(56.0079 -53.84285 53.8414 56.0064 1636.23 444.6)"><stop stop-color="#EBEBEB"/><stop offset="1" stop-color="#EBEBEB" stop-opacity="0"/></radialGradient><radialGradient id="iw" cx="0" cy="0" r="1" gradientUnits="userSpaceOnUse" gradientTransform="rotate(-43.871 1329.455 -1659.27) scale(22.6854 22.6848)"><stop stop-color="#EBEBEB"/><stop offset="1" stop-color="#EBEBEB" stop-opacity="0"/></radialGradient><radialGradient id="ix" cx="0" cy="0" r="1" gradientUnits="userSpaceOnUse" gradientTransform="matrix(7.47872 -7.18962 7.18948 7.47858 1563.73 535.12)"><stop stop-color="#EBEBEB"/><stop offset="1" stop-color="#EBEBEB" stop-opacity="0"/></radialGradient><radialGradient id="iy" cx="0" cy="0" r="1" gradientUnits="userSpaceOnUse" gradientTransform="rotate(-153.975 160.746 297.976) scale(5.99113 5.98867)"><stop stop-color="#EBEBEB"/><stop offset="1" stop-color="#EBEBEB" stop-opacity="0"/></radialGradient><radialGradient id="iz" cx="0" cy="0" r="1" gradientUnits="userSpaceOnUse" gradientTransform="matrix(-2.45128 -1.1969 1.1964 -2.45026 189.628 618.75)"><stop stop-color="#EBEBEB"/><stop offset="1" stop-color="#EBEBEB" stop-opacity="0"/></radialGradient><radialGradient id="iA" cx="0" cy="0" r="1" gradientUnits="userSpaceOnUse" gradientTransform="matrix(1.96561 -5.65654 5.65952 1.96664 228.898 662.554)"><stop stop-color="#EBEBEB"/><stop offset="1" stop-color="#EBEBEB" stop-opacity="0"/></radialGradient><radialGradient id="iB" cx="0" cy="0" r="1" gradientUnits="userSpaceOnUse" gradientTransform="matrix(.89498 -2.57551 2.57689 .89546 248.121 675.51)"><stop stop-color="#EBEBEB"/><stop offset="1" stop-color="#EBEBEB" stop-opacity="0"/></radialGradient><radialGradient id="iC" cx="0" cy="0" r="1" gradientUnits="userSpaceOnUse" gradientTransform="rotate(-70.838 571.734 209.803) scale(20.4622 20.473)"><stop stop-color="#EBEBEB"/><stop offset="1" stop-color="#EBEBEB" stop-opacity="0"/></radialGradient><radialGradient id="iD" cx="0" cy="0" r="1" gradientUnits="userSpaceOnUse" gradientTransform="matrix(1.9656 -5.65655 5.65951 1.96663 160.455 697.955)"><stop stop-color="#EBEBEB"/><stop offset="1" stop-color="#EBEBEB" stop-opacity="0"/></radialGradient><radialGradient id="iE" cx="0" cy="0" r="1" gradientUnits="userSpaceOnUse" gradientTransform="rotate(-70.838 589.663 229.128) scale(2.72659 2.72803)"><stop stop-color="#EBEBEB"/><stop offset="1" stop-color="#EBEBEB" stop-opacity="0"/></radialGradient><radialGradient id="iF" cx="0" cy="0" r="1" gradientUnits="userSpaceOnUse" gradientTransform="matrix(-10.6947 14.15221 -14.15476 -10.69662 107.489 716.251)"><stop stop-color="#EBEBEB"/><stop offset="1" stop-color="#EBEBEB" stop-opacity="0"/></radialGradient><radialGradient id="iG" cx="0" cy="0" r="1" gradientUnits="userSpaceOnUse" gradientTransform="matrix(-1.42903 1.89103 -1.89137 -1.4293 120.605 693.23)"><stop stop-color="#EBEBEB"/><stop offset="1" stop-color="#EBEBEB" stop-opacity="0"/></radialGradient><radialGradient id="iH" cx="0" cy="0" r="1" gradientUnits="userSpaceOnUse" gradientTransform="rotate(174.214 94.539 204.034) scale(141.688 141.596)"><stop stop-color="#EBEBEB"/><stop offset="1" stop-color="#EBEBEB" stop-opacity="0"/></radialGradient><radialGradient id="iI" cx="0" cy="0" r="1" gradientUnits="userSpaceOnUse" gradientTransform="matrix(-41.17127 4.17186 -4.16913 -41.14431 389.875 507.421)"><stop stop-color="#EBEBEB"/><stop offset="1" stop-color="#EBEBEB" stop-opacity="0"/></radialGradient><radialGradient id="iJ" cx="0" cy="0" r="1" gradientUnits="userSpaceOnUse" gradientTransform="rotate(174.214 198.717 185.077) scale(18.919 18.9066)"><stop stop-color="#EBEBEB"/><stop offset="1" stop-color="#EBEBEB" stop-opacity="0"/></radialGradient><radialGradient id="iK" cx="0" cy="0" r="1" gradientUnits="userSpaceOnUse" gradientTransform="matrix(0 71.3451 -71.3929 0 985.13 243.819)"><stop stop-color="#fff"/><stop offset=".07" stop-color="#FFDAA2"/><stop offset=".32" stop-color="#FF0E00"/><stop offset=".79"/></radialGradient><radialGradient id="iL" cx="0" cy="0" r="1" gradientUnits="userSpaceOnUse" gradientTransform="matrix(0 71.3451 -71.3929 0 1295.41 399.836)"><stop stop-color="#fff"/><stop offset=".07" stop-color="#FFDAA2"/><stop offset=".32" stop-color="#FF0E00"/><stop offset=".79"/></radialGradient><radialGradient id="iM" cx="0" cy="0" r="1" gradientUnits="userSpaceOnUse" gradientTransform="scale(39.0876 39.0615) rotate(90 -2 13.714)"><stop stop-color="#fff"/><stop offset=".07" stop-color="#FFDAA2"/><stop offset=".32" stop-color="#FF0E00"/><stop offset=".79"/></radialGradient><radialGradient id="iN" cx="0" cy="0" r="1" gradientUnits="userSpaceOnUse" gradientTransform="matrix(0 18.6771 -18.6896 0 18.903 163.301)"><stop stop-color="#fff"/><stop offset=".07" stop-color="#FFDAA2"/><stop offset=".32" stop-color="#FF0E00"/><stop offset=".79"/></radialGradient><radialGradient id="iO" cx="0" cy="0" r="1" gradientUnits="userSpaceOnUse" gradientTransform="matrix(0 15.2882 -15.2985 0 238.181 278.804)"><stop stop-color="#fff"/><stop offset=".07" stop-color="#FFDAA2"/><stop offset=".32" stop-color="#FF0E00"/><stop offset=".79"/></radialGradient><radialGradient id="iP" cx="0" cy="0" r="1" gradientUnits="userSpaceOnUse" gradientTransform="matrix(0 15.2882 -15.2985 0 182.087 312.795)"><stop stop-color="#fff"/><stop offset=".07" stop-color="#FFDAA2"/><stop offset=".32" stop-color="#FF0E00"/><stop offset=".79"/></radialGradient><radialGradient id="iQ" cx="0" cy="0" r="1" gradientUnits="userSpaceOnUse" gradientTransform="matrix(0 15.2882 -15.2985 0 878.754 543.137)"><stop stop-color="#fff"/><stop offset=".07" stop-color="#FFDAA2"/><stop offset=".32" stop-color="#FF0E00"/><stop offset=".79"/></radialGradient><radialGradient id="iR" cx="0" cy="0" r="1" gradientUnits="userSpaceOnUse" gradientTransform="matrix(0 15.2882 -15.2985 0 1405.71 675.636)"><stop stop-color="#fff"/><stop offset=".07" stop-color="#FFDAA2"/><stop offset=".32" stop-color="#FF0E00"/><stop offset=".79"/></radialGradient><radialGradient id="iS" cx="0" cy="0" r="1" gradientUnits="userSpaceOnUse" gradientTransform="matrix(0 15.2882 -15.2985 0 822.66 577.128)"><stop stop-color="#fff"/><stop offset=".07" stop-color="#FFDAA2"/><stop offset=".32" stop-color="#FF0E00"/><stop offset=".79"/></radialGradient><radialGradient id="iT" cx="0" cy="0" r="1" gradientUnits="userSpaceOnUse" gradientTransform="matrix(0 15.2882 -15.2985 0 401.11 658.666)"><stop stop-color="#fff"/><stop offset=".07" stop-color="#FFDAA2"/><stop offset=".32" stop-color="#FF0E00"/><stop offset=".79"/></radialGradient><radialGradient id="iU" cx="0" cy="0" r="1" gradientUnits="userSpaceOnUse" gradientTransform="matrix(0 15.2882 -15.2985 0 780.155 483.692)"><stop stop-color="#fff"/><stop offset=".07" stop-color="#FFDAA2"/><stop offset=".32" stop-color="#FF0E00"/><stop offset=".79"/></radialGradient><radialGradient id="iV" cx="0" cy="0" r="1" gradientUnits="userSpaceOnUse" gradientTransform="matrix(0 39.0615 -39.0876 0 144.427 184.73)"><stop stop-color="#fff"/><stop offset=".07" stop-color="#FFDAA2"/><stop offset=".32" stop-color="#FF0E00"/><stop offset=".79"/></radialGradient><radialGradient id="iW" cx="0" cy="0" r="1" gradientUnits="userSpaceOnUse" gradientTransform="matrix(0 33.9654 -33.9881 0 882.426 445.293)"><stop stop-color="#fff"/><stop offset=".07" stop-color="#FFDAA2"/><stop offset=".32" stop-color="#FF0E00"/><stop offset=".79"/></radialGradient><radialGradient id="iX" cx="0" cy="0" r="1" gradientUnits="userSpaceOnUse" gradientTransform="matrix(0 47.5464 -47.5783 0 553.483 48.232)"><stop stop-color="#fff"/><stop offset=".07" stop-color="#FFDAA2"/><stop offset=".32" stop-color="#FF0E00"/><stop offset=".79"/></radialGradient><radialGradient id="iY" cx="0" cy="0" r="1" gradientUnits="userSpaceOnUse" gradientTransform="matrix(0 31.9524 -31.9738 0 358.427 560.337)"><stop stop-color="#fff"/><stop offset=".07" stop-color="#FFDAA2"/><stop offset=".32" stop-color="#FF0E00"/><stop offset=".79"/></radialGradient><radialGradient id="iZ" cx="0" cy="0" r="1" gradientUnits="userSpaceOnUse" gradientTransform="matrix(0 48.5147 -48.5472 0 1102.95 319.139)"><stop stop-color="#fff"/><stop offset=".07" stop-color="#FFDAA2"/><stop offset=".32" stop-color="#FF0E00"/><stop offset=".79"/></radialGradient><radialGradient id="iaa" cx="0" cy="0" r="1" gradientUnits="userSpaceOnUse" gradientTransform="matrix(0 48.5147 -48.5472 0 1267.85 66.017)"><stop stop-color="#fff"/><stop offset=".07" stop-color="#FFDAA2"/><stop offset=".32" stop-color="#FF0E00"/><stop offset=".79"/></radialGradient><radialGradient id="iab" cx="0" cy="0" r="1" gradientUnits="userSpaceOnUse" gradientTransform="matrix(0 48.5147 -48.5472 0 388.591 726.393)"><stop stop-color="#fff"/><stop offset=".07" stop-color="#FFDAA2"/><stop offset=".32" stop-color="#FF0E00"/><stop offset=".79"/></radialGradient><radialGradient id="iac" cx="0" cy="0" r="1" gradientUnits="userSpaceOnUse" gradientTransform="matrix(0 48.5147 -48.5472 0 851.778 659.71)"><stop stop-color="#fff"/><stop offset=".07" stop-color="#FFDAA2"/><stop offset=".32" stop-color="#FF0E00"/><stop offset=".79"/></radialGradient><radialGradient id="iad" cx="0" cy="0" r="1" gradientUnits="userSpaceOnUse" gradientTransform="matrix(0 48.5147 -48.5472 0 710.292 396.014)"><stop stop-color="#fff"/><stop offset=".07" stop-color="#FFDAA2"/><stop offset=".32" stop-color="#FF0E00"/><stop offset=".79"/></radialGradient><radialGradient id="iae" cx="0" cy="0" r="1" gradientUnits="userSpaceOnUse" gradientTransform="matrix(0 48.5147 -48.5472 0 1119.5 418.946)"><stop stop-color="#fff"/><stop offset=".07" stop-color="#FFDAA2"/><stop offset=".32" stop-color="#FF0E00"/><stop offset=".79"/></radialGradient><radialGradient id="iaf" cx="0" cy="0" r="1" gradientUnits="userSpaceOnUse" gradientTransform="matrix(0 48.5147 -48.5472 0 1521.06 147.58)"><stop stop-color="#fff"/><stop offset=".07" stop-color="#FFDAA2"/><stop offset=".32" stop-color="#FF0E00"/><stop offset=".79"/></radialGradient><radialGradient id="iag" cx="0" cy="0" r="1" gradientUnits="userSpaceOnUse" gradientTransform="matrix(0 59.6496 -59.6896 0 1456.04 709.397)"><stop stop-color="#fff"/><stop offset=".07" stop-color="#FFDAA2"/><stop offset=".32" stop-color="#FF0E00"/><stop offset=".79"/></radialGradient><radialGradient id="iah" cx="0" cy="0" r="1" gradientUnits="userSpaceOnUse" gradientTransform="matrix(0 31.6721 -31.6933 0 1345.13 674.999)"><stop stop-color="#fff"/><stop offset=".07" stop-color="#FFDAA2"/><stop offset=".32" stop-color="#FF0E00"/><stop offset=".79"/></radialGradient><radialGradient id="iai" cx="0" cy="0" r="1" gradientUnits="userSpaceOnUse" gradientTransform="matrix(0 27.1621 -27.1803 0 1365.17 317.024)"><stop stop-color="#fff"/><stop offset=".07" stop-color="#FFDAA2"/><stop offset=".32" stop-color="#FF0E00"/><stop offset=".79"/></radialGradient><radialGradient id="iaj" cx="0" cy="0" r="1" gradientUnits="userSpaceOnUse" gradientTransform="matrix(0 15.2882 -15.2985 0 1309.07 351.015)"><stop stop-color="#fff"/><stop offset=".07" stop-color="#FFDAA2"/><stop offset=".32" stop-color="#FF0E00"/><stop offset=".79"/></radialGradient><radialGradient id="iak" cx="0" cy="0" r="1" gradientUnits="userSpaceOnUse" gradientTransform="matrix(0 15.2882 -15.2985 0 1240.82 157.542)"><stop stop-color="#fff"/><stop offset=".07" stop-color="#FFDAA2"/><stop offset=".32" stop-color="#FF0E00"/><stop offset=".79"/></radialGradient><radialGradient id="ial" cx="0" cy="0" r="1" gradientUnits="userSpaceOnUse" gradientTransform="matrix(0 37.3288 -37.3538 0 1220.42 279.848)"><stop stop-color="#fff"/><stop offset=".07" stop-color="#FFDAA2"/><stop offset=".32" stop-color="#FF0E00"/><stop offset=".79"/></radialGradient><radialGradient id="iam" cx="0" cy="0" r="1" gradientUnits="userSpaceOnUse" gradientTransform="matrix(0 15.2882 -15.2985 0 922.941 200.604)"><stop stop-color="#fff"/><stop offset=".07" stop-color="#FFDAA2"/><stop offset=".32" stop-color="#FF0E00"/><stop offset=".79"/></radialGradient><radialGradient id="ian" cx="0" cy="0" r="1" gradientUnits="userSpaceOnUse" gradientTransform="matrix(0 15.2882 -15.2985 0 866.847 230.595)"><stop stop-color="#fff"/><stop offset=".07" stop-color="#FFDAA2"/><stop offset=".32" stop-color="#FF0E00"/><stop offset=".79"/></radialGradient><radialGradient id="iao" cx="0" cy="0" r="1" gradientUnits="userSpaceOnUse" gradientTransform="matrix(0 15.2882 -15.2985 0 1378.5 262.853)"><stop stop-color="#fff"/><stop offset=".07" stop-color="#FFDAA2"/><stop offset=".32" stop-color="#FF0E00"/><stop offset=".79"/></radialGradient><radialGradient id="iap" cx="0" cy="0" r="1" gradientUnits="userSpaceOnUse" gradientTransform="matrix(0 15.2882 -15.2985 0 1242.53 475.181)"><stop stop-color="#fff"/><stop offset=".07" stop-color="#FFDAA2"/><stop offset=".32" stop-color="#FF0E00"/><stop offset=".79"/></radialGradient></defs></svg><svg viewBox="0 0 209 209" id="scroll-down" xmlns="http://www.w3.org/2000/svg"><path d="M190.411 127.754c1.135.239 2.159 0 3.071-.715.913-.716 1.595-1.741 2.045-3.077.329-.976.459-1.883.39-2.722-.072-.832-.315-1.545-.73-2.141a3.293 3.293 0 00-1.681-1.238c-.588-.198-1.142-.229-1.66-.092a3.944 3.944 0 00-1.414.746 8.332 8.332 0 00-1.151 1.172c-.337.43-.628.831-.873 1.204l-1.359 2.037a20.54 20.54 0 01-1.27 1.706 9.338 9.338 0 01-1.774 1.668 5.838 5.838 0 01-2.289 1.028c-.853.184-1.797.101-2.831-.247-1.191-.402-2.163-1.077-2.914-2.026-.754-.942-1.214-2.104-1.379-3.487-.168-1.375.034-2.91.605-4.605.532-1.579 1.248-2.861 2.147-3.845.897-.976 1.913-1.641 3.047-1.994 1.132-.346 2.315-.359 3.551-.039l-.93 2.757c-.857-.209-1.64-.161-2.35.143-.706.314-1.318.803-1.838 1.467a8 8 0 00-1.215 2.325c-.344 1.019-.487 1.99-.431 2.912.064.925.314 1.725.751 2.4.443.677 1.067 1.151 1.871 1.422.732.247 1.397.243 1.994-.011.597-.255 1.152-.667 1.664-1.238a17.933 17.933 0 001.484-1.91l1.69-2.453c1.076-1.555 2.243-2.681 3.501-3.376 1.257-.696 2.629-.793 4.115-.292 1.235.416 2.199 1.113 2.893 2.09.699.987 1.112 2.134 1.239 3.44.132 1.316-.039 2.677-.513 4.084-.479 1.422-1.16 2.599-2.043 3.533-.875.936-1.859 1.58-2.953 1.93a5.436 5.436 0 01-3.331.029l.871-2.585zm-22.813 10.265c.933-1.344 2.054-2.281 3.363-2.811 1.309-.53 2.702-.67 4.178-.419 1.477.251 2.931.873 4.363 1.867 1.456 1.011 2.555 2.171 3.297 3.479.744 1.32 1.096 2.68 1.054 4.081-.039 1.411-.508 2.764-1.407 4.058-.7 1.008-1.517 1.787-2.453 2.337a6.352 6.352 0 01-2.948.899c-1.031.05-2.037-.174-3.02-.672l1.53-2.203c.77.286 1.608.315 2.514.086.907-.218 1.698-.813 2.372-1.783.597-.859.896-1.768.897-2.726.003-.948-.274-1.883-.833-2.806-.556-.912-1.376-1.744-2.458-2.495-1.108-.77-2.194-1.265-3.257-1.487-1.068-.216-2.051-.161-2.95.165-.904.331-1.658.933-2.263 1.804-.398.573-.659 1.161-.784 1.766a3.91 3.91 0 00.036 1.782c.148.583.436 1.124.864 1.624l-1.53 2.203a6.215 6.215 0 01-1.645-2.512c-.335-.952-.423-1.968-.264-3.047.162-1.069.609-2.132 1.344-3.19zm-6.471 10.818l12.207 12.476-1.852 1.812-1.844-1.885-.13.127c.377.84.455 1.744.236 2.711-.22.967-.703 1.816-1.45 2.548-.141.137-.32.307-.536.508-.217.201-.384.349-.503.444l-1.908-1.949c.081-.047.254-.169.519-.364.264-.185.524-.401.778-.65.607-.594 1.024-1.251 1.251-1.972.228-.71.262-1.422.104-2.136-.159-.703-.513-1.337-1.064-1.9l-7.725-7.895 1.917-1.875zm-16.252 14.836c1.409-.705 2.814-.987 4.213-.848 1.392.143 2.688.668 3.887 1.577 1.193.911 2.192 2.173 2.998 3.786.812 1.627 1.227 3.194 1.244 4.702.009 1.511-.347 2.866-1.069 4.065-.728 1.202-1.797 2.156-3.207 2.86-1.41.705-2.811.985-4.203.843-1.399-.14-2.697-.668-3.892-1.587-1.203-.915-2.211-2.186-3.023-3.812-.806-1.613-1.212-3.171-1.219-4.676-.013-1.501.345-2.852 1.074-4.055.721-1.199 1.787-2.151 3.197-2.855zm1.077 2.155c-1.071.535-1.815 1.25-2.232 2.144-.417.894-.568 1.872-.453 2.932.115 1.061.433 2.113.955 3.156.521 1.044 1.173 1.933 1.956 2.669.782.735 1.658 1.208 2.627 1.418.969.211 1.988.048 3.059-.487 1.071-.535 1.813-1.253 2.227-2.154.413-.901.561-1.885.442-2.953-.118-1.067-.438-2.122-.959-3.166-.522-1.043-1.172-1.93-1.951-2.658-.779-.729-1.651-1.195-2.617-1.398-.965-.204-1.984-.038-3.054.497zm-7.854 27.186l-7.765-21.939 2.528-.895 7.765 21.939-2.528.895zm-11.489 3.589l-4.882-22.754 2.622-.563 4.883 22.755-2.623.562zm-28.288-20.382c1.418.327 2.586.973 3.506 1.94.919.973 1.533 2.188 1.842 3.643.308 1.463.255 3.095-.161 4.896-.412 1.786-1.075 3.266-1.991 4.439-.916 1.172-2.002 1.991-3.26 2.455-1.258.464-2.603.531-4.035.201-1.107-.255-1.94-.642-2.496-1.159-.567-.511-.966-1.039-1.198-1.582a20.815 20.815 0 01-.548-1.316l-.222-.051-1.93 8.371-2.613-.603 5.23-22.677 2.524.582-.603 2.613.31.072c.264-.266.627-.594 1.09-.985.462-.383 1.064-.684 1.806-.902.74-.21 1.657-.189 2.75.063zm-.895 2.266c-1.049-.242-1.998-.173-2.847.206-.851.387-1.577 1.025-2.178 1.912-.603.895-1.053 1.985-1.349 3.269-.293 1.27-.364 2.424-.215 3.461.148 1.045.522 1.916 1.123 2.615.6.705 1.43 1.181 2.494 1.426 1.107.255 2.095.184 2.964-.214.86-.393 1.587-1.03 2.179-1.912.583-.876 1.012-1.912 1.288-3.108.279-1.211.348-2.353.207-3.428-.15-1.068-.523-1.979-1.12-2.73-.605-.746-1.454-1.245-2.546-1.497zm-21.798-7.952c1.35.812 2.343 1.845 2.976 3.101.627 1.251.879 2.627.756 4.126-.13 1.495-.658 3.016-1.587 4.561-.936 1.559-2.036 2.75-3.3 3.573-1.269.819-2.603 1.246-4.003 1.28-1.406.03-2.784-.36-4.135-1.172-1.35-.811-2.34-1.842-2.966-3.094-.633-1.255-.883-2.634-.75-4.136.127-1.506.658-3.038 1.594-4.596.929-1.546 2.026-2.725 3.292-3.538 1.26-.816 2.592-1.24 3.998-1.27 1.4-.035 2.774.354 4.125 1.165zm-1.24 2.066c-1.027-.617-2.029-.861-3.007-.733-.979.128-1.885.525-2.718 1.191-.833.667-1.55 1.5-2.15 2.5-.601 1-1.002 2.027-1.203 3.082-.2 1.055-.13 2.048.213 2.978.343.931 1.027 1.704 2.053 2.32 1.026.617 2.03.858 3.013.723.982-.135 1.892-.538 2.729-1.211.837-.672 1.556-1.509 2.156-2.509.601-1 1-2.024 1.197-3.072.196-1.049.121-2.035-.225-2.959-.346-.924-1.033-1.694-2.059-2.31zm-17.381-10.678l-11.04 14.528-1.649-2.285 8.627-10.881-.106-.147-13.017 4.8-1.676-2.322 8.644-10.781-.107-.147-13.007 4.736-1.65-2.285 17.266-5.904 1.543 2.138-8.638 10.944.16.221 13.107-4.753 1.543 2.138zm-26.69-18.345l9.937-3.391.866 2.538-16.519 5.637-.837-2.452 2.582-.881-.074-.215a4.976 4.976 0 01-2.624-1.073c-.785-.613-1.39-1.543-1.816-2.79-.382-1.119-.487-2.176-.314-3.171.165-.993.63-1.881 1.397-2.662.758-.78 1.84-1.409 3.246-1.889l10.496-3.582.866 2.538-10.324 3.524c-1.298.443-2.194 1.125-2.688 2.046-.501.923-.551 1.973-.15 3.149.277.81.7 1.474 1.268 1.992.567.511 1.25.835 2.049.97.798.136 1.678.04 2.639-.288zm5.063-97.2c-.931-.691-1.96-.902-3.089-.634-1.128.269-2.176.916-3.143 1.94-.707.75-1.204 1.52-1.492 2.311-.283.785-.36 1.535-.232 2.25.133.708.47 1.318 1.01 1.827.451.426.941.685 1.469.777a3.93 3.93 0 001.597-.086 8.308 8.308 0 001.535-.584c.485-.25.918-.492 1.297-.729l2.085-1.282a20.599 20.599 0 011.867-1.019 9.343 9.343 0 012.309-.775 5.845 5.845 0 012.509.024c.852.19 1.675.659 2.468 1.407.915.863 1.515 1.883 1.801 3.059.292 1.17.223 2.419-.204 3.744-.423 1.32-1.247 2.63-2.474 3.93-1.144 1.213-2.33 2.078-3.558 2.596-1.224.512-2.424.692-3.602.539-1.173-.16-2.254-.642-3.242-1.45l1.997-2.115c.69.548 1.423.832 2.195.852.772.01 1.533-.178 2.283-.565a8.01 8.01 0 002.075-1.603c.738-.783 1.274-1.605 1.608-2.467.329-.867.436-1.698.322-2.493-.12-.8-.488-1.492-1.105-2.074-.562-.53-1.168-.805-1.817-.824-.649-.018-1.325.125-2.03.43a17.92 17.92 0 00-2.145 1.115L35.114 56c-1.629.964-3.16 1.499-4.592 1.605-1.433.106-2.72-.38-3.861-1.456-.948-.894-1.533-1.93-1.754-3.108-.223-1.188-.119-2.403.312-3.642.43-1.25 1.154-2.416 2.173-3.496 1.03-1.091 2.14-1.876 3.332-2.356 1.186-.484 2.35-.658 3.49-.52a5.434 5.434 0 013.038 1.367l-1.872 1.984zm24.647.422c-1.406.837-2.814 1.226-4.225 1.167-1.41-.059-2.737-.508-3.977-1.347-1.241-.84-2.307-2.008-3.2-3.505-.906-1.523-1.427-3.033-1.561-4.532-.132-1.509.11-2.892.728-4.15.62-1.27 1.606-2.307 2.96-3.113 1.055-.628 2.121-1 3.2-1.113a6.354 6.354 0 013.056.402c.96.38 1.783 1.001 2.471 1.86l-2.303 1.373c-.583-.578-1.334-.951-2.254-1.118-.916-.177-1.882.037-2.898.642-.898.535-1.546 1.239-1.944 2.11-.395.862-.529 1.828-.402 2.9.129 1.06.53 2.156 1.205 3.289.69 1.158 1.474 2.059 2.35 2.7.883.639 1.8.995 2.754 1.071.96.072 1.896-.163 2.807-.706a4.79 4.79 0 001.444-1.284c.364-.499.6-1.044.705-1.636a4.007 4.007 0 00-.115-1.837l2.304-1.372c.397.962.55 1.952.458 2.967-.089 1.006-.429 1.967-1.02 2.884-.59.906-1.437 1.689-2.543 2.348zm10.4-7.234l-5.947-16.41 2.436-.883.898 2.479.17-.062c.006-.92.308-1.775.908-2.565.6-.79 1.392-1.363 2.375-1.719.185-.067.418-.147.698-.24.28-.094.495-.16.642-.197l.93 2.564c-.094.01-.301.048-.623.117a6.156 6.156 0 00-.978.27c-.798.288-1.45.714-1.955 1.276a4.029 4.029 0 00-.978 1.902c-.147.706-.087 1.43.182 2.17l3.763 10.384-2.52.914zm20.917-6.806c-1.575.054-2.97-.273-4.184-.981-1.208-.709-2.168-1.725-2.88-3.05-.706-1.324-1.09-2.888-1.153-4.69-.063-1.817.211-3.414.823-4.793.619-1.378 1.506-2.462 2.66-3.253 1.164-.79 2.532-1.214 4.107-1.268 1.575-.055 2.966.272 4.173.98 1.215.709 2.175 1.729 2.88 3.061.714 1.332 1.102 2.907 1.166 4.724.062 1.802-.216 3.388-.836 4.76-.611 1.37-1.499 2.45-2.661 3.241-1.155.79-2.52 1.214-4.095 1.268zm-.084-2.408c1.196-.042 2.17-.383 2.92-1.023.752-.64 1.295-1.466 1.632-2.479.336-1.012.484-2.1.443-3.267-.04-1.166-.263-2.246-.67-3.24-.405-.994-1.005-1.788-1.8-2.382-.793-.594-1.788-.87-2.984-.829-1.197.042-2.17.386-2.92 1.034-.751.648-1.295 1.482-1.63 2.502-.337 1.02-.484 2.112-.444 3.278.04 1.166.264 2.242.67 3.229.405.986 1.005 1.773 1.798 2.36.794.586 1.789.858 2.985.817zM110.108 8.88l-2.151 23.173-2.67-.247 2.151-23.174 2.67.248zm12.014 1.535l-5.057 22.717-2.617-.583 5.056-22.716 2.618.582zm17.013 30.196c-1.151-.89-1.942-1.966-2.374-3.228-.427-1.269-.477-2.629-.15-4.08.332-1.457 1.063-2.917 2.194-4.38 1.121-1.45 2.343-2.517 3.665-3.199 1.322-.682 2.652-.971 3.988-.867 1.337.105 2.586.606 3.749 1.505.899.695 1.494 1.394 1.783 2.097.301.701.443 1.347.427 1.938a20.54 20.54 0 01-.053 1.424l.18.14 5.254-6.797 2.122 1.64-14.234 18.412-2.05-1.584 1.641-2.122-.252-.195a16.92 16.92 0 01-1.402.439c-.58.155-1.252.176-2.017.064-.761-.119-1.584-.521-2.471-1.207zm1.761-1.683c.851.657 1.741.992 2.672 1.002.935.005 1.861-.27 2.778-.825.922-.561 1.786-1.363 2.592-2.406.797-1.03 1.344-2.049 1.643-3.053.302-1.011.327-1.96.073-2.845-.249-.892-.805-1.671-1.669-2.338-.899-.695-1.826-1.044-2.782-1.046-.946-.003-1.872.272-2.779.826-.896.552-1.719 1.314-2.469 2.285-.76.982-1.301 1.991-1.622 3.026-.311 1.034-.352 2.016-.125 2.949.238.93.801 1.739 1.688 2.425zM157.309 55.1c-.895-1.298-1.37-2.65-1.427-4.055-.053-1.398.286-2.755 1.019-4.069.736-1.308 1.847-2.473 3.331-3.496 1.498-1.031 2.991-1.66 4.482-1.887 1.495-.22 2.887-.057 4.175.49 1.292.555 2.385 1.48 3.279 2.778.894 1.297 1.368 2.646 1.421 4.044.057 1.405-.286 2.764-1.028 4.076-.739 1.318-1.857 2.493-3.354 3.525-1.485 1.023-2.971 1.642-4.46 1.858-1.484.223-2.873.057-4.165-.497-1.288-.548-2.379-1.47-3.273-2.768zm1.983-1.368c.679.986 1.491 1.623 2.435 1.911.943.288 1.932.301 2.966.04 1.034-.262 2.032-.724 2.992-1.386.961-.661 1.751-1.431 2.37-2.308.619-.878.965-1.81 1.039-2.8.073-.989-.23-1.976-.909-2.961-.68-.986-1.494-1.62-2.444-1.905-.95-.284-1.945-.292-2.986-.026-1.04.266-2.04.73-3.001 1.391-.961.662-1.748 1.43-2.36 2.303-.613.873-.953 1.802-1.02 2.786-.067.985.239 1.97.918 2.955zm11.502 16.915l16.083-8.617.549 2.764-12.372 6.304.035.179 13.834 1.052.558 2.808-12.345 6.207.035.178 13.798 1.105.549 2.764-18.156-1.815-.514-2.585 12.408-6.358-.053-.268-13.896-1.132-.513-2.586z"/></svg><svg viewBox="0 0 176 176" id="scroll-down-circle" xmlns="http://www.w3.org/2000/svg"><circle cx="87.531" cy="87.531" r="87.195"/><circle cx="87.532" cy="87.531" r="55.867"/><rect x="72.888" y="63.25" width="29.634" height="46.786" rx="14.791"/><path class="kstar" d="M26.436 45.954l1.56 4.386 4.204-1.998-1.999 4.204 4.387 1.56-4.387 1.56 2 4.205-4.206-1.999-1.56 4.387-1.56-4.387-4.204 1.999 1.998-4.205-4.386-1.56 4.386-1.56-1.998-4.204 4.205 1.998 1.56-4.386zm120.615 68.923l1.56 4.387 4.205-1.999-1.999 4.205 4.387 1.56-4.387 1.56 1.999 4.204-4.205-1.998-1.56 4.386-1.56-4.386-4.204 1.998 1.998-4.204-4.386-1.56 4.386-1.56-1.998-4.205 4.204 1.999 1.56-4.387z"/></svg><svg viewBox="0 0 18 15" id="tw" xmlns="http://www.w3.org/2000/svg"><path d="M17.68 2a7.29 7.29 0 01-2.042.552A3.519 3.519 0 0017.203.618a7.15 7.15 0 01-2.259.848A3.58 3.58 0 0012.348.358c-1.965 0-3.555 1.566-3.555 3.496-.001.269.03.536.092.797A10.14 10.14 0 011.556.997a3.45 3.45 0 00-.483 1.757c0 1.212.632 2.283 1.588 2.911a3.522 3.522 0 01-1.617-.436v.043c0 1.696 1.228 3.106 2.853 3.427a3.64 3.64 0 01-.937.123 3.41 3.41 0 01-.668-.065c.451 1.389 1.766 2.4 3.323 2.428a7.21 7.21 0 01-5.264 1.447 10.065 10.065 0 005.442 1.58c6.547 0 10.124-5.329 10.124-9.95 0-.152-.003-.303-.01-.451A7.163 7.163 0 0017.68 2z"/></svg><svg viewBox="0 0 87 87" id="view-project" xmlns="http://www.w3.org/2000/svg"><mask id="ma"><path d="M73.426 72.208A41.44 41.44 0 016.678 23.442l.653.408a40.67 40.67 0 0065.507 47.86l.588.498z"/></mask><path d="M73.426 72.208A41.44 41.44 0 016.678 23.442l.653.408a40.67 40.67 0 0065.507 47.86l.588.498z" mask="url(#ma)"/><path d="M20.421 18.476c-.352.282-.705.282-1.058.07l-8.606-4.797c-.282-.141-.423-.353-.423-.564 0-.212.14-.424.353-.565.211-.14.352-.211.493-.211.141 0 .353.07.494.14l7.619 4.304-2.117-8.465a.78.78 0 010-.565c.071-.211.142-.282.353-.423.212-.14.423-.211.635-.14.212.07.353.281.423.563l2.187 9.665c.07.212.07.423 0 .564-.07.141-.212.282-.353.424zm5.644-3.458c-.494.212-.776.07-1.058-.353l-3.95-8.182c-.212-.494-.142-.847.352-1.059.494-.211.776-.07 1.058.353l3.95 8.183c.212.494.142.847-.352 1.058zm3.245-1.622c-.564.141-.847 0-1.058-.564l-2.47-8.465c-.14-.564 0-.847.565-1.058l5.22-1.482c.424-.14.635 0 .776.424.141.423 0 .705-.423.776l-4.585 1.34.917 3.174 4.232-1.27c.423-.14.635 0 .776.424.141.423 0 .635-.423.776l-4.233 1.27.988 3.315 4.585-1.34c.424-.141.635 0 .776.423.141.423 0 .635-.423.776l-5.22 1.481zm10.3-2.046c-.424 0-.706-.281-.847-.705l-2.752-9.24c-.07-.283-.07-.495.071-.636.141-.14.353-.211.635-.211.212 0 .353.07.494.14.14.071.211.283.282.494l2.257 7.83 3.034-7.547c.211-.424.493-.635.846-.635.212 0 .353.07.423.211.141.141.212.283.283.494l2.257 7.901 3.104-7.619c.07-.211.211-.352.282-.423.141-.14.282-.14.494-.14.282-.001.423.14.564.281a.529.529 0 010 .635l-3.668 8.96c-.07.21-.212.352-.353.493-.141.07-.282.141-.494.141-.211 0-.423-.07-.493-.212-.071-.14-.212-.282-.283-.493l-2.257-7.76-3.033 7.477c-.07.212-.212.353-.353.494-.141.07-.282.07-.494.07zm15.942 3.105c-.423-.282-.565-.635-.282-1.058l4.303-7.9c.282-.424.635-.565 1.058-.283l3.174 1.693c.988.565 1.623 1.2 1.905 1.975.282.776.141 1.623-.353 2.47-.493.916-1.128 1.41-1.975 1.622-.776.211-1.693 0-2.68-.494l-2.47-1.34-1.622 2.963c-.212.493-.564.564-1.058.352zm3.315-4.373l2.258 1.27c1.34.705 2.257.493 2.892-.636.635-1.128.282-2.045-1.058-2.821L60.7 6.625l-1.834 3.457zM63.1 19.04c-.353-.352-.353-.705 0-1.128l6.208-6.49c.352-.353.705-.353 1.128 0l2.54 2.469c.846.776 1.27 1.552 1.34 2.398.07.847-.211 1.552-.917 2.258-.564.564-1.129.846-1.763.917-.635.07-1.27-.07-1.976-.494.212.423.282.988.07 1.622l-.705 2.61c-.07.283-.211.494-.423.565-.211.07-.423 0-.635-.212-.14-.14-.282-.282-.282-.494-.07-.14 0-.352.07-.564l.847-3.174c.141-.424.141-.776 0-1.059-.14-.282-.282-.564-.635-.846l-1.199-1.129-2.54 2.61c-.423.494-.775.494-1.128.141zm4.373-3.456l1.835 1.763c1.128 1.058 2.045 1.13 2.962.212.847-.917.776-1.905-.352-2.892l-1.834-1.764-2.61 2.68zm3.88 13.403a5.013 5.013 0 01-.705-2.61c0-.846.282-1.622.776-2.398.494-.776 1.2-1.411 2.187-1.905.987-.564 1.904-.847 2.751-.917.917-.07 1.693.141 2.47.564.705.424 1.34 1.058 1.833 1.905.494.846.706 1.693.706 2.54 0 .846-.283 1.622-.776 2.398-.494.776-1.2 1.41-2.187 1.905a6.348 6.348 0 01-2.751.917c-.917.07-1.693-.141-2.47-.565-.775-.352-1.34-.987-1.834-1.834zm1.13-.635c.493.917 1.198 1.411 2.115 1.552.918.141 1.905-.07 3.034-.705 1.128-.635 1.834-1.34 2.116-2.187.353-.846.212-1.693-.282-2.61-.494-.917-1.2-1.411-2.116-1.552-.917-.141-1.905.07-3.034.705-1.128.635-1.834 1.34-2.116 2.258-.282.705-.212 1.622.282 2.54zm1.198 5.289c-.07-.211-.07-.423 0-.564a.723.723 0 01.424-.353.45.45 0 01.423 0c.14.07.212.141.282.353l.141.423c.353.917 1.058 1.2 2.046.847l6.56-2.116c.494-.142.776 0 .988.493.141.494 0 .847-.494.988l-6.56 2.116c-.847.282-1.623.282-2.187 0-.635-.282-1.058-.846-1.411-1.693l-.212-.494zm1.764 5.786c-.07-.564.141-.846.705-.917l8.748-1.129c.564-.07.846.141.917.706l.705 5.361c.07.423-.14.635-.494.705-.423.07-.635-.14-.705-.564l-.564-4.726-3.386.493.564 4.374c.07.423-.141.635-.564.706-.424.07-.635-.142-.706-.565l-.564-4.373-3.386.423.564 4.726c.07.423-.141.635-.564.706-.424.07-.635-.142-.706-.565l-.564-5.361zm.071 11.852c.14-1.058.423-1.905.987-2.61.494-.706 1.2-1.2 2.046-1.482.846-.282 1.834-.352 2.892-.211 1.058.14 1.975.423 2.751.917.776.494 1.27 1.129 1.623 1.975.353.776.423 1.693.282 2.751a6.1 6.1 0 01-.423 1.623 5.367 5.367 0 01-.847 1.34c-.14.212-.352.282-.564.282-.212 0-.353-.07-.494-.14-.141-.071-.212-.283-.282-.424 0-.212.07-.353.212-.564.282-.283.493-.635.705-.988.141-.353.282-.776.353-1.2.14-1.128-.07-2.045-.706-2.68-.635-.705-1.552-1.058-2.822-1.27-1.27-.14-2.257 0-3.033.494-.776.494-1.2 1.34-1.34 2.399-.07.423-.07.846 0 1.27.07.423.212.775.423 1.199.141.211.141.423.07.564-.07.141-.14.282-.352.353-.212.07-.353.07-.494 0-.14-.07-.353-.142-.423-.353-.282-.423-.423-.988-.564-1.552-.142-.564-.071-1.058 0-1.693zm-2.046 7.618c.211-.494.493-.635.987-.423l7.901 3.104 1.129-2.893c.14-.423.423-.564.846-.352.424.14.494.423.353.846l-2.892 7.266c-.141.423-.423.564-.847.423-.423-.14-.493-.423-.352-.846l1.128-2.893-7.9-3.103c-.353-.353-.494-.706-.353-1.13z"/></svg></svg>